<svg width="50" height="50" viewBox="0 0 50 50" fill="none" xmlns="http://www.w3.org/2000/svg">
<path d="M10.5079 34C10.3725 34 10.254 33.9486 10.1524 33.8457C10.0508 33.7429 10 33.6229 10 33.4857C10 33.4 10.0085 33.3057 10.0254 33.2029L16.3238 16.5657C16.3915 16.3943 16.4847 16.2571 16.6032 16.1543C16.7217 16.0514 16.8995 16 17.1365 16H18.8635C19.0836 16 19.2529 16.0514 19.3714 16.1543C19.5069 16.2571 19.6085 16.3943 19.6762 16.5657L25.9492 33.2029C25.9831 33.3057 26 33.4 26 33.4857C26 33.6229 25.9492 33.7429 25.8476 33.8457C25.746 33.9486 25.6275 34 25.4921 34H24.1968C23.9937 34 23.8413 33.9486 23.7397 33.8457C23.655 33.7429 23.5958 33.6486 23.5619 33.5629L22.1651 29.9114H13.8349L12.4381 33.5629C12.4212 33.6486 12.3619 33.7429 12.2603 33.8457C12.1587 33.9486 12.0063 34 11.8032 34H10.5079ZM14.5714 27.7H21.4286L18 18.5714L14.5714 27.7Z" fill="white"/>
<path d="M33.4989 34C32.6749 34 31.9251 33.8395 31.2494 33.5185C30.5738 33.1975 30.03 32.7642 29.618 32.2185C29.206 31.6728 29 31.0549 29 30.3648C29 29.2574 29.4614 28.3747 30.3843 27.7167C31.3071 27.0586 32.5101 26.6253 33.9933 26.4167L37.6764 25.9111V25.213C37.6764 24.4426 37.4457 23.8407 36.9843 23.4074C36.5393 22.9741 35.806 22.7574 34.7843 22.7574C34.0427 22.7574 33.4412 22.9019 32.9798 23.1907C32.5348 23.4796 32.2217 23.8488 32.0404 24.2981C31.9416 24.5389 31.7685 24.6593 31.5213 24.6593H30.409C30.2277 24.6593 30.0876 24.6111 29.9888 24.5148C29.9064 24.4025 29.8652 24.2741 29.8652 24.1296C29.8652 23.8889 29.9558 23.592 30.1371 23.2389C30.3348 22.8858 30.6315 22.5407 31.027 22.2037C31.4225 21.8667 31.9251 21.5858 32.5348 21.3611C33.161 21.1204 33.9191 21 34.809 21C35.7978 21 36.63 21.1284 37.3056 21.3852C37.9813 21.6259 38.5086 21.9549 38.8876 22.3722C39.2831 22.7895 39.5633 23.263 39.7281 23.7926C39.9094 24.3222 40 24.8599 40 25.4056V33.2056C40 33.366 39.9423 33.5025 39.827 33.6148C39.7281 33.7111 39.5963 33.7593 39.4315 33.7593H38.2944C38.1131 33.7593 37.973 33.7111 37.8742 33.6148C37.7753 33.5025 37.7258 33.366 37.7258 33.2056V32.1704C37.5116 32.4593 37.2232 32.7481 36.8607 33.037C36.4981 33.3099 36.0449 33.5426 35.5011 33.7352C34.9573 33.9117 34.2899 34 33.4989 34ZM34.018 32.1944C34.6936 32.1944 35.3116 32.058 35.8719 31.7852C36.4322 31.4963 36.8689 31.0549 37.182 30.4611C37.5116 29.8673 37.6764 29.121 37.6764 28.2222V27.5481L34.809 27.9574C33.639 28.1179 32.7573 28.3907 32.164 28.7759C31.5708 29.1451 31.2742 29.6185 31.2742 30.1963C31.2742 30.6457 31.406 31.0228 31.6697 31.3278C31.9498 31.6167 32.2959 31.8333 32.7079 31.9778C33.1363 32.1222 33.573 32.1944 34.018 32.1944Z" fill="white"/>
</svg>
