<svg width="50" height="50" viewBox="0 0 50 50" fill="none" xmlns="http://www.w3.org/2000/svg">
<path d="M17.5079 34C17.3725 34 17.254 33.9486 17.1524 33.8457C17.0508 33.7429 17 33.6229 17 33.4857C17 33.4 17.0085 33.3057 17.0254 33.2029L23.3238 16.5657C23.3915 16.3943 23.4847 16.2571 23.6032 16.1543C23.7217 16.0514 23.8995 16 24.1365 16H25.8635C26.0836 16 26.2529 16.0514 26.3714 16.1543C26.5069 16.2571 26.6085 16.3943 26.6762 16.5657L32.9492 33.2029C32.9831 33.3057 33 33.4 33 33.4857C33 33.6229 32.9492 33.7429 32.8476 33.8457C32.746 33.9486 32.6275 34 32.4921 34H31.1968C30.9937 34 30.8413 33.9486 30.7397 33.8457C30.655 33.7429 30.5958 33.6486 30.5619 33.5629L29.1651 29.9114H20.8349L19.4381 33.5629C19.4212 33.6486 19.3619 33.7429 19.2603 33.8457C19.1587 33.9486 19.0063 34 18.8032 34H17.5079ZM21.5714 27.7H28.4286L25 18.5714L21.5714 27.7Z" fill="white"/>
<path d="M10 40L10 10" stroke="white" stroke-width="2.5" stroke-linecap="round"/>
<path d="M40 40L40 10" stroke="white" stroke-width="2.5" stroke-linecap="round"/>
</svg>
