<svg width="50" height="50" viewBox="0 0 50 50" fill="none" xmlns="http://www.w3.org/2000/svg">
<path d="M40 25L10 25" stroke="white" stroke-width="2.5" stroke-linecap="round"/>
<path d="M25.5485 34C24.1418 34 22.9614 33.7833 22.0075 33.35C21.0535 32.9 20.3178 32.325 19.8004 31.625C19.2991 30.9083 19.0323 30.15 19 29.35C19 29.2167 19.0485 29.1 19.1455 29C19.2587 28.8833 19.3881 28.825 19.5336 28.825H20.7705C20.9646 28.825 21.1101 28.875 21.2071 28.975C21.3041 29.075 21.3688 29.1917 21.4011 29.325C21.482 29.725 21.676 30.125 21.9832 30.525C22.3066 30.9083 22.7512 31.2333 23.3172 31.5C23.8993 31.75 24.643 31.875 25.5485 31.875C26.9391 31.875 27.9577 31.625 28.6045 31.125C29.2674 30.6083 29.5989 29.925 29.5989 29.075C29.5989 28.4917 29.421 28.025 29.0653 27.675C28.7257 27.3083 28.2002 26.9833 27.4888 26.7C26.7774 26.4167 25.8557 26.1083 24.7239 25.775C23.5435 25.425 22.5653 25.0417 21.7892 24.625C21.0131 24.2083 20.431 23.6917 20.0429 23.075C19.671 22.4583 19.4851 21.675 19.4851 20.725C19.4851 19.825 19.7195 19.025 20.1884 18.325C20.6573 17.6083 21.3284 17.0417 22.2015 16.625C23.0908 16.2083 24.166 16 25.4272 16C26.4297 16 27.3029 16.1417 28.0466 16.425C28.8066 16.6917 29.4372 17.0583 29.9384 17.525C30.4397 17.975 30.8197 18.4667 31.0784 19C31.3371 19.5167 31.4745 20.025 31.4907 20.525C31.4907 20.6417 31.4503 20.7583 31.3694 20.875C31.2886 20.975 31.1592 21.025 30.9813 21.025H29.6959C29.5827 21.025 29.4614 20.9917 29.3321 20.925C29.2189 20.8583 29.13 20.7333 29.0653 20.55C28.9683 19.8667 28.5964 19.2917 27.9496 18.825C27.3029 18.3583 26.4621 18.125 25.4272 18.125C24.3762 18.125 23.5193 18.3333 22.8563 18.75C22.2096 19.1667 21.8862 19.8167 21.8862 20.7C21.8862 21.2667 22.0398 21.7417 22.347 22.125C22.6542 22.4917 23.1393 22.8167 23.8022 23.1C24.4652 23.3833 25.3302 23.6833 26.3974 24C27.6909 24.3667 28.75 24.7583 29.5746 25.175C30.3993 25.575 31.0056 26.0833 31.3937 26.7C31.7979 27.3 32 28.075 32 29.025C32 30.075 31.7332 30.975 31.1996 31.725C30.666 32.4583 29.9142 33.025 28.944 33.425C27.9901 33.8083 26.8582 34 25.5485 34Z" fill="white"/>
</svg>
