<svg width="50" height="50" viewBox="0 0 50 50" fill="none" xmlns="http://www.w3.org/2000/svg">
<path d="M10.5158 34C10.3783 34 10.2579 33.9486 10.1547 33.8457C10.0516 33.7429 10 33.6229 10 33.4857C10 33.4 10.0086 33.3057 10.0258 33.2029L16.4221 16.5657C16.4909 16.3943 16.5855 16.2571 16.7058 16.1543C16.8262 16.0514 17.0067 16 17.2474 16H19.0013C19.2248 16 19.3967 16.0514 19.5171 16.1543C19.6547 16.2571 19.7578 16.3943 19.8266 16.5657L26.1971 33.2029C26.2315 33.3057 26.2487 33.4 26.2487 33.4857C26.2487 33.6229 26.1971 33.7429 26.094 33.8457C25.9908 33.9486 25.8704 34 25.7329 34H24.4175C24.2112 34 24.0564 33.9486 23.9533 33.8457C23.8673 33.7429 23.8071 33.6486 23.7727 33.5629L22.3542 29.9114H13.8945L12.476 33.5629C12.4588 33.6486 12.3986 33.7429 12.2955 33.8457C12.1923 33.9486 12.0375 34 11.8312 34H10.5158ZM14.6425 27.7H21.6062L18.1244 18.5714L14.6425 27.7Z" fill="white"/>
<path d="M29.6913 34C29.5765 34 29.479 33.9661 29.3986 33.8983C29.3298 33.8192 29.2954 33.7232 29.2954 33.6102V32.3898C29.2954 32.2768 29.3298 32.1864 29.3986 32.1186C29.479 32.0395 29.5765 32 29.6913 32H30.9306C31.0453 32 31.1371 32.0395 31.206 32.1186C31.2863 32.1864 31.3265 32.2768 31.3265 32.3898V33.6102C31.3265 33.7232 31.2863 33.8192 31.206 33.8983C31.1371 33.9661 31.0453 34 30.9306 34H29.6913Z" fill="white"/>
<path d="M34.028 34C33.9133 34 33.8157 33.9661 33.7354 33.8983C33.6666 33.8192 33.6321 33.7232 33.6321 33.6102V32.3898C33.6321 32.2768 33.6666 32.1864 33.7354 32.1186C33.8157 32.0395 33.9133 32 34.028 32H35.2673C35.3821 32 35.4739 32.0395 35.5427 32.1186C35.6231 32.1864 35.6632 32.2768 35.6632 32.3898V33.6102C35.6632 33.7232 35.6231 33.8192 35.5427 33.8983C35.4739 33.9661 35.3821 34 35.2673 34H34.028Z" fill="white"/>
<path d="M38.3648 34C38.2501 34 38.1525 33.9661 38.0722 33.8983C38.0033 33.8192 37.9689 33.7232 37.9689 33.6102V32.3898C37.9689 32.2768 38.0033 32.1864 38.0722 32.1186C38.1525 32.0395 38.2501 32 38.3648 32H39.6041C39.7189 32 39.8107 32.0395 39.8795 32.1186C39.9598 32.1864 40 32.2768 40 32.3898V33.6102C40 33.7232 39.9598 33.8192 39.8795 33.8983C39.8107 33.9661 39.7189 34 39.6041 34H38.3648Z" fill="white"/>
</svg>
