<svg width="50" height="50" viewBox="0 0 50 50" fill="none" xmlns="http://www.w3.org/2000/svg">
<path d="M25 34C23.5481 34 22.2951 33.7465 21.2407 33.2394C20.2037 32.7324 19.4 31.9634 18.8296 30.9324C18.2765 29.8845 18 28.5408 18 26.9014V16.6085C18 16.4225 18.0519 16.2789 18.1556 16.1775C18.2593 16.0592 18.4062 16 18.5963 16H19.9185C20.1086 16 20.2556 16.0592 20.3593 16.1775C20.4802 16.2789 20.5407 16.4225 20.5407 16.6085V26.9521C20.5407 28.6085 20.9383 29.8338 21.7333 30.6282C22.5284 31.4225 23.6173 31.8197 25 31.8197C26.3654 31.8197 27.4457 31.4225 28.2407 30.6282C29.0531 29.8338 29.4593 28.6085 29.4593 26.9521V16.6085C29.4593 16.4225 29.5111 16.2789 29.6148 16.1775C29.7358 16.0592 29.8827 16 30.0556 16H31.4037C31.5765 16 31.7148 16.0592 31.8185 16.1775C31.9395 16.2789 32 16.4225 32 16.6085V26.9014C32 28.5408 31.7148 29.8845 31.1444 30.9324C30.5914 31.9634 29.7963 32.7324 28.7593 33.2394C27.7222 33.7465 26.4691 34 25 34Z" fill="white"/>
<path d="M40 40L10 40" stroke="white" stroke-width="2.5" stroke-linecap="round"/>
</svg>
