<svg width="50" height="50" viewBox="0 0 50 50" fill="none" xmlns="http://www.w3.org/2000/svg">
<path d="M16.7067 22.3975C16.6457 22.3975 16.5939 22.3765 16.5512 22.3345C16.5086 22.2924 16.4872 22.2413 16.4872 22.1813V16.3154C16.4872 16.2493 16.5086 16.1952 16.5512 16.1532C16.5939 16.1111 16.6457 16.0901 16.7067 16.0901H17.4107C17.4961 16.0901 17.557 16.1111 17.5936 16.1532C17.6363 16.1892 17.6637 16.2163 17.6759 16.2343L20.3093 20.271V16.3154C20.3093 16.2493 20.3276 16.1952 20.3642 16.1532C20.4068 16.1111 20.4617 16.0901 20.5288 16.0901H21.2968C21.3639 16.0901 21.4187 16.1111 21.4614 16.1532C21.5041 16.1952 21.5254 16.2493 21.5254 16.3154V22.1723C21.5254 22.2383 21.5041 22.2924 21.4614 22.3345C21.4187 22.3765 21.3669 22.3975 21.306 22.3975H20.5928C20.5074 22.3975 20.4465 22.3765 20.4099 22.3345C20.3733 22.2924 20.3459 22.2654 20.3276 22.2534L17.7033 18.3067V22.1813C17.7033 22.2413 17.682 22.2924 17.6393 22.3345C17.5967 22.3765 17.5418 22.3975 17.4747 22.3975H16.7067Z" fill="white"/>
<path d="M25.4118 22.4876C24.8693 22.4876 24.4029 22.4005 24.0128 22.2263C23.6227 22.0461 23.3179 21.7728 23.0984 21.4064C22.879 21.0339 22.7601 20.5714 22.7418 20.0187C22.7357 19.7604 22.7327 19.5051 22.7327 19.2528C22.7327 19.0005 22.7357 18.7422 22.7418 18.4779C22.7601 17.9313 22.882 17.4747 23.1076 17.1083C23.3331 16.7419 23.641 16.4655 24.0311 16.2793C24.4273 16.0931 24.8875 16 25.4118 16C25.936 16 26.3963 16.0931 26.7925 16.2793C27.1887 16.4655 27.4996 16.7419 27.7252 17.1083C27.9507 17.4747 28.0726 17.9313 28.0909 18.4779C28.1031 18.7422 28.1092 19.0005 28.1092 19.2528C28.1092 19.5051 28.1031 19.7604 28.0909 20.0187C28.0726 20.5714 27.9537 21.0339 27.7343 21.4064C27.5148 21.7728 27.207 22.0461 26.8108 22.2263C26.4206 22.4005 25.9543 22.4876 25.4118 22.4876ZM25.4118 21.4514C25.808 21.4514 26.1311 21.3373 26.381 21.109C26.631 20.8747 26.7651 20.4963 26.7833 19.9737C26.7955 19.7094 26.8016 19.4661 26.8016 19.2438C26.8016 19.0155 26.7955 18.7723 26.7833 18.514C26.7712 18.1655 26.7041 17.8832 26.5822 17.667C26.4664 17.4447 26.3079 17.2855 26.1067 17.1894C25.9055 17.0873 25.6739 17.0362 25.4118 17.0362C25.1558 17.0362 24.9272 17.0873 24.726 17.1894C24.5248 17.2855 24.3633 17.4447 24.2414 17.667C24.1256 17.8832 24.0616 18.1655 24.0494 18.514C24.0433 18.7723 24.0402 19.0155 24.0402 19.2438C24.0402 19.4661 24.0433 19.7094 24.0494 19.9737C24.0677 20.4963 24.2018 20.8747 24.4517 21.109C24.7016 21.3373 25.0217 21.4514 25.4118 21.4514Z" fill="white"/>
<path d="M30.8214 22.3975C30.7604 22.3975 30.7086 22.3765 30.6659 22.3345C30.6233 22.2924 30.6019 22.2413 30.6019 22.1813V17.1984H28.9103C28.8494 17.1984 28.7976 17.1774 28.7549 17.1353C28.7122 17.0933 28.6909 17.0422 28.6909 16.9822V16.3154C28.6909 16.2493 28.7122 16.1952 28.7549 16.1532C28.7976 16.1111 28.8494 16.0901 28.9103 16.0901H33.5736C33.6407 16.0901 33.6956 16.1111 33.7382 16.1532C33.7809 16.1952 33.8022 16.2493 33.8022 16.3154V16.9822C33.8022 17.0422 33.7809 17.0933 33.7382 17.1353C33.6956 17.1774 33.6407 17.1984 33.5736 17.1984H31.8912V22.1813C31.8912 22.2413 31.8699 22.2924 31.8272 22.3345C31.7845 22.3765 31.7297 22.3975 31.6626 22.3975H30.8214Z" fill="white"/>
<path d="M10.2194 32.9099C10.1585 32.9099 10.1067 32.8889 10.064 32.8468C10.0213 32.8048 10 32.7537 10 32.6936V26.8277C10 26.7617 10.0213 26.7076 10.064 26.6655C10.1067 26.6235 10.1585 26.6025 10.2194 26.6025H14.1878C14.2549 26.6025 14.3097 26.6235 14.3524 26.6655C14.3951 26.7076 14.4164 26.7617 14.4164 26.8277V27.4585C14.4164 27.5246 14.3951 27.5786 14.3524 27.6207C14.3097 27.6567 14.2549 27.6747 14.1878 27.6747H11.2527V29.3867H14.005C14.072 29.3867 14.1269 29.4078 14.1695 29.4498C14.2122 29.4919 14.2335 29.5459 14.2335 29.612V30.2428C14.2335 30.3028 14.2122 30.3539 14.1695 30.3959C14.1269 30.438 14.072 30.459 14.005 30.459H11.2527V32.6936C11.2527 32.7537 11.2314 32.8048 11.1887 32.8468C11.146 32.8889 11.0912 32.9099 11.0241 32.9099H10.2194Z" fill="white"/>
<path d="M17.9066 33C17.3641 33 16.8978 32.9129 16.5076 32.7387C16.1175 32.5585 15.8127 32.2852 15.5932 31.9187C15.3738 31.5463 15.2549 31.0837 15.2366 30.5311C15.2305 30.2728 15.2275 30.0175 15.2275 29.7652C15.2275 29.5129 15.2305 29.2546 15.2366 28.9903C15.2549 28.4436 15.3768 27.9871 15.6024 27.6207C15.8279 27.2542 16.1358 26.9779 16.5259 26.7917C16.9221 26.6055 17.3824 26.5124 17.9066 26.5124C18.4309 26.5124 18.8911 26.6055 19.2873 26.7917C19.6835 26.9779 19.9944 27.2542 20.22 27.6207C20.4455 27.9871 20.5674 28.4436 20.5857 28.9903C20.5979 29.2546 20.604 29.5129 20.604 29.7652C20.604 30.0175 20.5979 30.2728 20.5857 30.5311C20.5674 31.0837 20.4486 31.5463 20.2291 31.9187C20.0097 32.2852 19.7018 32.5585 19.3056 32.7387C18.9155 32.9129 18.4491 33 17.9066 33ZM17.9066 31.9638C18.3028 31.9638 18.6259 31.8496 18.8758 31.6214C19.1258 31.3871 19.2599 31.0087 19.2782 30.486C19.2904 30.2217 19.2965 29.9784 19.2965 29.7562C19.2965 29.5279 19.2904 29.2846 19.2782 29.0263C19.266 28.6779 19.1989 28.3956 19.077 28.1793C18.9612 27.9571 18.8027 27.7979 18.6015 27.7018C18.4004 27.5996 18.1687 27.5486 17.9066 27.5486C17.6506 27.5486 17.422 27.5996 17.2208 27.7018C17.0197 27.7979 16.8581 27.9571 16.7362 28.1793C16.6204 28.3956 16.5564 28.6779 16.5442 29.0263C16.5381 29.2846 16.5351 29.5279 16.5351 29.7562C16.5351 29.9784 16.5381 30.2217 16.5442 30.486C16.5625 31.0087 16.6966 31.3871 16.9465 31.6214C17.1964 31.8496 17.5165 31.9638 17.9066 31.9638Z" fill="white"/>
<path d="M24.3558 33C23.8255 33 23.3652 32.9129 22.9751 32.7387C22.585 32.5585 22.2832 32.2852 22.0699 31.9187C21.8565 31.5463 21.7498 31.0717 21.7498 30.4951V26.8277C21.7498 26.7617 21.7712 26.7076 21.8138 26.6655C21.8565 26.6235 21.9083 26.6025 21.9693 26.6025H22.8014C22.8684 26.6025 22.9202 26.6235 22.9568 26.6655C22.9995 26.7076 23.0208 26.7617 23.0208 26.8277V30.4951C23.0208 30.9876 23.1397 31.3541 23.3774 31.5943C23.6152 31.8286 23.9413 31.9458 24.3558 31.9458C24.7703 31.9458 25.0934 31.8286 25.325 31.5943C25.5628 31.3541 25.6816 30.9876 25.6816 30.4951V26.8277C25.6816 26.7617 25.703 26.7076 25.7456 26.6655C25.7883 26.6235 25.8432 26.6025 25.9102 26.6025H26.7332C26.8002 26.6025 26.852 26.6235 26.8886 26.6655C26.9313 26.7076 26.9526 26.7617 26.9526 26.8277V30.4951C26.9526 31.0717 26.8459 31.5463 26.6326 31.9187C26.4253 32.2852 26.1266 32.5585 25.7365 32.7387C25.3525 32.9129 24.8922 33 24.3558 33Z" fill="white"/>
<path d="M28.5426 32.9099C28.4817 32.9099 28.4298 32.8889 28.3872 32.8468C28.3445 32.8048 28.3232 32.7537 28.3232 32.6936V26.8277C28.3232 26.7617 28.3445 26.7076 28.3872 26.6655C28.4298 26.6235 28.4817 26.6025 28.5426 26.6025H29.2467C29.332 26.6025 29.393 26.6235 29.4296 26.6655C29.4722 26.7016 29.4997 26.7286 29.5119 26.7466L32.1453 30.7834V26.8277C32.1453 26.7617 32.1635 26.7076 32.2001 26.6655C32.2428 26.6235 32.2976 26.6025 32.3647 26.6025H33.1328C33.1998 26.6025 33.2547 26.6235 33.2974 26.6655C33.34 26.7076 33.3614 26.7617 33.3614 26.8277V32.6846C33.3614 32.7507 33.34 32.8048 33.2974 32.8468C33.2547 32.8889 33.2029 32.9099 33.1419 32.9099H32.4287C32.3434 32.9099 32.2824 32.8889 32.2458 32.8468C32.2093 32.8048 32.1818 32.7777 32.1635 32.7657L29.5393 28.8191V32.6936C29.5393 32.7537 29.518 32.8048 29.4753 32.8468C29.4326 32.8889 29.3777 32.9099 29.3107 32.9099H28.5426Z" fill="white"/>
<path d="M35.0075 32.9099C34.9466 32.9099 34.8948 32.8889 34.8521 32.8468C34.8094 32.8048 34.7881 32.7537 34.7881 32.6936V26.8277C34.7881 26.7617 34.8094 26.7076 34.8521 26.6655C34.8948 26.6235 34.9466 26.6025 35.0075 26.6025H37.2386C37.8543 26.6025 38.3602 26.6956 38.7565 26.8818C39.1588 27.068 39.4605 27.3443 39.6617 27.7108C39.8689 28.0772 39.9756 28.5247 39.9817 29.0534C39.9939 29.3177 40 29.5519 40 29.7562C40 29.9604 39.9939 30.1917 39.9817 30.45C39.9695 31.0087 39.8659 31.4712 39.6708 31.8376C39.4758 32.1981 39.1801 32.4684 38.7839 32.6486C38.3938 32.8228 37.8939 32.9099 37.2843 32.9099H35.0075ZM36.0591 31.8737H37.2386C37.58 31.8737 37.8573 31.8256 38.0707 31.7295C38.284 31.6334 38.4395 31.4802 38.537 31.27C38.6406 31.0537 38.6955 30.7714 38.7016 30.423C38.7077 30.2428 38.7107 30.0866 38.7107 29.9544C38.7168 29.8163 38.7168 29.6811 38.7107 29.5489C38.7107 29.4108 38.7077 29.2546 38.7016 29.0804C38.6894 28.5878 38.5644 28.2244 38.3267 27.9901C38.089 27.7558 37.711 27.6387 37.1929 27.6387H36.0591V31.8737Z" fill="white"/>
</svg>
