<svg width="50" height="50" viewBox="0 0 50 50" fill="none" xmlns="http://www.w3.org/2000/svg">
<path d="M13.0806 36.5909L35.6715 14M25 16.0537C18.9499 16.0537 13.6055 19.0752 10.3935 23.6916C9.86883 24.4457 9.86882 25.4435 10.3935 26.1977C13.6055 30.814 18.9499 33.8355 25 33.8355C31.0501 33.8355 36.3945 30.814 39.6065 26.1977C40.1312 25.4435 40.1312 24.4457 39.6065 23.6916C36.3945 19.0752 31.0501 16.0537 25 16.0537ZM29.5104 24.782C29.5104 27.3341 27.4415 29.4029 24.8895 29.4029C22.3374 29.4029 20.2686 27.3341 20.2686 24.782C20.2686 22.23 22.3374 20.1612 24.8895 20.1612C27.4415 20.1612 29.5104 22.23 29.5104 24.782Z" stroke="white" stroke-width="2.5" stroke-linecap="round"/>
</svg>
