<svg width="50" height="50" viewBox="0 0 50 50" fill="none" xmlns="http://www.w3.org/2000/svg">
<rect x="10" y="17" width="30" height="16" rx="2.5" stroke="white" stroke-width="2.5"/>
<path d="M31 28H35M15.8871 25.3387L15.5 26.5L16.5 25.78M15.8871 25.3387L16.1 24.7M15.8871 25.3387L16.5 25.78M15.8871 25.3387L15 24.7H16.1M16.1 24.7L16.5 23.5L16.9 24.7M16.1 24.7H16.9M16.9 24.7L17.1129 25.3387M16.9 24.7H18L17.1129 25.3387M17.1129 25.3387L17.5 26.5L16.5 25.78M17.1129 25.3387L16.5 25.78M23.8871 25.3387L23.5 26.5L24.5 25.78M23.8871 25.3387L24.1 24.7M23.8871 25.3387L24.5 25.78M23.8871 25.3387L23 24.7H24.1M24.1 24.7L24.5 23.5L24.9 24.7M24.1 24.7H24.9M24.9 24.7L25.1129 25.3387M24.9 24.7H26L25.1129 25.3387M25.1129 25.3387L25.5 26.5L24.5 25.78M25.1129 25.3387L24.5 25.78" stroke="white" stroke-width="2.5" stroke-linecap="round" stroke-linejoin="round"/>
</svg>
