<svg width="50" height="50" viewBox="0 0 50 50" fill="none" xmlns="http://www.w3.org/2000/svg">
<path d="M10.3935 26.1439C9.86882 25.3898 9.86883 24.392 10.3935 23.6379C13.6055 19.0215 18.9499 16 25 16C31.0501 16 36.3945 19.0215 39.6065 23.6379C40.1312 24.392 40.1312 25.3898 39.6065 26.1439C36.3945 30.7603 31.0501 33.7818 25 33.7818C18.9499 33.7818 13.6055 30.7603 10.3935 26.1439Z" stroke="white" stroke-width="2.5"/>
<path d="M29.5104 24.7283C29.5104 27.2804 27.4415 29.3492 24.8895 29.3492C22.3374 29.3492 20.2686 27.2804 20.2686 24.7283C20.2686 22.1763 22.3374 20.1074 24.8895 20.1074C27.4415 20.1074 29.5104 22.1763 29.5104 24.7283Z" stroke="white" stroke-width="2.5"/>
</svg>
