<svg width="50" height="50" viewBox="0 0 50 50" fill="none" xmlns="http://www.w3.org/2000/svg">
<path d="M35.88 16.6224C37.9778 19.2774 39.0825 22.6124 38.9952 26.0275C38.9079 29.4426 37.6345 32.7138 35.404 35.2526C33.1735 37.7915 30.1323 39.4313 26.8274 39.8772C23.5224 40.3231 20.1707 39.5459 17.3751 37.6852C14.5794 35.8245 12.5233 33.0026 11.5765 29.727C10.6298 26.4513 10.8545 22.937 12.2104 19.816C13.5662 16.695 15.9641 14.1723 18.9729 12.7015C21.9816 11.2308 25.4036 10.9085 28.6235 11.7927M16.9736 22.7543C17.4331 21.4174 18.2036 20.2155 19.2184 19.2525C20.2331 18.2895 21.4616 17.5945 22.7975 17.2277M34.0588 12.2507L36.2549 10" stroke="white" stroke-width="2.5" stroke-linecap="round" stroke-linejoin="round"/>
</svg>
