<svg width="50" height="50" viewBox="0 0 50 50" fill="none" xmlns="http://www.w3.org/2000/svg">
<path d="M21.5311 25.9577C20.7235 25.5929 19.8129 25.3555 18.8157 25.2858C14.9861 25.5565 13.7662 26.8305 13.0323 30.8485C12.2099 34.0443 11.4779 34.8037 10 35.501C15.9736 41.4467 22.1521 38.8135 24.6669 34.9863C25.7708 33.3063 25.838 31.3059 25.1007 29.5578M21.5311 25.9577L21.8381 25.5474L32.8892 12.119C34.0426 10.7175 36.1462 10.6176 37.4261 11.9036L39.1007 13.5863C40.3806 14.8723 40.2812 16.9861 38.8863 18.1451L25.5223 29.2493L25.1007 29.5578M21.5311 25.9577C23.2229 26.722 24.4628 28.0456 25.1007 29.5578" stroke="white" stroke-width="2.5" stroke-linecap="round" stroke-linejoin="round"/>
</svg>
