<svg width="50" height="50" viewBox="0 0 50 50" fill="none" xmlns="http://www.w3.org/2000/svg">
<path d="M11.1111 33.5299H14.4444M14.4444 33.5299H35.5556M14.4444 33.5299C15.1689 32.414 15.5556 31.1028 15.5556 29.7617V19.8388C15.5556 14.4828 19.784 10.1409 25 10.1409C30.216 10.1409 34.4444 14.4828 34.4444 19.8388V29.7617C34.4444 31.1028 34.8311 32.414 35.5556 33.5299M35.5556 33.5299H38.8889M22.2222 38.664C23.6678 40.4453 26.3322 40.4453 27.7778 38.664M14.5022 9C11.7239 11.8991 10 15.9398 10 20.4092M35.4978 9C38.2761 11.8991 40 15.9398 40 20.4092" stroke="white" stroke-width="2.5" stroke-linecap="round" stroke-linejoin="round"/>
</svg>
