<svg width="50" height="50" viewBox="0 0 50 50" fill="none" xmlns="http://www.w3.org/2000/svg">
<path d="M17.3223 11.4645C18.26 10.5268 19.5318 10 20.8579 10L29.1421 10C30.4682 10 31.74 10.5268 32.6777 11.4645L38.5355 17.3223C39.4732 18.26 40 19.5318 40 20.8579V29.1421C40 30.4682 39.4732 31.74 38.5355 32.6777L32.6777 38.5355C31.74 39.4732 30.4682 40 29.1421 40H20.8579C19.5318 40 18.26 39.4732 17.3223 38.5355L11.4645 32.6777C10.5268 31.74 10 30.4682 10 29.1421L10 20.8579C10 19.5318 10.5268 18.26 11.4645 17.3223L17.3223 11.4645Z" stroke="white" stroke-width="2.5"/>
<path d="M19.2264 19L25.1132 24.8868M25.1132 24.8868L31 30.7736M25.1132 24.8868L19 31M25.1132 24.8868L30.7736 19.2264" stroke="white" stroke-width="2.5" stroke-linecap="round" stroke-linejoin="round"/>
</svg>
