<svg width="50" height="50" viewBox="0 0 50 50" fill="none" xmlns="http://www.w3.org/2000/svg">
<path d="M23.2322 11.7678C24.2085 10.7915 25.7915 10.7915 26.7678 11.7678L38.2322 23.2322C39.2085 24.2085 39.2085 25.7915 38.2322 26.7678L26.7678 38.2322C25.7915 39.2085 24.2085 39.2085 23.2322 38.2322L11.7678 26.7678C10.7915 25.7915 10.7915 24.2085 11.7678 23.2322L23.2322 11.7678Z" stroke="white" stroke-width="2.5" stroke-linejoin="round"/>
<path d="M23.75 17.75C23.75 17.0596 24.3096 16.5 25 16.5C25.6904 16.5 26.25 17.0596 26.25 17.75V27.75C26.25 28.4404 25.6904 29 25 29C24.3096 29 23.75 28.4404 23.75 27.75L23.75 17.75Z" fill="white"/>
<path d="M23.75 32.25C23.75 31.5596 24.3096 31 25 31C25.6904 31 26.25 31.5596 26.25 32.25C26.25 32.9404 25.6904 33.5 25 33.5C24.3096 33.5 23.75 32.9404 23.75 32.25Z" fill="white"/>
</svg>
