<svg width="50" height="50" viewBox="0 0 50 50" fill="none" xmlns="http://www.w3.org/2000/svg">
<path d="M30.823 30.4037V36.2997C30.823 38.6331 28.0353 39.8345 26.2941 38.3416C26.1924 38.2544 26.106 38.151 26.0267 38.0431L19.1411 28.6602C19.0619 28.5523 18.9757 28.449 18.8736 28.3624C18.378 27.9421 17.7436 27.7087 17.0847 27.7087H14.3838H10L10 11L14.3838 11L34.6605 11C35.9412 11 37.051 11.8726 37.3331 13.1014L39.376 22L39.9316 24.4202C40.3185 26.1056 39.0157 27.7087 37.259 27.7087H33.5629C32.0497 27.7087 30.823 28.9153 30.823 30.4037ZM30.823 30.4037L30.823 25" stroke="white" stroke-width="2.5" stroke-linecap="round" stroke-linejoin="round"/>
</svg>
