<svg width="50" height="50" viewBox="0 0 50 50" fill="none" xmlns="http://www.w3.org/2000/svg">
<path d="M30.823 19.5963L30.823 13.7003C30.823 11.3669 28.0353 10.1655 26.2941 11.6584C26.1924 11.7456 26.1059 11.849 26.0267 11.9569L19.1411 21.3398C19.0619 21.4477 18.9757 21.551 18.8736 21.6376C18.378 22.0579 17.7436 22.2913 17.0847 22.2913L14.3838 22.2913L10 22.2913L10 39L14.3838 39L34.6605 39C35.9412 39 37.051 38.1274 37.3331 36.8986L39.376 28L39.9316 25.5798C40.3185 23.8944 39.0157 22.2913 37.259 22.2913L33.5629 22.2913C32.0497 22.2913 30.823 21.0847 30.823 19.5963ZM30.823 19.5963L30.823 25" stroke="white" stroke-width="2.5" stroke-linecap="round" stroke-linejoin="round"/>
</svg>
