<svg width="50" height="50" viewBox="0 0 50 50" fill="none" xmlns="http://www.w3.org/2000/svg">
<path d="M15.6204 10.5986C15.9352 9.80046 17.0648 9.80046 17.3796 10.5986L18.6493 13.818C18.7454 14.0617 18.9383 14.2546 19.182 14.3507L22.4014 15.6204C23.1995 15.9352 23.1995 17.0648 22.4014 17.3796L19.182 18.6493C18.9383 18.7454 18.7454 18.9383 18.6493 19.182L17.3796 22.4014C17.0648 23.1995 15.9352 23.1995 15.6204 22.4014L14.3507 19.182C14.2546 18.9383 14.0617 18.7454 13.818 18.6493L10.5986 17.3796C9.80046 17.0648 9.80046 15.9352 10.5986 15.6204L13.818 14.3507C14.0617 14.2546 14.2546 14.0617 14.3507 13.818L15.6204 10.5986Z" stroke="white" stroke-width="2.5"/>
<path d="M27.5114 19.0131C28.0442 17.6623 29.9558 17.6623 30.4886 19.0131L32.6373 24.4612C32.7999 24.8736 33.1264 25.2001 33.5388 25.3627L38.9869 27.5114C40.3377 28.0442 40.3377 29.9558 38.9869 30.4886L33.5388 32.6373C33.1264 32.7999 32.7999 33.1264 32.6373 33.5388L30.4886 38.9869C29.9558 40.3377 28.0442 40.3377 27.5114 38.9869L25.3627 33.5388C25.2001 33.1264 24.8736 32.7999 24.4612 32.6373L19.0131 30.4886C17.6623 29.9558 17.6623 28.0442 19.0131 27.5114L24.4612 25.3627C24.8736 25.2001 25.2001 24.8736 25.3627 24.4612L27.5114 19.0131Z" stroke="white" stroke-width="2.5"/>
</svg>
