<svg width="50" height="50" viewBox="0 0 50 50" fill="none" xmlns="http://www.w3.org/2000/svg">
<path d="M23.3497 11.8697C24.1444 10.7101 25.8556 10.7101 26.6503 11.8697L30.6659 17.7289C30.9261 18.1085 31.3091 18.3868 31.7505 18.5169L38.5638 20.5253C39.9122 20.9228 40.441 22.5503 39.5838 23.6644L35.2522 29.2941C34.9716 29.6588 34.8253 30.1091 34.838 30.5691L35.0332 37.6696C35.0719 39.0748 33.6874 40.0807 32.363 39.6097L25.6703 37.2298C25.2367 37.0756 24.7633 37.0756 24.3297 37.2298L17.637 39.6097C16.3126 40.0807 14.9281 39.0748 14.9668 37.6696L15.162 30.5691C15.1747 30.1091 15.0284 29.6588 14.7478 29.2941L10.4162 23.6644C9.55898 22.5503 10.0878 20.9228 11.4362 20.5253L18.2495 18.5169C18.6909 18.3868 19.0739 18.1085 19.3341 17.7289L23.3497 11.8697Z" stroke="white" stroke-width="2.5"/>
</svg>
