<svg width="50" height="50" viewBox="0 0 50 50" fill="none" xmlns="http://www.w3.org/2000/svg">
<path d="M22.9702 11.3815C23.6966 9.53952 26.3034 9.53952 27.0298 11.3815L29.9599 18.8108C30.1817 19.3731 30.6269 19.8183 31.1892 20.0401L38.6185 22.9702C40.4605 23.6966 40.4605 26.3034 38.6185 27.0298L31.1892 29.9599C30.6269 30.1817 30.1817 30.6269 29.9599 31.1892L27.0298 38.6185C26.3034 40.4605 23.6966 40.4605 22.9702 38.6185L20.0401 31.1892C19.8183 30.6269 19.3731 30.1817 18.8108 29.9599L11.3815 27.0298C9.53952 26.3034 9.53952 23.6966 11.3815 22.9702L18.8108 20.0401C19.3731 19.8183 19.8183 19.3731 20.0401 18.8108L22.9702 11.3815Z" stroke="white" stroke-width="2.5"/>
</svg>
