<svg width="50" height="50" viewBox="0 0 50 50" fill="none" xmlns="http://www.w3.org/2000/svg">
<path d="M34.3796 10.5986C34.0648 9.80046 32.9352 9.80046 32.6204 10.5986L31.3507 13.818C31.2546 14.0617 31.0617 14.2546 30.818 14.3507L27.5986 15.6204C26.8005 15.9352 26.8005 17.0648 27.5986 17.3796L30.818 18.6493C31.0617 18.7454 31.2546 18.9383 31.3507 19.182L32.6204 22.4014C32.9352 23.1995 34.0648 23.1995 34.3796 22.4014L35.6493 19.182C35.7454 18.9383 35.9383 18.7454 36.182 18.6493L39.4014 17.3796C40.1995 17.0648 40.1995 15.9352 39.4014 15.6204L36.182 14.3507C35.9383 14.2546 35.7454 14.0617 35.6493 13.818L34.3796 10.5986Z" stroke="white" stroke-width="2.5"/>
<path d="M22.4886 19.0131C21.9558 17.6623 20.0442 17.6623 19.5114 19.0131L17.3627 24.4612C17.2001 24.8736 16.8736 25.2001 16.4612 25.3627L11.0131 27.5114C9.66231 28.0442 9.66231 29.9558 11.0131 30.4886L16.4612 32.6373C16.8736 32.7999 17.2001 33.1264 17.3627 33.5388L19.5114 38.9869C20.0442 40.3377 21.9558 40.3377 22.4886 38.9869L24.6373 33.5388C24.7999 33.1264 25.1264 32.7999 25.5388 32.6373L30.9869 30.4886C32.3377 29.9558 32.3377 28.0442 30.9869 27.5114L25.5388 25.3627C25.1264 25.2001 24.7999 24.8736 24.6373 24.4612L22.4886 19.0131Z" stroke="white" stroke-width="2.5"/>
</svg>
