<svg width="128" height="96" viewBox="0 0 128 96" fill="none" xmlns="http://www.w3.org/2000/svg">
<path d="M77.5425 59.251L21.7262 3.36448C19.5178 1.476 17.0631 0.477955 14.633 0.433955C12.1462 0.388927 9.68504 1.34304 7.53979 3.36448L3.7845 7.12452C-2.39517 13.1163 -0.0951918 15.8987 4.2018 20.0754L29.1417 45.0467C30.7712 46.6782 30.7712 49.3234 29.1417 50.9549L4.55367 75.5738L4.55202 75.5755C2.57261 77.5812 1.45381 80.2941 1.45381 83.1367C1.45381 85.965 2.57261 88.6922 4.55202 90.698L6.56012 92.7326C8.53953 94.7383 11.2361 95.5676 14.0474 95.5676C16.8588 95.5676 19.4404 94.9353 21.4342 92.9295L45.8317 68.5014C47.4611 66.8699 50.103 66.8699 51.7324 68.5014L77.5426 94.3439C78.3573 95.1597 79.4251 95.5676 80.493 95.5676C81.5608 95.5676 82.6286 95.1597 83.4433 94.3439L126.778 50.9549C128.407 49.3234 128.407 46.6782 126.778 45.0467L83.4433 1.65759C82.6286 0.84185 81.5608 0.433973 80.493 0.433959C79.4251 0.433945 78.3573 0.841822 77.5426 1.65759L59.2429 19.9803C57.6135 21.6118 57.6135 24.257 59.2429 25.8885L70.8666 37.5267C72.496 39.1582 75.1379 39.1582 76.7674 37.5267L77.5425 36.7506C79.172 35.1191 81.8139 35.1191 83.4433 36.7506L91.729 45.0467C93.3585 46.6782 93.3585 49.3234 91.729 50.9549L83.4433 59.251C81.8139 60.8825 79.172 60.8825 77.5425 59.251Z" fill="white"/>
</svg>
