<svg width="474" height="110" viewBox="0 0 474 110" fill="none" xmlns="http://www.w3.org/2000/svg">
<path d="M89.6586 68.0089L25.121 3.39017C22.5674 1.20662 19.7292 0.0526333 16.9194 0.00175883C14.044 -0.0503046 11.1983 1.05289 8.71788 3.39017L4.37583 7.73773C-2.76941 14.6657 -0.110065 17.8829 4.85834 22.7122L33.6951 51.5852C35.5792 53.4716 35.5792 56.5301 33.6951 58.4166L5.26519 86.8822L5.26327 86.8842C2.97458 89.2033 1.68097 92.34 1.68097 95.6268C1.68097 98.897 2.97458 102.05 5.26327 104.37L7.58513 106.722C9.87383 109.041 12.9918 110 16.2424 110C19.493 110 22.478 109.269 24.7833 106.95L52.9929 78.7047C54.8769 76.8183 57.9316 76.8183 59.8156 78.7047L89.6586 108.585C90.6006 109.528 91.8353 110 93.07 110C94.3047 110 95.5393 109.528 96.4814 108.585L146.587 58.4166C148.471 56.5301 148.471 53.4716 146.587 51.5852L96.4814 1.41659C95.5393 0.473387 94.3047 0.00177941 93.07 0.00176348C91.8353 0.00174755 90.6006 0.473355 89.6586 1.41659L68.4997 22.6022C66.6156 24.4886 66.6156 27.5471 68.4997 29.4335L81.9395 42.8903C83.8235 44.7767 86.8782 44.7767 88.7623 42.8903L89.6586 41.9928C91.5426 40.1064 94.5973 40.1064 96.4814 41.9928L106.062 51.5852C107.946 53.4716 107.946 56.5301 106.062 58.4166L96.4814 68.0089C94.5973 69.8953 91.5426 69.8953 89.6586 68.0089Z" fill="white"/>
<path d="M181.584 71.5C181.296 71.5 181.04 71.404 180.816 71.212C180.624 70.988 180.528 70.748 180.528 70.492C180.528 70.396 180.544 70.3 180.576 70.204C180.608 70.108 180.656 70.012 180.72 69.916L191.184 54.364L181.488 39.484C181.392 39.292 181.344 39.1 181.344 38.908C181.344 38.652 181.44 38.428 181.632 38.236C181.824 38.012 182.064 37.9 182.352 37.9H189.312C189.792 37.9 190.16 38.028 190.416 38.284C190.672 38.508 190.848 38.716 190.944 38.908L196.704 47.644L202.512 38.908C202.64 38.716 202.832 38.508 203.088 38.284C203.344 38.028 203.712 37.9 204.192 37.9H210.768C211.056 37.9 211.296 38.012 211.488 38.236C211.712 38.428 211.824 38.652 211.824 38.908C211.824 39.132 211.76 39.324 211.632 39.484L201.888 54.316L212.448 69.916C212.512 70.012 212.544 70.108 212.544 70.204C212.576 70.3 212.592 70.396 212.592 70.492C212.592 70.748 212.496 70.988 212.304 71.212C212.112 71.404 211.872 71.5 211.584 71.5H204.432C203.952 71.5 203.568 71.388 203.28 71.164C203.024 70.908 202.848 70.7 202.752 70.54L196.368 61.324L190.128 70.54C190.032 70.7 189.856 70.908 189.6 71.164C189.344 71.388 188.976 71.5 188.496 71.5H181.584ZM217.701 71.5C217.349 71.5 217.061 71.388 216.837 71.164C216.613 70.94 216.501 70.652 216.501 70.3V39.1C216.501 38.748 216.613 38.46 216.837 38.236C217.061 38.012 217.349 37.9 217.701 37.9H224.037C224.357 37.9 224.629 38.012 224.853 38.236C225.109 38.46 225.237 38.748 225.237 39.1V64.252H239.733C240.085 64.252 240.373 64.38 240.597 64.636C240.853 64.86 240.981 65.148 240.981 65.5V70.3C240.981 70.652 240.853 70.94 240.597 71.164C240.373 71.388 240.085 71.5 239.733 71.5H217.701ZM266.763 71.98C263.563 71.98 260.907 71.532 258.795 70.636C256.683 69.708 255.083 68.508 253.995 67.036C252.907 65.564 252.331 63.996 252.267 62.332C252.267 62.076 252.363 61.852 252.555 61.66C252.779 61.436 253.035 61.324 253.323 61.324H259.371C259.819 61.324 260.155 61.404 260.379 61.564C260.635 61.724 260.859 61.932 261.051 62.188C261.307 62.668 261.659 63.132 262.107 63.58C262.587 64.028 263.195 64.396 263.931 64.684C264.699 64.94 265.643 65.068 266.763 65.068C268.619 65.068 270.011 64.78 270.939 64.204C271.899 63.628 272.379 62.844 272.379 61.852C272.379 61.148 272.123 60.572 271.611 60.124C271.099 59.644 270.267 59.228 269.115 58.876C267.995 58.492 266.491 58.108 264.603 57.724C262.171 57.212 260.091 56.556 258.363 55.756C256.667 54.924 255.371 53.852 254.475 52.54C253.579 51.196 253.131 49.532 253.131 47.548C253.131 45.596 253.675 43.852 254.763 42.316C255.883 40.78 257.435 39.58 259.419 38.716C261.403 37.852 263.755 37.42 266.475 37.42C268.683 37.42 270.619 37.708 272.283 38.284C273.979 38.86 275.403 39.628 276.555 40.588C277.707 41.548 278.571 42.572 279.147 43.66C279.755 44.716 280.075 45.756 280.107 46.78C280.107 47.036 280.011 47.276 279.819 47.5C279.627 47.692 279.387 47.788 279.099 47.788H272.763C272.411 47.788 272.107 47.724 271.851 47.596C271.595 47.468 271.371 47.26 271.179 46.972C270.987 46.268 270.475 45.66 269.643 45.148C268.843 44.604 267.787 44.332 266.475 44.332C265.067 44.332 263.963 44.588 263.163 45.1C262.395 45.58 262.011 46.332 262.011 47.356C262.011 47.996 262.219 48.556 262.635 49.036C263.083 49.516 263.803 49.932 264.795 50.284C265.819 50.636 267.211 51.004 268.971 51.388C271.883 51.932 274.235 52.62 276.027 53.452C277.819 54.252 279.131 55.308 279.963 56.62C280.795 57.9 281.211 59.516 281.211 61.468C281.211 63.644 280.587 65.532 279.339 67.132C278.123 68.7 276.427 69.9 274.251 70.732C272.075 71.564 269.579 71.98 266.763 71.98ZM297.296 71.98C294.608 71.98 292.336 71.548 290.48 70.684C288.656 69.82 287.248 68.588 286.256 66.988C285.296 65.356 284.752 63.42 284.624 61.18C284.592 60.54 284.576 59.82 284.576 59.02C284.576 58.188 284.592 57.468 284.624 56.86C284.752 54.588 285.328 52.652 286.352 51.052C287.376 49.452 288.8 48.22 290.624 47.356C292.48 46.492 294.704 46.06 297.296 46.06C299.92 46.06 302.144 46.492 303.968 47.356C305.824 48.22 307.264 49.452 308.288 51.052C309.312 52.652 309.888 54.588 310.016 56.86C310.048 57.468 310.064 58.188 310.064 59.02C310.064 59.82 310.048 60.54 310.016 61.18C309.888 63.42 309.328 65.356 308.336 66.988C307.376 68.588 305.968 69.82 304.112 70.684C302.288 71.548 300.016 71.98 297.296 71.98ZM297.296 66.124C298.736 66.124 299.776 65.692 300.416 64.828C301.088 63.964 301.472 62.668 301.568 60.94C301.6 60.46 301.616 59.82 301.616 59.02C301.616 58.22 301.6 57.58 301.568 57.1C301.472 55.404 301.088 54.124 300.416 53.26C299.776 52.364 298.736 51.916 297.296 51.916C295.888 51.916 294.848 52.364 294.176 53.26C293.504 54.124 293.136 55.404 293.072 57.1C293.04 57.58 293.024 58.22 293.024 59.02C293.024 59.82 293.04 60.46 293.072 60.94C293.136 62.668 293.504 63.964 294.176 64.828C294.848 65.692 295.888 66.124 297.296 66.124ZM318.583 71.5C318.263 71.5 317.975 71.388 317.719 71.164C317.495 70.94 317.383 70.652 317.383 70.3V52.828H313.735C313.383 52.828 313.095 52.716 312.871 52.492C312.647 52.268 312.535 51.98 312.535 51.628V47.74C312.535 47.388 312.647 47.1 312.871 46.876C313.095 46.652 313.383 46.54 313.735 46.54H317.383V45.004C317.383 42.828 317.799 41.084 318.631 39.772C319.495 38.428 320.711 37.468 322.279 36.892C323.847 36.284 325.719 35.98 327.895 35.98H331.639C331.959 35.98 332.231 36.092 332.455 36.316C332.711 36.54 332.839 36.828 332.839 37.18V41.068C332.839 41.42 332.711 41.708 332.455 41.932C332.231 42.156 331.959 42.268 331.639 42.268H328.279C327.191 42.268 326.423 42.524 325.975 43.036C325.559 43.548 325.351 44.284 325.351 45.244V46.54H331.159C331.479 46.54 331.751 46.652 331.975 46.876C332.231 47.1 332.359 47.388 332.359 47.74V51.628C332.359 51.98 332.231 52.268 331.975 52.492C331.751 52.716 331.479 52.828 331.159 52.828H325.351V70.3C325.351 70.652 325.239 70.94 325.015 71.164C324.791 71.388 324.503 71.5 324.151 71.5H318.583ZM348.553 71.5C346.505 71.5 344.729 71.18 343.225 70.54C341.753 69.868 340.617 68.844 339.817 67.468C339.017 66.06 338.617 64.252 338.617 62.044V52.828H334.873C334.521 52.828 334.217 52.716 333.961 52.492C333.737 52.268 333.625 51.98 333.625 51.628V47.74C333.625 47.388 333.737 47.1 333.961 46.876C334.217 46.652 334.521 46.54 334.873 46.54H338.617V38.62C338.617 38.268 338.729 37.98 338.953 37.756C339.209 37.532 339.497 37.42 339.817 37.42H345.385C345.737 37.42 346.025 37.532 346.249 37.756C346.473 37.98 346.585 38.268 346.585 38.62V46.54H352.585C352.937 46.54 353.225 46.652 353.449 46.876C353.673 47.1 353.785 47.388 353.785 47.74V51.628C353.785 51.98 353.673 52.268 353.449 52.492C353.225 52.716 352.937 52.828 352.585 52.828H346.585V61.372C346.585 62.46 346.793 63.324 347.209 63.964C347.625 64.604 348.329 64.924 349.321 64.924H353.017C353.369 64.924 353.657 65.036 353.881 65.26C354.105 65.484 354.217 65.772 354.217 66.124V70.3C354.217 70.652 354.105 70.94 353.881 71.164C353.657 71.388 353.369 71.5 353.017 71.5H348.553ZM365.151 71.5C364.671 71.5 364.319 71.388 364.095 71.164C363.871 70.94 363.695 70.652 363.567 70.3L356.655 48.076C356.591 47.916 356.559 47.756 356.559 47.596C356.559 47.308 356.671 47.068 356.895 46.876C357.119 46.652 357.375 46.54 357.663 46.54H362.607C363.023 46.54 363.343 46.652 363.567 46.876C363.823 47.1 363.983 47.324 364.047 47.548L368.079 61.276L372.399 47.596C372.463 47.372 372.607 47.148 372.831 46.924C373.087 46.668 373.439 46.54 373.887 46.54H377.055C377.503 46.54 377.839 46.668 378.063 46.924C378.319 47.148 378.479 47.372 378.543 47.596L382.863 61.276L386.895 47.548C386.959 47.324 387.103 47.1 387.327 46.876C387.583 46.652 387.919 46.54 388.335 46.54H393.279C393.567 46.54 393.807 46.652 393.999 46.876C394.223 47.068 394.335 47.308 394.335 47.596C394.335 47.756 394.319 47.916 394.287 48.076L387.375 70.3C387.279 70.652 387.103 70.94 386.847 71.164C386.623 71.388 386.271 71.5 385.791 71.5H381.471C381.023 71.5 380.671 71.388 380.415 71.164C380.159 70.94 379.983 70.652 379.887 70.3L375.471 57.148L371.055 70.3C370.959 70.652 370.783 70.94 370.527 71.164C370.271 71.388 369.919 71.5 369.471 71.5H365.151ZM405.054 71.98C403.326 71.98 401.774 71.66 400.398 71.02C399.054 70.348 397.982 69.452 397.182 68.332C396.382 67.212 395.982 65.948 395.982 64.54C395.982 62.268 396.91 60.476 398.766 59.164C400.622 57.82 403.086 56.908 406.158 56.428L412.158 55.516V54.844C412.158 53.692 411.918 52.812 411.438 52.204C410.958 51.596 410.078 51.292 408.798 51.292C407.902 51.292 407.166 51.468 406.59 51.82C406.046 52.172 405.614 52.652 405.294 53.26C405.006 53.676 404.606 53.884 404.094 53.884H398.718C398.366 53.884 398.094 53.788 397.902 53.596C397.71 53.372 397.63 53.116 397.662 52.828C397.662 52.252 397.87 51.596 398.286 50.86C398.734 50.092 399.406 49.34 400.302 48.604C401.198 47.868 402.35 47.26 403.758 46.78C405.166 46.3 406.862 46.06 408.846 46.06C410.926 46.06 412.702 46.3 414.174 46.78C415.646 47.26 416.83 47.932 417.726 48.796C418.654 49.66 419.342 50.684 419.79 51.868C420.238 53.02 420.462 54.3 420.462 55.708V70.3C420.462 70.652 420.334 70.94 420.078 71.164C419.854 71.388 419.582 71.5 419.262 71.5H413.694C413.342 71.5 413.054 71.388 412.83 71.164C412.606 70.94 412.494 70.652 412.494 70.3V68.62C412.078 69.228 411.518 69.788 410.814 70.3C410.11 70.812 409.278 71.212 408.318 71.5C407.39 71.82 406.302 71.98 405.054 71.98ZM407.31 66.508C408.238 66.508 409.07 66.316 409.806 65.932C410.574 65.516 411.166 64.892 411.582 64.06C412.03 63.196 412.254 62.124 412.254 60.844V60.172L408.174 60.892C406.67 61.148 405.566 61.548 404.862 62.092C404.19 62.604 403.854 63.212 403.854 63.916C403.854 64.46 404.014 64.924 404.334 65.308C404.654 65.692 405.07 65.996 405.582 66.22C406.094 66.412 406.67 66.508 407.31 66.508ZM427.079 71.5C426.727 71.5 426.439 71.388 426.215 71.164C425.991 70.94 425.879 70.652 425.879 70.3V47.74C425.879 47.42 425.991 47.148 426.215 46.924C426.439 46.668 426.727 46.54 427.079 46.54H432.599C432.951 46.54 433.239 46.668 433.463 46.924C433.687 47.148 433.799 47.42 433.799 47.74V49.66C434.663 48.668 435.687 47.9 436.871 47.356C438.087 46.812 439.447 46.54 440.951 46.54H443.063C443.383 46.54 443.655 46.652 443.879 46.876C444.135 47.1 444.263 47.388 444.263 47.74V52.684C444.263 53.004 444.135 53.292 443.879 53.548C443.655 53.772 443.383 53.884 443.063 53.884H438.407C437.095 53.884 436.071 54.252 435.335 54.988C434.631 55.692 434.279 56.7 434.279 58.012V70.3C434.279 70.652 434.151 70.94 433.895 71.164C433.671 71.388 433.383 71.5 433.031 71.5H427.079ZM459.008 71.98C455.232 71.98 452.224 70.956 449.984 68.908C447.744 66.86 446.576 63.82 446.48 59.788C446.48 59.564 446.48 59.276 446.48 58.924C446.48 58.572 446.48 58.3 446.48 58.108C446.576 55.58 447.136 53.42 448.16 51.628C449.216 49.804 450.656 48.428 452.48 47.5C454.336 46.54 456.496 46.06 458.96 46.06C461.776 46.06 464.096 46.62 465.92 47.74C467.776 48.86 469.168 50.38 470.096 52.3C471.024 54.22 471.488 56.412 471.488 58.876V60.028C471.488 60.38 471.36 60.668 471.104 60.892C470.88 61.116 470.608 61.228 470.288 61.228H454.928C454.928 61.26 454.928 61.308 454.928 61.372C454.928 61.436 454.928 61.5 454.928 61.564C454.96 62.492 455.12 63.34 455.408 64.108C455.696 64.876 456.144 65.484 456.752 65.932C457.36 66.38 458.096 66.604 458.96 66.604C459.6 66.604 460.128 66.508 460.544 66.316C460.992 66.092 461.36 65.852 461.648 65.596C461.936 65.308 462.16 65.068 462.32 64.876C462.608 64.556 462.832 64.364 462.992 64.3C463.184 64.204 463.472 64.156 463.856 64.156H469.808C470.128 64.156 470.384 64.252 470.576 64.444C470.8 64.604 470.896 64.844 470.864 65.164C470.832 65.708 470.56 66.364 470.048 67.132C469.536 67.9 468.784 68.668 467.792 69.436C466.832 70.172 465.616 70.78 464.144 71.26C462.672 71.74 460.96 71.98 459.008 71.98ZM454.928 56.476H463.04V56.38C463.04 55.356 462.88 54.46 462.56 53.692C462.272 52.924 461.808 52.332 461.168 51.916C460.56 51.5 459.824 51.292 458.96 51.292C458.096 51.292 457.36 51.5 456.752 51.916C456.176 52.332 455.728 52.924 455.408 53.692C455.088 54.46 454.928 55.356 454.928 56.38V56.476Z" fill="white"/>
</svg>
