<svg width="148" height="110" viewBox="0 0 148 110" fill="none" xmlns="http://www.w3.org/2000/svg">
<path d="M89.6586 68.0089L25.121 3.39017C22.5674 1.20662 19.7292 0.0526333 16.9194 0.00175883C14.044 -0.0503046 11.1983 1.05289 8.71788 3.39017L4.37583 7.73773C-2.76941 14.6657 -0.110065 17.8829 4.85834 22.7122L33.6951 51.5852C35.5792 53.4716 35.5792 56.5301 33.6951 58.4166L5.26519 86.8822L5.26327 86.8842C2.97458 89.2033 1.68097 92.34 1.68097 95.6268C1.68097 98.897 2.97458 102.05 5.26327 104.37L7.58513 106.722C9.87383 109.041 12.9918 110 16.2424 110C19.493 110 22.478 109.269 24.7833 106.95L52.9929 78.7047C54.8769 76.8183 57.9316 76.8183 59.8156 78.7047L89.6586 108.585C90.6006 109.528 91.8353 110 93.07 110C94.3047 110 95.5393 109.528 96.4814 108.585L146.587 58.4166C148.471 56.5301 148.471 53.4716 146.587 51.5852L96.4814 1.41659C95.5393 0.473387 94.3047 0.00177941 93.07 0.00176348C91.8353 0.00174755 90.6006 0.473355 89.6586 1.41659L68.4997 22.6022C66.6156 24.4886 66.6156 27.5471 68.4997 29.4335L81.9395 42.8903C83.8235 44.7767 86.8782 44.7767 88.7623 42.8903L89.6586 41.9928C91.5426 40.1064 94.5973 40.1064 96.4814 41.9928L106.062 51.5852C107.946 53.4716 107.946 56.5301 106.062 58.4166L96.4814 68.0089C94.5973 69.8953 91.5426 69.8953 89.6586 68.0089Z" fill="white"/>
</svg>
