<svg width="50" height="50" viewBox="0 0 50 50" fill="none" xmlns="http://www.w3.org/2000/svg">
<path d="M38 27.3755C38 29.8724 37.2375 32.3132 35.8091 34.3893C34.3806 36.4654 32.3503 38.0835 29.9749 39.039C27.5994 39.9945 24.9856 40.2445 22.4638 39.7574C19.9421 39.2703 17.6257 38.0679 15.8076 36.3024C13.9895 34.5368 12.7514 32.2874 12.2498 29.8385C11.7482 27.3895 12.0056 24.8512 12.9896 22.5444C13.9735 20.2376 15.6397 18.2659 17.7776 16.8787C19.9154 15.4915 22.4288 14.7511 25 14.7511L38 14.7511M38 14.7511L33 9.99998M38 14.7511L33 19.5022" stroke="white" stroke-width="2.5" stroke-linecap="round" stroke-linejoin="round"/>
</svg>
