<svg width="50" height="50" viewBox="0 0 50 50" fill="none" xmlns="http://www.w3.org/2000/svg">
<path d="M10 25.3477C10 28.8364 11.2744 32.2107 13.5939 34.8636C15.9134 37.5164 19.1259 39.2738 22.6535 39.8196C26.1811 40.3653 29.7922 39.6637 32.8375 37.8408C35.8827 36.0179 38.1622 33.1935 39.2658 29.8755C40.3695 26.5575 40.225 22.9637 38.8582 19.7405C37.4914 16.5173 34.9921 13.8762 31.8099 12.2924C28.6276 10.7085 24.9712 10.2858 21.4983 11.1002C18.0255 11.9146 14.964 13.9128 12.8647 16.7353M12.8647 16.7353L19.7598 16.5634M12.8647 16.7353L13.0407 10" stroke="white" stroke-width="2.5" stroke-linecap="round" stroke-linejoin="round"/>
</svg>
