<svg width="50" height="50" viewBox="0 0 50 50" fill="none" xmlns="http://www.w3.org/2000/svg">
<path d="M40 25.3477C40 28.8364 38.7256 32.2107 36.4061 34.8636C34.0866 37.5164 30.8741 39.2738 27.3465 39.8196C23.8189 40.3653 20.2078 39.6637 17.1625 37.8408C14.1173 36.0179 11.8378 33.1935 10.7342 29.8755C9.63049 26.5575 9.77504 22.9637 11.1418 19.7405C12.5086 16.5173 15.0079 13.8762 18.1901 12.2924C21.3724 10.7085 25.0288 10.2858 28.5017 11.1002C31.9745 11.9146 35.036 13.9128 37.1353 16.7353M37.1353 16.7353L30.2402 16.5634M37.1353 16.7353L36.9593 10" stroke="white" stroke-width="2.5" stroke-linecap="round" stroke-linejoin="round"/>
</svg>
