<svg width="50" height="50" viewBox="0 0 50 50" fill="none" xmlns="http://www.w3.org/2000/svg">
<path d="M39.2658 29.8755C40.3695 26.5575 40.225 22.9637 38.8582 19.7405C37.4914 16.5173 34.9921 13.8762 31.8099 12.2924C28.6276 10.7085 24.9712 10.2858 21.4983 11.1002C18.0255 11.9146 14.964 13.9128 12.8647 16.7353M12.8647 16.7353L19.7598 16.5634M12.8647 16.7353L13.0407 10" stroke="white" stroke-width="2.5" stroke-linecap="round" stroke-linejoin="round"/>
<path d="M10.7342 21C9.63049 24.318 9.77504 27.9118 11.1418 31.135C12.5086 34.3582 15.0079 36.9992 18.1901 38.5831C21.3724 40.167 25.0288 40.5897 28.5017 39.7753C31.9745 38.9608 35.036 36.9627 37.1353 34.1402M37.1353 34.1402L30.2402 34.3121M37.1353 34.1402L36.9593 40.8755" stroke="white" stroke-width="2.5" stroke-linecap="round" stroke-linejoin="round"/>
</svg>
