<svg width="50" height="50" viewBox="0 0 50 50" fill="none" xmlns="http://www.w3.org/2000/svg">
<path d="M12 27.3755C12 29.8724 12.7625 32.3132 14.1909 34.3893C15.6194 36.4654 17.6497 38.0835 20.0251 39.039C22.4006 39.9945 25.0144 40.2445 27.5362 39.7574C30.0579 39.2703 32.3743 38.0679 34.1924 36.3024C36.0105 34.5368 37.2486 32.2874 37.7502 29.8385C38.2518 27.3895 37.9944 24.8512 37.0104 22.5444C36.0265 20.2376 34.3603 18.2659 32.2224 16.8787C30.0846 15.4915 27.5712 14.7511 25 14.7511L12 14.7511M12 14.7511L17 9.99998M12 14.7511L17 19.5022" stroke="white" stroke-width="2.5" stroke-linecap="round" stroke-linejoin="round"/>
</svg>
