<svg width="163" height="119" viewBox="0 0 163 119" fill="none" xmlns="http://www.w3.org/2000/svg">
<path d="M128.757 93.099L128.994 92.9625C133.798 90.1888 137.567 88.013 140.301 86.1147C140.44 86.0178 140.577 85.9216 140.711 85.8262C144.044 83.4531 145.711 81.5004 145.711 79.3143V69.7831L81.6665 106.895L17.7107 69.7831V79.3143C17.7107 81.5004 19.3772 83.4531 22.7103 85.8261C22.7138 85.8286 22.7172 85.8311 22.7207 85.8335C22.8515 85.9266 22.9849 86.0204 23.1208 86.1148C25.8541 88.013 29.6231 90.1888 34.4277 92.9625L34.6642 93.099L46.0121 99.6502L46.4849 99.9231L57.8328 106.474L58.0692 106.611L58.0692 106.611C58.1286 106.645 58.1878 106.679 58.2468 106.713C62.9669 109.438 66.6835 111.58 69.931 113.138C70.0989 113.219 70.2655 113.298 70.4309 113.375C74.5415 115.299 77.9239 116.262 81.7107 116.262C85.4975 116.262 88.8799 115.299 92.9905 113.375C93.1559 113.298 93.3225 113.219 93.4904 113.138C96.7785 111.56 100.548 109.384 105.352 106.611L105.589 106.474L116.936 99.9231L117.409 99.6502L128.757 93.099Z" fill="#121721"/>
<path d="M58.0692 42.6417C69.2139 36.2078 74.7863 32.9909 81.7107 32.9909C88.6351 32.9909 94.2075 36.2078 105.352 42.6417L128.994 56.2899C140.138 62.7237 145.711 65.9406 145.711 69.9381C145.711 73.9356 140.138 77.1525 128.994 83.5863L105.352 97.2345C94.2075 103.668 88.6351 106.885 81.7107 106.885C74.7863 106.885 69.2139 103.668 58.0692 97.2345L34.4277 83.5863C23.283 77.1525 17.7107 73.9356 17.7107 69.9381C17.7107 65.9406 23.283 62.7237 34.4277 56.2899L58.0692 42.6417Z" fill="#2662D9"/>
<path fill-rule="evenodd" clip-rule="evenodd" d="M23.1208 76.7385L34.4277 70.2111L45.7756 76.7622L34.1913 83.4498C34.2699 83.4952 34.3487 83.5407 34.4277 83.5863L34.6642 83.7228L46.2485 77.0352L57.5964 83.5863L46.0121 90.274L46.4849 90.5469L58.0692 83.8593L69.4171 90.4104L57.8328 97.0981L58.0692 97.2345C58.1483 97.2802 58.2271 97.3257 58.3056 97.371L69.89 90.6834L81.2379 97.2345L69.931 103.762C70.1054 103.846 70.2785 103.928 70.4503 104.008L81.7107 97.5075L92.9711 104.008C93.1429 103.928 93.316 103.846 93.4904 103.762L82.1835 97.2345L93.5314 90.6834L105.116 97.371C105.194 97.3257 105.273 97.2802 105.352 97.2345L105.589 97.0981L94.0043 90.4104L105.352 83.8593L116.936 90.5469L117.409 90.274L105.825 83.5863L117.173 77.0352L128.757 83.7228L128.994 83.5863C129.073 83.5407 129.152 83.4952 129.23 83.4498L117.646 76.7622L128.994 70.2111L140.301 76.7385C140.446 76.6378 140.588 76.5379 140.727 76.4387L129.466 69.9381L140.727 63.4375C140.588 63.3383 140.446 63.2384 140.301 63.1377L128.994 69.6651L117.646 63.114L129.23 56.4264C129.152 56.381 129.073 56.3355 128.994 56.2899L128.757 56.1534L117.173 62.841L105.825 56.2899L117.409 49.6022L116.936 49.3293L105.352 56.0169L94.0043 49.4658L105.589 42.7781L105.352 42.6417C105.273 42.596 105.194 42.5505 105.116 42.5052L93.5314 49.1928L82.1835 42.6417L93.4904 36.1142C93.316 36.0305 93.1429 35.9484 92.9711 35.8681L81.7107 42.3687L70.4503 35.8681C70.2785 35.9484 70.1054 36.0305 69.931 36.1142L81.2379 42.6417L69.89 49.1928L58.3056 42.5052C58.2271 42.5505 58.1483 42.596 58.0692 42.6417L57.8328 42.7781L69.4171 49.4658L58.0692 56.0169L46.4849 49.3293L46.0121 49.6022L57.5964 56.2899L46.2485 62.841L34.6642 56.1534L34.4277 56.2899C34.3487 56.3355 34.2699 56.381 34.1913 56.4264L45.7756 63.114L34.4277 69.6651L23.1208 63.1377C22.9758 63.2384 22.8337 63.3383 22.6945 63.4375L33.9549 69.9381L22.6945 76.4387C22.8337 76.5379 22.9758 76.6378 23.1208 76.7385ZM46.2485 76.4892L34.9006 69.9381L46.2485 63.387L57.5964 69.9381L46.2485 76.4892ZM58.0692 69.6651L46.7213 63.114L58.0692 56.5628L69.4171 63.114L58.0692 69.6651ZM69.89 62.841L58.542 56.2899L69.89 49.7387L81.2379 56.2899L69.89 62.841ZM81.7107 56.0169L70.3628 49.4658L81.7107 42.9146L93.0586 49.4658L81.7107 56.0169ZM82.1835 56.2899L93.5314 49.7387L104.879 56.2899L93.5314 62.841L82.1835 56.2899ZM94.0043 63.114L105.352 56.5628L116.7 63.114L105.352 69.6651L94.0043 63.114ZM105.825 69.9381L117.173 63.387L128.521 69.9381L117.173 76.4892L105.825 69.9381ZM105.352 70.2111L116.7 76.7622L105.352 83.3134L94.0043 76.7622L105.352 70.2111ZM93.5314 77.0352L104.879 83.5863L93.5314 90.1375L82.1835 83.5863L93.5314 77.0352ZM81.7107 83.8593L93.0586 90.4104L81.7107 96.9616L70.3628 90.4104L81.7107 83.8593ZM81.2379 83.5863L69.89 90.1375L58.542 83.5863L69.89 77.0352L81.2379 83.5863ZM69.4171 76.7622L58.0692 83.3134L46.7213 76.7622L58.0692 70.2111L69.4171 76.7622ZM69.89 76.4892L58.542 69.9381L69.89 63.387L81.2379 69.9381L69.89 76.4892ZM81.7107 69.6651L70.3628 63.114L81.7107 56.5628L93.0586 63.114L81.7107 69.6651ZM82.1835 69.9381L93.5314 63.387L104.879 69.9381L93.5314 76.4892L82.1835 69.9381ZM81.7107 70.2111L93.0586 76.7622L81.7107 83.3134L70.3628 76.7622L81.7107 70.2111Z" fill="#7DA1E8"/>
<path fill-rule="evenodd" clip-rule="evenodd" d="M117.173 62.921C117.358 62.921 117.507 63.0074 117.507 63.114V64.8511C117.507 64.9577 117.358 65.0442 117.173 65.0442C116.988 65.0442 116.839 64.9577 116.839 64.8511V63.58L70.6972 90.2174L72.8991 90.2174C73.0837 90.2174 73.2334 90.3039 73.2334 90.4105C73.2334 90.5171 73.0837 90.6035 72.8991 90.6035L69.89 90.6035C69.7053 90.6035 69.5557 90.5171 69.5557 90.4105V88.6733C69.5557 88.5667 69.7053 88.4803 69.89 88.4803C70.0746 88.4803 70.2243 88.5667 70.2243 88.6733V89.9445L116.366 63.307H114.164C113.979 63.307 113.83 63.2206 113.83 63.114C113.83 63.0074 113.979 62.921 114.164 62.921H117.173Z" fill="white"/>
<path fill-rule="evenodd" clip-rule="evenodd" d="M81.4743 56.4264C75.0764 52.7329 64.7035 52.7329 58.3056 56.4264C51.9078 60.1198 51.9078 66.1081 58.3056 69.8016C64.7035 73.4951 75.0764 73.4951 81.4743 69.8016C87.8721 66.1081 87.8721 60.1198 81.4743 56.4264ZM57.8328 56.1534C64.4918 52.3092 75.2881 52.3092 81.9471 56.1534C88.6061 59.9976 88.6061 66.2304 81.9471 70.0746C75.2881 73.9188 64.4918 73.9188 57.8328 70.0746C51.1738 66.2304 51.1738 59.9976 57.8328 56.1534Z" fill="white"/>
<path d="M111.527 46.2063L105.669 56.3509C105.633 56.4144 105.542 56.4624 105.429 56.4777C105.316 56.4931 105.198 56.4737 105.116 56.4264L81.4743 42.7781C81.3923 42.7308 81.3587 42.6624 81.3853 42.5973C81.4119 42.5322 81.495 42.4797 81.605 42.4585L99.1325 39.0857C99.311 39.1854 99.4911 39.2864 99.6728 39.3886L82.3296 42.726L105.206 55.9326L110.998 45.9011L111.527 46.2063Z" fill="white"/>
<path d="M46.4849 90.5469L58.542 83.5863L34.4277 69.6651L22.6945 76.4387L22.7103 76.4499C22.8444 76.5454 22.9813 76.6416 23.1208 76.7385L34.4277 70.2111L57.5964 83.5863L46.0121 90.274L46.4849 90.5469Z" fill="white"/>
<path d="M129.23 83.4498L117.173 76.4892L93.0586 90.4104L105.116 97.371C105.352 97.2345 105.352 97.2345 105.589 97.0981L94.0043 90.4104L117.173 77.0352L128.757 83.7228L129.23 83.4498Z" fill="white"/>
<g opacity="0.5" filter="url(#filter0_f_103_305)">
<path d="M81.2626 79.5094C81.2692 79.1962 81.1622 78.8855 80.965 78.5957C80.7599 78.3059 80.4646 78.0461 80.0867 77.8254C79.7089 77.6047 79.2602 77.43 78.7679 77.3125C78.2718 77.1927 77.7399 77.1348 77.2036 77.1386L73.9076 77.1526C73.3909 77.1495 72.9045 77.2698 72.5426 77.4811C72.1807 77.6925 71.9748 77.9766 71.9723 78.2738L71.88 86.0318C71.8789 86.1644 71.8348 86.2994 71.7398 86.4231C71.6526 86.5468 71.5186 86.6615 71.3573 86.7557C71.1921 86.8522 70.9996 86.9282 70.7878 86.9792C70.576 87.0301 70.3488 87.0581 70.1178 87.0611L59.0513 87.1086C57.967 87.114 56.9236 87.3685 56.1487 87.8211C55.3777 88.2715 54.9381 88.8832 54.9289 89.5165L54.9196 90.159C54.9104 90.7924 55.3359 91.3993 56.0994 91.8453C56.8629 92.2912 57.8981 92.5375 58.9864 92.5344L70.0529 92.4868C70.2799 92.4862 70.5106 92.5107 70.7216 92.5604C70.9326 92.6101 71.1238 92.685 71.2874 92.7805C71.4471 92.8738 71.5753 92.9855 71.6643 93.111C71.7494 93.2342 71.7952 93.3667 71.7902 93.5016L71.6961 101.015C71.7632 101.413 72.0615 101.784 72.5446 102.062C73.0316 102.342 73.6643 102.514 74.3451 102.548L91.0172 102.48C91.0954 102.485 91.1737 102.489 91.2559 102.486L95.879 102.466C96.3018 102.465 96.7133 102.398 97.0784 102.271C97.4436 102.144 97.7425 101.965 97.9479 101.749C98.1414 101.545 98.2451 101.321 98.2431 101.09L98.2735 98.3921C98.2737 98.3646 98.2661 98.3372 98.2663 98.3098L98.3836 88.4941C98.3904 88.1488 98.17 87.8179 97.7689 87.5698C97.5592 87.3784 97.2708 87.2237 96.9311 87.1172C96.5914 87.0107 96.2122 86.9547 95.8208 86.9558L87.3184 86.9892C86.097 86.9926 85.1057 87.5762 85.0998 88.2896L85.0759 91.1385C85.07 91.8518 86.0594 92.4297 87.2847 92.424C87.5117 92.4233 87.7425 92.4478 87.9534 92.4975C88.1644 92.5472 88.3556 92.6221 88.5192 92.7177C88.6789 92.811 88.8071 92.9226 88.8961 93.0481C88.9812 93.1713 89.0271 93.3038 89.022 93.4387L88.9886 96.0384C88.9863 96.3082 88.7962 96.5694 88.4658 96.7624C88.1354 96.9554 87.6921 97.0641 87.2263 97.0678L82.7989 97.0872C82.5719 97.0879 82.3411 97.0634 82.1302 97.0137C81.9192 96.964 81.728 96.8891 81.5644 96.7935C81.4008 96.698 81.2765 96.5886 81.1875 96.4631C81.1024 96.3399 81.0565 96.2074 81.0616 96.0725" fill="#151C28"/>
</g>
<g filter="url(#filter1_bdd_103_305)">
<path d="M105.352 23.9186C100.548 21.1448 96.7785 18.969 93.4904 17.3911C93.3226 17.3105 93.1559 17.2315 92.9905 17.1541C88.8799 15.2299 85.4975 14.2678 81.7107 14.2678C77.9239 14.2678 74.5415 15.2299 70.4309 17.1541C70.2654 17.2315 70.0988 17.3105 69.931 17.3911C66.6428 18.969 62.8739 21.1448 58.0692 23.9186L34.4277 37.5668C29.6231 40.3405 25.8541 42.5163 23.1208 44.4146C22.9813 44.5115 22.8444 44.6077 22.7103 44.7032C19.3772 47.0762 17.7107 49.0289 17.7107 51.215C17.7107 53.4011 19.3772 55.3538 22.7103 57.7268C22.8444 57.8223 22.9813 57.9185 23.1208 58.0155C25.8541 59.9137 29.6231 62.0895 34.4277 64.8632L58.0692 78.5115C62.8738 81.2852 66.6428 83.461 69.931 85.0389C70.0988 85.1195 70.2655 85.1985 70.4309 85.2759C74.5415 87.2001 77.9239 88.1622 81.7107 88.1622C85.4975 88.1622 88.8799 87.2001 92.9905 85.2759C93.1559 85.1985 93.3225 85.1195 93.4904 85.039C96.7785 83.461 100.548 81.2852 105.352 78.5115L128.994 64.8632C133.798 62.0895 137.567 59.9137 140.301 58.0154C140.44 57.9185 140.577 57.8223 140.711 57.7268C144.044 55.3538 145.711 53.4011 145.711 51.215C145.711 49.0289 144.044 47.0762 140.711 44.7032C140.577 44.6077 140.44 44.5115 140.301 44.4146C137.567 42.5163 133.798 40.3405 128.994 37.5668L105.352 23.9186Z" fill="#6226D9" fill-opacity="0.5" shape-rendering="crispEdges"/>
<path d="M34.5113 37.7116C29.7041 40.4868 25.9424 42.6586 23.2162 44.5519C23.0772 44.6484 22.9408 44.7443 22.8073 44.8394L34.5113 37.7116ZM34.5113 37.7116L58.1528 24.0633M34.5113 37.7116L58.1528 24.0633M58.1528 24.0633C58.2319 24.0177 58.3107 23.9722 58.3892 23.9269C63.0831 21.2172 66.7762 19.0905 70.0033 17.5418C70.1707 17.4615 70.3368 17.3827 70.5018 17.3055C70.5024 17.3052 70.503 17.3049 70.5036 17.3046C70.5095 17.3019 70.5153 17.2992 70.5211 17.2964C74.6092 15.3847 77.9622 14.435 81.7107 14.435C85.4592 14.435 88.8122 15.3847 92.9002 17.2964C92.9067 17.2995 92.9132 17.3025 92.9196 17.3055C93.0846 17.3827 93.2507 17.4615 93.4181 17.5418C96.6992 19.1164 100.462 21.2885 105.269 24.0633L128.91 37.7116L58.1528 24.0633ZM58.3892 78.5032C63.0831 81.2129 66.7762 83.3396 70.0033 84.8882C70.1707 84.9686 70.3368 85.0473 70.5017 85.1245L58.3892 78.5032ZM58.3892 78.5032C58.3107 78.4578 58.2319 78.4123 58.1528 78.3667L58.3892 78.5032Z" stroke="url(#paint0_linear_103_305)" stroke-width="0.334341" shape-rendering="crispEdges"/>
</g>
<g filter="url(#filter2_d_103_305)">
<path d="M82.2492 67.8731L82.3252 52.1895C82.2496 51.6143 81.8972 51.13 81.3181 50.7833C80.7256 50.4286 79.8958 50.218 78.8825 50.2019L77.0546 50.2049C74.0945 50.1822 73.9745 50.896 73.9993 52.0857L73.9653 59.0935C73.9631 59.5513 73.3183 59.9235 72.5252 59.9248L60.5576 59.9442L60.5568 59.9442C59.5875 59.9491 58.6548 60.1741 57.9619 60.5741C57.2726 60.972 56.8794 61.5125 56.8708 62.0721L56.8623 62.6397C56.8538 63.1992 57.306 63.6937 57.9883 64.0876C58.6706 64.4814 59.4512 64.7542 60.4239 64.7513L72.2988 64.7321C73.0919 64.7308 73.7331 65.1009 73.7309 65.5588L73.6957 72.8111C73.6946 73.04 73.8543 73.247 74.1134 73.3966C74.3726 73.5462 74.7311 73.6384 75.1277 73.6378L96.2198 73.6037C97.0129 73.6024 97.6576 73.2302 97.6598 72.7723L97.7189 60.5959C97.72 60.3669 97.5603 60.1599 97.3012 60.0103C97.042 59.8607 96.6835 59.7685 96.2869 59.7692L87.38 59.7836C86.5869 59.7848 85.9421 60.1571 85.9399 60.6149L85.9241 63.881C85.9218 64.3389 86.563 64.709 87.3561 64.7077L87.7334 64.7071C88.5265 64.7058 89.1676 65.0759 89.1654 65.5338L89.1541 67.862C89.1519 68.3198 88.5072 68.692 87.714 68.6933L83.6812 68.6998C82.8881 68.7011 82.247 68.331 82.2492 67.8731Z" fill="white"/>
</g>
<defs>
<filter id="filter0_f_103_305" x="38.8711" y="61.0901" width="75.5611" height="57.5066" filterUnits="userSpaceOnUse" color-interpolation-filters="sRGB">
<feFlood flood-opacity="0" result="BackgroundImageFix"/>
<feBlend mode="normal" in="SourceGraphic" in2="BackgroundImageFix" result="shape"/>
<feGaussianBlur stdDeviation="8.02418" result="effect1_foregroundBlur_103_305"/>
</filter>
<filter id="filter1_bdd_103_305" x="0.993649" y="0.894186" width="161.434" height="112.678" filterUnits="userSpaceOnUse" color-interpolation-filters="sRGB">
<feFlood flood-opacity="0" result="BackgroundImageFix"/>
<feGaussianBlur in="BackgroundImageFix" stdDeviation="1.00302"/>
<feComposite in2="SourceAlpha" operator="in" result="effect1_backgroundBlur_103_305"/>
<feColorMatrix in="SourceAlpha" type="matrix" values="0 0 0 0 0 0 0 0 0 0 0 0 0 0 0 0 0 0 127 0" result="hardAlpha"/>
<feOffset dy="18.7231"/>
<feGaussianBlur stdDeviation="3.34341"/>
<feComposite in2="hardAlpha" operator="out"/>
<feColorMatrix type="matrix" values="0 0 0 0 0.0823529 0 0 0 0 0.109804 0 0 0 0 0.156863 0 0 0 0.25 0"/>
<feBlend mode="normal" in2="effect1_backgroundBlur_103_305" result="effect2_dropShadow_103_305"/>
<feColorMatrix in="SourceAlpha" type="matrix" values="0 0 0 0 0 0 0 0 0 0 0 0 0 0 0 0 0 0 127 0" result="hardAlpha"/>
<feOffset dy="3.34341"/>
<feGaussianBlur stdDeviation="8.35852"/>
<feColorMatrix type="matrix" values="0 0 0 0 0.384314 0 0 0 0 0.14902 0 0 0 0 0.85098 0 0 0 0.7 0"/>
<feBlend mode="soft-light" in2="effect2_dropShadow_103_305" result="effect3_dropShadow_103_305"/>
<feBlend mode="normal" in="SourceGraphic" in2="effect3_dropShadow_103_305" result="shape"/>
</filter>
<filter id="filter2_d_103_305" x="46.5552" y="48.733" width="70.2996" height="58.0666" filterUnits="userSpaceOnUse" color-interpolation-filters="sRGB">
<feFlood flood-opacity="0" result="BackgroundImageFix"/>
<feColorMatrix in="SourceAlpha" type="matrix" values="0 0 0 0 0 0 0 0 0 0 0 0 0 0 0 0 0 0 127 0" result="hardAlpha"/>
<feOffset dy="18.7231"/>
<feGaussianBlur stdDeviation="4.01209"/>
<feComposite in2="hardAlpha" operator="out"/>
<feColorMatrix type="matrix" values="0 0 0 0 0.0823529 0 0 0 0 0.109804 0 0 0 0 0.156863 0 0 0 0.25 0"/>
<feBlend mode="normal" in2="BackgroundImageFix" result="effect1_dropShadow_103_305"/>
<feBlend mode="normal" in="SourceGraphic" in2="effect1_dropShadow_103_305" result="shape"/>
</filter>
<linearGradient id="paint0_linear_103_305" x1="30.5122" y1="61.0902" x2="97.6843" y2="8.92795" gradientUnits="userSpaceOnUse">
<stop stop-color="#763BEA"/>
<stop offset="1" stop-color="#7522DE" stop-opacity="0.15"/>
</linearGradient>
</defs>
</svg>
