<svg width="242" height="177" viewBox="0 0 242 177" fill="none" xmlns="http://www.w3.org/2000/svg">
<path d="M191.068 137.89L191.421 137.686C198.607 133.538 204.243 130.284 208.331 127.446C208.539 127.301 208.744 127.157 208.945 127.014C213.929 123.465 216.421 120.545 216.421 117.276V103.022L120.645 158.522L25 103.022V117.276C25 120.545 27.4923 123.465 32.4768 127.014C32.482 127.018 32.4871 127.021 32.4923 127.025C32.688 127.164 32.8875 127.304 33.0908 127.446C37.1783 130.284 42.8147 133.538 50 137.686L50.3536 137.89L67.3241 147.687L68.0312 148.096L85.0018 157.893L85.3553 158.097L85.3554 158.097C92.5406 162.245 98.177 165.499 103.094 167.859C103.345 167.979 103.595 168.097 103.842 168.213C109.989 171.091 115.048 172.529 120.711 172.529C126.374 172.529 131.432 171.091 137.579 168.213C137.827 168.097 138.076 167.979 138.327 167.859C143.244 165.499 148.881 162.245 156.066 158.097L156.42 157.893L173.39 148.096L174.097 147.687L191.068 137.89Z" fill="#121721"/>
<path d="M85.3554 62.4325C102.022 52.8108 110.355 48 120.711 48C131.066 48 139.399 52.8108 156.066 62.4325L191.421 82.8431C208.088 92.4648 216.421 97.2756 216.421 103.254C216.421 109.232 208.088 114.043 191.421 123.664L156.066 144.075C139.399 153.697 131.066 158.508 120.711 158.508C110.355 158.508 102.022 153.697 85.3553 144.075L50 123.664C33.3333 114.043 25 109.232 25 103.254C25 97.2756 33.3333 92.4648 50 82.8431L85.3554 62.4325Z" fill="#2662D9"/>
<path fill-rule="evenodd" clip-rule="evenodd" d="M33.0908 113.424L50 103.662L66.9706 113.459L49.6465 123.46C49.7639 123.528 49.8817 123.596 50 123.664L50.3536 123.869L67.6777 113.867L84.6482 123.664L67.3241 133.666L68.0312 134.074L85.3553 124.073L102.326 133.87L85.0018 143.871L85.3553 144.075C85.4736 144.143 85.5915 144.211 85.7089 144.279L103.033 134.278L120.004 144.075L103.094 153.837C103.355 153.962 103.614 154.085 103.871 154.205L120.711 144.483L137.55 154.205C137.807 154.085 138.066 153.962 138.327 153.837L121.418 144.075L138.388 134.278L155.712 144.279C155.83 144.211 155.948 144.143 156.066 144.075L156.42 143.871L139.095 133.87L156.066 124.073L173.39 134.074L174.097 133.666L156.773 123.664L173.744 113.867L191.068 123.869L191.421 123.664C191.54 123.596 191.657 123.528 191.775 123.46L174.451 113.459L191.421 103.662L208.331 113.424C208.547 113.273 208.76 113.124 208.968 112.975L192.128 103.254L208.968 93.5322C208.76 93.3839 208.547 93.2345 208.331 93.0839L191.421 102.846L174.451 93.0485L191.775 83.0472C191.657 82.9795 191.54 82.9114 191.421 82.8431L191.068 82.639L173.744 92.6402L156.773 82.8431L174.097 72.8419L173.39 72.4337L156.066 82.4349L139.095 72.6378L156.42 62.6366L156.066 62.4325C155.948 62.3642 155.83 62.2962 155.712 62.2284L138.388 72.2296L121.418 62.4325L138.327 52.6708C138.066 52.5456 137.807 52.4229 137.55 52.3028L120.711 62.0243L103.871 52.3028C103.614 52.4229 103.355 52.5456 103.094 52.6708L120.004 62.4325L103.033 72.2296L85.7089 62.2284C85.5915 62.2962 85.4736 62.3642 85.3554 62.4325L85.0018 62.6366L102.326 72.6378L85.3554 82.4349L68.0312 72.4337L67.3241 72.8419L84.6482 82.8431L67.6777 92.6402L50.3536 82.639L50 82.8431C49.8817 82.9114 49.7639 82.9795 49.6465 83.0472L66.9706 93.0485L50 102.846L33.0908 93.0839C32.8739 93.2345 32.6614 93.3839 32.4532 93.5322L49.2929 103.254L32.4532 112.975C32.6614 113.124 32.8739 113.273 33.0908 113.424ZM67.6777 113.051L50.7071 103.254L67.6777 93.4567L84.6482 103.254L67.6777 113.051ZM85.3553 102.846L68.3848 93.0485L85.3553 83.2514L102.326 93.0485L85.3553 102.846ZM103.033 92.6402L86.0625 82.8431L103.033 73.046L120.004 82.8431L103.033 92.6402ZM120.711 82.4349L103.74 72.6378L120.711 62.8407L137.681 72.6378L120.711 82.4349ZM121.418 82.8431L138.388 73.046L155.359 82.8431L138.388 92.6402L121.418 82.8431ZM139.095 93.0485L156.066 83.2514L173.037 93.0485L156.066 102.846L139.095 93.0485ZM156.773 103.254L173.744 93.4567L190.714 103.254L173.744 113.051L156.773 103.254ZM156.066 103.662L173.037 113.459L156.066 123.256L139.095 113.459L156.066 103.662ZM138.388 113.867L155.359 123.664L138.388 133.462L121.418 123.664L138.388 113.867ZM120.711 124.073L137.681 133.87L120.711 143.667L103.74 133.87L120.711 124.073ZM120.004 123.664L103.033 133.462L86.0625 123.664L103.033 113.867L120.004 123.664ZM102.326 113.459L85.3553 123.256L68.3848 113.459L85.3553 103.662L102.326 113.459ZM103.033 113.051L86.0625 103.254L103.033 93.4567L120.004 103.254L103.033 113.051ZM120.711 102.846L103.74 93.0485L120.711 83.2514L137.681 93.0485L120.711 102.846ZM121.418 103.254L138.388 93.4567L155.359 103.254L138.388 113.051L121.418 103.254ZM120.711 103.662L137.681 113.459L120.711 123.256L103.74 113.459L120.711 103.662Z" fill="#7DA1E8"/>
<path fill-rule="evenodd" clip-rule="evenodd" d="M173.744 92.7598C174.02 92.7598 174.244 92.8891 174.244 93.0485V95.6463C174.244 95.8058 174.02 95.935 173.744 95.935C173.468 95.935 173.244 95.8058 173.244 95.6463V93.7454L104.24 133.581L107.533 133.581C107.809 133.581 108.033 133.71 108.033 133.87C108.033 134.029 107.809 134.158 107.533 134.158L103.033 134.158C102.757 134.158 102.533 134.029 102.533 133.87V131.272C102.533 131.113 102.757 130.983 103.033 130.983C103.309 130.983 103.533 131.113 103.533 131.272V133.173L172.537 93.3371H169.244C168.968 93.3371 168.744 93.2079 168.744 93.0485C168.744 92.8891 168.968 92.7598 169.244 92.7598H173.744Z" fill="white"/>
<path fill-rule="evenodd" clip-rule="evenodd" d="M120.357 83.0472C110.789 77.5237 95.2767 77.5237 85.7089 83.0472C76.1411 88.5708 76.1411 97.5261 85.7089 103.05C95.2767 108.573 110.789 108.573 120.357 103.05C129.925 97.5261 129.925 88.5708 120.357 83.0472ZM85.0018 82.639C94.9602 76.8901 111.106 76.8901 121.064 82.639C131.023 88.388 131.023 97.7089 121.064 103.458C111.106 109.207 94.9602 109.207 85.0018 103.458C75.0434 97.7089 75.0434 88.388 85.0018 82.639Z" fill="white"/>
<path d="M165.3 67.7634L156.54 82.9344C156.486 83.0293 156.35 83.1011 156.181 83.1241C156.012 83.1471 155.835 83.118 155.712 83.0472L120.357 62.6366C120.235 62.5659 120.184 62.4635 120.224 62.3662C120.264 62.2688 120.388 62.1903 120.553 62.1587L146.765 57.1146C147.032 57.2638 147.301 57.4148 147.573 57.5676L121.636 62.5586L155.848 82.3088L164.51 67.307L165.3 67.7634Z" fill="white"/>
<path d="M68.0312 134.074L86.0625 123.664L50 102.846L32.4532 112.975L32.4768 112.992C32.6774 113.135 32.8821 113.279 33.0908 113.424L50 103.662L84.6482 123.664L67.3241 133.666L68.0312 134.074Z" fill="white"/>
<path d="M191.775 123.46L173.744 113.051L137.681 133.87L155.712 144.279C156.066 144.075 156.066 144.075 156.42 143.871L139.095 133.87L173.744 113.867L191.068 123.869L191.775 123.46Z" fill="white"/>
<g opacity="0.5" filter="url(#filter0_f_79_3459)">
<path d="M120.041 117.568C120.051 117.099 119.89 116.634 119.596 116.201C119.289 115.768 118.847 115.379 118.282 115.049C117.717 114.719 117.046 114.458 116.31 114.282C115.568 114.103 114.773 114.016 113.971 114.022L109.041 114.043C108.269 114.038 107.541 114.218 107 114.534C106.459 114.85 106.151 115.275 106.147 115.72L106.009 127.322C106.008 127.52 105.942 127.722 105.799 127.907C105.669 128.092 105.469 128.263 105.228 128.404C104.98 128.549 104.693 128.662 104.376 128.738C104.059 128.814 103.719 128.856 103.374 128.861L86.8242 128.932C85.2025 128.94 83.6422 129.321 82.4833 129.997C81.3303 130.671 80.6729 131.586 80.6591 132.533L80.6452 133.494C80.6315 134.441 81.2678 135.349 82.4096 136.016C83.5514 136.682 85.0996 137.051 86.7271 137.046L103.277 136.975C103.616 136.974 103.961 137.011 104.277 137.085C104.592 137.159 104.878 137.271 105.123 137.414C105.362 137.554 105.554 137.721 105.687 137.908C105.814 138.093 105.882 138.291 105.875 138.493L105.734 149.728C105.835 150.323 106.281 150.879 107.003 151.294C107.731 151.713 108.678 151.97 109.696 152.022L134.628 151.92C134.745 151.926 134.863 151.933 134.985 151.929L141.899 151.899C142.531 151.897 143.147 151.796 143.693 151.607C144.239 151.417 144.686 151.149 144.993 150.827C145.283 150.522 145.438 150.186 145.435 149.841L145.48 145.806C145.48 145.765 145.469 145.724 145.469 145.683L145.645 131.004C145.655 130.488 145.325 129.993 144.726 129.622C144.412 129.335 143.981 129.104 143.473 128.945C142.965 128.786 142.398 128.702 141.812 128.703L129.097 128.753C127.27 128.759 125.788 129.631 125.779 130.698L125.743 134.959C125.735 136.025 127.214 136.89 129.047 136.881C129.386 136.88 129.731 136.917 130.047 136.991C130.362 137.065 130.648 137.177 130.893 137.32C131.132 137.46 131.323 137.627 131.456 137.814C131.584 137.999 131.652 138.197 131.645 138.399L131.595 142.286C131.591 142.69 131.307 143.08 130.813 143.369C130.319 143.658 129.656 143.82 128.959 143.826L122.338 143.855C121.999 143.856 121.654 143.819 121.338 143.745C121.023 143.67 120.737 143.558 120.492 143.416C120.247 143.273 120.061 143.109 119.928 142.921C119.801 142.737 119.732 142.539 119.74 142.337" fill="#151C28"/>
</g>
<g filter="url(#filter1_bdd_79_3459)">
<path d="M156.066 34.4325C148.881 30.2845 143.244 27.0306 138.327 24.6708C138.076 24.5503 137.827 24.4322 137.579 24.3164C131.432 21.4388 126.374 20 120.711 20C115.048 20 109.989 21.4388 103.842 24.3164C103.595 24.4322 103.345 24.5503 103.094 24.6708C98.177 27.0306 92.5406 30.2845 85.3553 34.4325L50 54.8431C42.8147 58.9912 37.1783 62.2451 33.0908 65.0839C32.8821 65.2288 32.6774 65.3726 32.4768 65.5155C27.4923 69.0643 25 71.9845 25 75.2538C25 78.5231 27.4923 81.4432 32.4768 84.9921C32.6774 85.1349 32.8821 85.2788 33.0908 85.4237C37.1783 88.2625 42.8148 91.5164 50 95.6644L85.3553 116.075C92.5406 120.223 98.177 123.477 103.094 125.837C103.345 125.957 103.595 126.075 103.842 126.191C109.989 129.069 115.048 130.508 120.711 130.508C126.374 130.508 131.432 129.069 137.579 126.191C137.827 126.075 138.076 125.957 138.327 125.837C143.244 123.477 148.881 120.223 156.066 116.075L191.421 95.6644C198.607 91.5164 204.243 88.2624 208.331 85.4237C208.539 85.2787 208.744 85.1349 208.945 84.9921C213.929 81.4432 216.421 78.5231 216.421 75.2538C216.421 71.9845 213.929 69.0643 208.945 65.5155C208.744 65.3726 208.539 65.2288 208.331 65.0839C204.243 62.2451 198.607 58.9912 191.421 54.8431L156.066 34.4325Z" fill="#6226D9" fill-opacity="0.5" shape-rendering="crispEdges"/>
<path d="M138.219 24.8962C143.126 27.2509 148.753 30.4993 155.941 34.649L191.296 55.0597C198.485 59.2099 204.111 62.4578 208.188 65.2892C208.396 65.4336 208.6 65.5769 208.8 65.7191C213.787 69.27 216.171 72.1233 216.171 75.2538C216.171 78.3842 213.787 81.2375 208.8 84.7884C208.6 84.9306 208.396 85.0739 208.188 85.2183C204.111 88.0497 198.485 91.2977 191.296 95.4479L155.941 115.859C148.753 120.008 143.126 123.257 138.219 125.611C137.968 125.732 137.72 125.849 137.473 125.965C131.347 128.833 126.325 130.258 120.711 130.258C115.096 130.258 110.075 128.833 103.948 125.965C103.701 125.849 103.453 125.732 103.202 125.611C98.2957 123.257 92.6685 120.008 85.4803 115.859L50.125 95.4479C42.936 91.2977 37.3103 88.0498 33.2334 85.2184C33.0254 85.074 32.8216 84.9307 32.6218 84.7884C27.6343 81.2375 25.25 78.3842 25.25 75.2538C25.25 72.1233 27.6343 69.27 32.6218 65.7191C32.8216 65.5769 33.0254 65.4336 33.2334 65.2892C37.3103 62.4578 42.9359 59.2099 50.125 55.0597L85.4803 34.649C92.6685 30.4993 98.2957 27.2509 103.202 24.8962C103.453 24.776 103.701 24.6582 103.948 24.5428C110.075 21.6748 115.096 20.25 120.711 20.25C126.325 20.25 131.347 21.6748 137.473 24.5428C137.72 24.6582 137.969 24.776 138.219 24.8962Z" stroke="url(#paint0_linear_79_3459)" stroke-width="0.5" shape-rendering="crispEdges"/>
</g>
<g filter="url(#filter2_d_79_3459)">
<path d="M121.516 100.166L121.63 76.7111C121.517 75.851 120.99 75.1266 120.124 74.6082C119.237 74.0777 117.997 73.7629 116.481 73.7388L113.748 73.7432C109.321 73.7093 109.141 74.7767 109.178 76.5559L109.128 87.0359C109.124 87.7206 108.16 88.2772 106.974 88.2791L89.0766 88.3081L89.0754 88.3081C87.6259 88.3154 86.2311 88.6519 85.1949 89.2501C84.164 89.8452 83.5759 90.6535 83.5632 91.4903L83.5504 92.3392C83.5376 93.1759 84.214 93.9154 85.2343 94.5045C86.2546 95.0935 87.4221 95.5013 88.8768 95.497L106.635 95.4683C107.822 95.4664 108.78 96.0199 108.777 96.7046L108.724 107.55C108.723 107.893 108.962 108.202 109.349 108.426C109.737 108.65 110.273 108.788 110.866 108.787L142.409 108.736C143.595 108.734 144.559 108.177 144.562 107.492L144.651 89.2827C144.652 88.9403 144.413 88.6308 144.026 88.407C143.638 88.1833 143.102 88.0454 142.509 88.0464L129.189 88.0679C128.003 88.0698 127.039 88.6264 127.035 89.3112L127.012 94.1955C127.008 94.8803 127.967 95.4338 129.153 95.4319L129.718 95.4309C130.904 95.429 131.862 95.9825 131.859 96.6673L131.842 100.149C131.839 100.834 130.875 101.39 129.689 101.392L123.658 101.402C122.471 101.404 121.513 100.85 121.516 100.166Z" fill="white"/>
</g>
<defs>
<filter id="filter0_f_79_3459" x="56.645" y="90.0217" width="113" height="86" filterUnits="userSpaceOnUse" color-interpolation-filters="sRGB">
<feFlood flood-opacity="0" result="BackgroundImageFix"/>
<feBlend mode="normal" in="SourceGraphic" in2="BackgroundImageFix" result="shape"/>
<feGaussianBlur stdDeviation="12" result="effect1_foregroundBlur_79_3459"/>
</filter>
<filter id="filter1_bdd_79_3459" x="0" y="0" width="241.421" height="168.508" filterUnits="userSpaceOnUse" color-interpolation-filters="sRGB">
<feFlood flood-opacity="0" result="BackgroundImageFix"/>
<feGaussianBlur in="BackgroundImageFix" stdDeviation="1.5"/>
<feComposite in2="SourceAlpha" operator="in" result="effect1_backgroundBlur_79_3459"/>
<feColorMatrix in="SourceAlpha" type="matrix" values="0 0 0 0 0 0 0 0 0 0 0 0 0 0 0 0 0 0 127 0" result="hardAlpha"/>
<feOffset dy="28"/>
<feGaussianBlur stdDeviation="5"/>
<feComposite in2="hardAlpha" operator="out"/>
<feColorMatrix type="matrix" values="0 0 0 0 0.0823529 0 0 0 0 0.109804 0 0 0 0 0.156863 0 0 0 0.25 0"/>
<feBlend mode="normal" in2="effect1_backgroundBlur_79_3459" result="effect2_dropShadow_79_3459"/>
<feColorMatrix in="SourceAlpha" type="matrix" values="0 0 0 0 0 0 0 0 0 0 0 0 0 0 0 0 0 0 127 0" result="hardAlpha"/>
<feOffset dy="5"/>
<feGaussianBlur stdDeviation="12.5"/>
<feColorMatrix type="matrix" values="0 0 0 0 0.384314 0 0 0 0 0.14902 0 0 0 0 0.85098 0 0 0 0.7 0"/>
<feBlend mode="soft-light" in2="effect2_dropShadow_79_3459" result="effect3_dropShadow_79_3459"/>
<feBlend mode="normal" in="SourceGraphic" in2="effect3_dropShadow_79_3459" result="shape"/>
</filter>
<filter id="filter2_d_79_3459" x="68.1362" y="71.5421" width="105.132" height="86.8375" filterUnits="userSpaceOnUse" color-interpolation-filters="sRGB">
<feFlood flood-opacity="0" result="BackgroundImageFix"/>
<feColorMatrix in="SourceAlpha" type="matrix" values="0 0 0 0 0 0 0 0 0 0 0 0 0 0 0 0 0 0 127 0" result="hardAlpha"/>
<feOffset dy="28"/>
<feGaussianBlur stdDeviation="6"/>
<feComposite in2="hardAlpha" operator="out"/>
<feColorMatrix type="matrix" values="0 0 0 0 0.0823529 0 0 0 0 0.109804 0 0 0 0 0.156863 0 0 0 0.25 0"/>
<feBlend mode="normal" in2="BackgroundImageFix" result="effect1_dropShadow_79_3459"/>
<feBlend mode="normal" in="SourceGraphic" in2="effect1_dropShadow_79_3459" result="shape"/>
</filter>
<linearGradient id="paint0_linear_79_3459" x1="44.1444" y1="90.0219" x2="144.599" y2="12.0143" gradientUnits="userSpaceOnUse">
<stop stop-color="#763BEA"/>
<stop offset="1" stop-color="#7522DE" stop-opacity="0.15"/>
</linearGradient>
</defs>
</svg>
