<svg width="591" height="177" viewBox="0 0 591 177" fill="none" xmlns="http://www.w3.org/2000/svg">
<path d="M191.2 138.42L191.553 138.216C198.739 134.068 204.375 130.814 208.463 127.975C208.671 127.83 208.876 127.686 209.077 127.543C214.061 123.995 216.553 121.074 216.553 117.805V103.551L120.777 159.051L25.1321 103.551V117.805C25.1321 121.074 27.6243 123.995 32.6089 127.543C32.6141 127.547 32.6192 127.551 32.6244 127.554C32.82 127.694 33.0195 127.834 33.2228 127.975C37.3104 130.814 42.9468 134.068 50.1321 138.216L50.4856 138.42L67.4562 148.217L68.1633 148.625L85.1339 158.422L85.4874 158.626L85.4875 158.626C92.6727 162.774 98.3091 166.028 103.226 168.388C103.477 168.509 103.727 168.627 103.974 168.742C110.121 171.62 115.18 173.059 120.843 173.059C126.506 173.059 131.564 171.62 137.711 168.742C137.959 168.627 138.208 168.509 138.459 168.388C143.376 166.028 149.013 162.774 156.198 158.626L156.552 158.422L173.522 148.625L174.229 148.217L191.2 138.42Z" fill="#121721"/>
<path d="M85.4874 62.9619C102.154 53.3403 110.487 48.5294 120.843 48.5294C131.198 48.5294 139.531 53.3403 156.198 62.9619L191.553 83.3726C208.22 92.9942 216.553 97.8051 216.553 103.783C216.553 109.761 208.22 114.572 191.553 124.194L156.198 144.604C139.531 154.226 131.198 159.037 120.843 159.037C110.487 159.037 102.154 154.226 85.4874 144.604L50.1321 124.194C33.4654 114.572 25.1321 109.761 25.1321 103.783C25.1321 97.8051 33.4654 92.9942 50.1321 83.3726L85.4874 62.9619Z" fill="#2662D9"/>
<path fill-rule="evenodd" clip-rule="evenodd" d="M33.2228 113.953L50.1321 104.191L67.1026 113.989L49.7785 123.99C49.896 124.058 50.0138 124.126 50.1321 124.194L50.4856 124.398L67.8098 114.397L84.7803 124.194L67.4562 134.195L68.1633 134.603L85.4874 124.602L102.458 134.399L85.1339 144.4L85.4874 144.604C85.6057 144.673 85.7235 144.741 85.841 144.809L103.165 134.807L120.136 144.604L103.226 154.366C103.487 154.491 103.746 154.614 104.003 154.734L120.843 145.013L137.682 154.734C137.939 154.614 138.198 154.491 138.459 154.366L121.55 144.604L138.52 134.807L155.845 144.809C155.962 144.741 156.08 144.673 156.198 144.604L156.552 144.4L139.228 134.399L156.198 124.602L173.522 134.603L174.229 134.195L156.905 124.194L173.876 114.397L191.2 124.398L191.553 124.194C191.672 124.126 191.79 124.058 191.907 123.99L174.583 113.989L191.553 104.191L208.463 113.953C208.68 113.803 208.892 113.653 209.1 113.505L192.261 103.783L209.1 94.0617C208.892 93.9133 208.68 93.7639 208.463 93.6133L191.553 103.375L174.583 93.5779L191.907 83.5767C191.79 83.5089 191.672 83.4408 191.553 83.3726L191.2 83.1684L173.876 93.1697L156.905 83.3726L174.229 73.3713L173.522 72.9631L156.198 82.9643L139.228 73.1672L156.552 63.166L156.198 62.9619C156.08 62.8936 155.962 62.8256 155.845 62.7578L138.52 72.759L121.55 62.9619L138.459 53.2002C138.198 53.075 137.939 52.9523 137.682 52.8322L120.843 62.5537L104.003 52.8322C103.746 52.9523 103.487 53.075 103.226 53.2002L120.136 62.9619L103.165 72.759L85.841 62.7578C85.7235 62.8256 85.6057 62.8936 85.4874 62.9619L85.1339 63.166L102.458 73.1672L85.4874 82.9643L68.1633 72.9631L67.4562 73.3713L84.7803 83.3726L67.8098 93.1697L50.4856 83.1684L50.1321 83.3726C50.0138 83.4408 49.896 83.5089 49.7785 83.5767L67.1026 93.5779L50.1321 103.375L33.2228 93.6133C33.006 93.7639 32.7935 93.9133 32.5853 94.0617L49.425 103.783L32.5853 113.505C32.7935 113.653 33.006 113.803 33.2228 113.953ZM67.8098 113.58L50.8392 103.783L67.8098 93.9861L84.7803 103.783L67.8098 113.58ZM85.4874 103.375L68.5169 93.5779L85.4874 83.7808L102.458 93.5779L85.4874 103.375ZM103.165 93.1697L86.1945 83.3726L103.165 73.5755L120.136 83.3726L103.165 93.1697ZM120.843 82.9643L103.872 73.1672L120.843 63.3701L137.813 73.1672L120.843 82.9643ZM121.55 83.3726L138.52 73.5755L155.491 83.3726L138.52 93.1697L121.55 83.3726ZM139.228 93.5779L156.198 83.7808L173.169 93.5779L156.198 103.375L139.228 93.5779ZM156.905 103.783L173.876 93.9861L190.846 103.783L173.876 113.58L156.905 103.783ZM156.198 104.191L173.169 113.989L156.198 123.786L139.228 113.989L156.198 104.191ZM138.52 114.397L155.491 124.194L138.52 133.991L121.55 124.194L138.52 114.397ZM120.843 124.602L137.813 134.399L120.843 144.196L103.872 134.399L120.843 124.602ZM120.136 124.194L103.165 133.991L86.1945 124.194L103.165 114.397L120.136 124.194ZM102.458 113.989L85.4874 123.786L68.5169 113.989L85.4874 104.191L102.458 113.989ZM103.165 113.58L86.1945 103.783L103.165 93.9861L120.136 103.783L103.165 113.58ZM120.843 103.375L103.872 93.5779L120.843 83.7808L137.813 93.5779L120.843 103.375ZM121.55 103.783L138.52 93.9861L155.491 103.783L138.52 113.58L121.55 103.783ZM120.843 104.191L137.813 113.989L120.843 123.786L103.872 113.989L120.843 104.191Z" fill="#7DA1E8"/>
<path fill-rule="evenodd" clip-rule="evenodd" d="M173.876 93.2893C174.152 93.2893 174.376 93.4185 174.376 93.5779V96.1758C174.376 96.3352 174.152 96.4644 173.876 96.4644C173.6 96.4644 173.376 96.3352 173.376 96.1758V94.2748L104.372 134.111L107.665 134.111C107.941 134.111 108.165 134.24 108.165 134.399C108.165 134.559 107.941 134.688 107.665 134.688L103.165 134.688C102.889 134.688 102.665 134.559 102.665 134.399V131.801C102.665 131.642 102.889 131.513 103.165 131.513C103.441 131.513 103.665 131.642 103.665 131.801V133.702L172.669 93.8666H169.376C169.1 93.8666 168.876 93.7373 168.876 93.5779C168.876 93.4185 169.1 93.2893 169.376 93.2893H173.876Z" fill="white"/>
<path fill-rule="evenodd" clip-rule="evenodd" d="M120.489 83.5767C110.921 78.0531 95.4088 78.0531 85.841 83.5767C76.2731 89.1002 76.2731 98.0556 85.841 103.579C95.4088 109.103 110.921 109.103 120.489 103.579C130.057 98.0556 130.057 89.1002 120.489 83.5767ZM85.1339 83.1684C95.0922 77.4195 111.238 77.4195 121.196 83.1684C131.155 88.9174 131.155 98.2383 121.196 103.987C111.238 109.736 95.0922 109.736 85.1339 103.987C75.1755 98.2383 75.1755 88.9174 85.1339 83.1684Z" fill="white"/>
<path d="M165.432 68.2928L156.672 83.4638C156.618 83.5587 156.482 83.6305 156.313 83.6535C156.144 83.6765 155.967 83.6474 155.845 83.5767L120.489 63.166C120.367 63.0953 120.316 62.993 120.356 62.8956C120.396 62.7982 120.52 62.7197 120.685 62.6881L146.897 57.644C147.164 57.7932 147.433 57.9442 147.705 58.097L121.768 63.0881L155.98 82.8382L164.642 67.8364L165.432 68.2928Z" fill="white"/>
<path d="M68.1633 134.603L86.1945 124.194L50.1321 103.375L32.5853 113.505L32.6089 113.521C32.8095 113.664 33.0141 113.808 33.2228 113.953L50.1321 104.191L84.7803 124.194L67.4562 134.195L68.1633 134.603Z" fill="white"/>
<path d="M191.907 123.99L173.876 113.58L137.813 134.399L155.845 144.809C156.198 144.604 156.198 144.604 156.552 144.4L139.228 134.399L173.876 114.397L191.2 124.398L191.907 123.99Z" fill="white"/>
<g opacity="0.5" filter="url(#filter0_f_79_3438)">
<path d="M120.173 118.097C120.182 117.628 120.022 117.164 119.727 116.731C119.421 116.297 118.979 115.909 118.414 115.579C117.849 115.249 117.178 114.987 116.442 114.811C115.7 114.632 114.904 114.546 114.102 114.551L109.173 114.572C108.401 114.568 107.673 114.748 107.132 115.064C106.591 115.38 106.283 115.805 106.279 116.249L106.141 127.851C106.139 128.049 106.073 128.251 105.931 128.436C105.801 128.621 105.601 128.793 105.359 128.934C105.112 129.078 104.824 129.192 104.508 129.268C104.191 129.344 103.851 129.386 103.506 129.39L86.956 129.461C85.3344 129.469 83.7741 129.85 82.6152 130.527C81.4622 131.2 80.8047 132.115 80.791 133.062L80.7771 134.023C80.7633 134.97 81.3997 135.878 82.5415 136.545C83.6832 137.212 85.2315 137.58 86.8589 137.576L103.409 137.504C103.748 137.503 104.093 137.54 104.409 137.614C104.724 137.689 105.01 137.801 105.255 137.944C105.494 138.083 105.685 138.25 105.818 138.438C105.946 138.622 106.014 138.82 106.007 139.022L105.866 150.258C105.966 150.853 106.413 151.409 107.135 151.824C107.863 152.242 108.809 152.499 109.828 152.551L134.76 152.449C134.877 152.456 134.994 152.462 135.117 152.459L142.031 152.429C142.663 152.427 143.279 152.326 143.825 152.136C144.371 151.947 144.818 151.679 145.125 151.356C145.414 151.051 145.569 150.716 145.566 150.37L145.612 146.336C145.612 146.295 145.601 146.254 145.601 146.212L145.777 131.533C145.787 131.017 145.457 130.522 144.857 130.151C144.544 129.865 144.112 129.634 143.604 129.474C143.097 129.315 142.529 129.231 141.944 129.233L129.229 129.283C127.402 129.288 125.92 130.161 125.911 131.227L125.875 135.488C125.866 136.555 127.346 137.419 129.178 137.41C129.518 137.409 129.863 137.446 130.179 137.52C130.494 137.595 130.78 137.707 131.025 137.85C131.263 137.989 131.455 138.156 131.588 138.344C131.716 138.528 131.784 138.726 131.777 138.928L131.727 142.816C131.723 143.219 131.439 143.61 130.945 143.898C130.451 144.187 129.788 144.35 129.091 144.355L122.47 144.384C122.131 144.385 121.785 144.349 121.47 144.274C121.154 144.2 120.869 144.088 120.624 143.945C120.379 143.802 120.193 143.638 120.06 143.451C119.933 143.267 119.864 143.068 119.872 142.867" fill="#151C28"/>
</g>
<g filter="url(#filter1_bdd_79_3438)">
<path d="M156.198 34.9619C149.013 30.8139 143.376 27.56 138.459 25.2002C138.208 25.0797 137.959 24.9616 137.711 24.8458C131.564 21.9682 126.506 20.5294 120.843 20.5294C115.18 20.5294 110.121 21.9682 103.974 24.8458C103.727 24.9616 103.477 25.0797 103.226 25.2002C98.3091 27.56 92.6727 30.8139 85.4874 34.9619L50.1321 55.3726C42.9468 59.5206 37.3104 62.7745 33.2228 65.6133C33.0142 65.7582 32.8095 65.9021 32.6089 66.0449C27.6243 69.5937 25.1321 72.5139 25.1321 75.7832C25.1321 79.0525 27.6243 81.9727 32.6089 85.5215C32.8095 85.6643 33.0142 85.8082 33.2228 85.9531C37.3104 88.7919 42.9469 92.0458 50.1321 96.1938L85.4874 116.604C92.6727 120.753 98.3091 124.006 103.226 126.366C103.477 126.487 103.727 126.605 103.974 126.721C110.121 129.598 115.18 131.037 120.843 131.037C126.506 131.037 131.564 129.598 137.711 126.721C137.959 126.605 138.208 126.487 138.459 126.366C143.376 124.006 149.013 120.753 156.198 116.604L191.553 96.1938C198.739 92.0458 204.375 88.7918 208.463 85.9531C208.671 85.8082 208.876 85.6643 209.077 85.5215C214.061 81.9727 216.553 79.0525 216.553 75.7832C216.553 72.5139 214.061 69.5937 209.077 66.0449C208.876 65.9021 208.671 65.7582 208.463 65.6133C204.375 62.7745 198.739 59.5206 191.553 55.3726L156.198 34.9619Z" fill="#6226D9" fill-opacity="0.5" shape-rendering="crispEdges"/>
<path d="M138.351 25.4256C143.258 27.7803 148.885 31.0287 156.073 35.1784L191.428 55.5891C198.618 59.7393 204.243 62.9872 208.32 65.8186C208.528 65.963 208.732 66.1063 208.932 66.2485C213.919 69.7994 216.303 72.6528 216.303 75.7832C216.303 78.9136 213.919 81.7669 208.932 85.3178C208.732 85.4601 208.528 85.6034 208.32 85.7477C204.243 88.5791 198.618 91.8271 191.428 95.9773L156.073 116.388C148.885 120.538 143.258 123.786 138.351 126.141C138.101 126.261 137.852 126.379 137.605 126.494C131.479 129.362 126.457 130.787 120.843 130.787C115.228 130.787 110.207 129.362 104.08 126.494C103.833 126.379 103.585 126.261 103.335 126.141C98.4278 123.786 92.8006 120.538 85.6124 116.388L50.2571 95.9773C43.0681 91.8271 37.4424 88.5792 33.3654 85.7478C33.1575 85.6034 32.9537 85.4601 32.7539 85.3178C27.7664 81.7669 25.3821 78.9136 25.3821 75.7832C25.3821 72.6528 27.7664 69.7994 32.7539 66.2485C32.9536 66.1063 33.1575 65.963 33.3654 65.8186C37.4424 62.9872 43.068 59.7393 50.2571 55.5891L85.6124 35.1784C92.8006 31.0287 98.4277 27.7803 103.335 25.4256C103.585 25.3055 103.833 25.1877 104.08 25.0722C110.207 22.2042 115.228 20.7794 120.843 20.7794C126.457 20.7794 131.479 22.2042 137.605 25.0722C137.852 25.1877 138.101 25.3055 138.351 25.4256Z" stroke="url(#paint0_linear_79_3438)" stroke-width="0.5" shape-rendering="crispEdges"/>
</g>
<g filter="url(#filter2_d_79_3438)">
<path d="M121.648 100.695L121.762 77.2405C121.649 76.3804 121.122 75.6561 120.256 75.1377C119.37 74.6072 118.129 74.2923 116.613 74.2682L113.88 74.2726C109.453 74.2387 109.273 75.3061 109.311 77.0853L109.26 87.5653C109.256 88.25 108.292 88.8067 107.106 88.8086L89.2087 88.8375L89.2075 88.8375C87.758 88.8449 86.3631 89.1813 85.327 89.7795C84.2961 90.3746 83.708 91.1829 83.6953 92.0197L83.6824 92.8686C83.6697 93.7054 84.3461 94.4449 85.3664 95.0339C86.3867 95.6229 87.5541 96.0308 89.0088 96.0264L106.768 95.9977C107.954 95.9958 108.912 96.5493 108.909 97.234L108.856 108.08C108.855 108.422 109.094 108.732 109.481 108.955C109.869 109.179 110.405 109.317 110.998 109.316L142.541 109.265C143.727 109.263 144.691 108.706 144.694 108.022L144.783 89.8121C144.784 89.4698 144.546 89.1602 144.158 88.9365C143.77 88.7127 143.234 88.5748 142.641 88.5758L129.321 88.5973C128.135 88.5993 127.171 89.1559 127.167 89.8406L127.144 94.725C127.14 95.4097 128.099 95.9632 129.285 95.9613L129.85 95.9604C131.036 95.9585 131.994 96.512 131.991 97.1967L131.974 100.678C131.971 101.363 131.007 101.92 129.821 101.922L123.79 101.931C122.604 101.933 121.645 101.38 121.648 100.695Z" fill="white"/>
</g>
<path d="M250.425 98.7941C250.137 98.7941 249.897 98.6981 249.705 98.5061C249.513 98.3141 249.417 98.0741 249.417 97.7861C249.417 97.6901 249.433 97.5941 249.465 97.4981C249.497 97.4021 249.529 97.3061 249.561 97.2101L260.313 81.6581L250.233 66.7781C250.137 66.5861 250.089 66.3941 250.089 66.2021C250.089 65.9141 250.185 65.6741 250.377 65.4821C250.569 65.2901 250.793 65.1941 251.049 65.1941H255.993C256.377 65.1941 256.681 65.2901 256.905 65.4821C257.129 65.6741 257.321 65.8821 257.481 66.1061L264.537 76.4741L271.641 66.1061C271.769 65.8821 271.945 65.6741 272.169 65.4821C272.425 65.2901 272.745 65.1941 273.129 65.1941H277.785C278.073 65.1941 278.313 65.2901 278.505 65.4821C278.697 65.6741 278.793 65.9141 278.793 66.2021C278.793 66.3941 278.729 66.5861 278.601 66.7781L268.569 81.6581L279.321 97.2101C279.385 97.3061 279.433 97.4021 279.465 97.4981C279.497 97.5941 279.513 97.6901 279.513 97.7861C279.513 98.0741 279.401 98.3141 279.177 98.5061C278.985 98.6981 278.761 98.7941 278.505 98.7941H273.417C273.033 98.7941 272.729 98.6981 272.505 98.5061C272.281 98.3141 272.105 98.1221 271.977 97.9301L264.297 87.0821L256.761 97.9301C256.633 98.1221 256.457 98.3141 256.233 98.5061C256.009 98.6981 255.689 98.7941 255.273 98.7941H250.425ZM285.231 98.7941C284.911 98.7941 284.639 98.6821 284.415 98.4581C284.191 98.2341 284.079 97.9621 284.079 97.6421V66.3461C284.079 66.0261 284.191 65.7541 284.415 65.5301C284.639 65.3061 284.911 65.1941 285.231 65.1941H289.695C290.015 65.1941 290.287 65.3061 290.511 65.5301C290.735 65.7541 290.847 66.0261 290.847 66.3461V93.0821H306.063C306.415 93.0821 306.703 93.1941 306.927 93.4181C307.151 93.6421 307.263 93.9301 307.263 94.2821V97.6421C307.263 97.9621 307.151 98.2341 306.927 98.4581C306.703 98.6821 306.415 98.7941 306.063 98.7941H285.231ZM333.336 99.2741C330.36 99.2741 327.864 98.8421 325.848 97.9781C323.864 97.0821 322.344 95.9301 321.288 94.5221C320.264 93.0821 319.72 91.5781 319.656 90.0101C319.656 89.7221 319.752 89.4821 319.944 89.2901C320.136 89.0981 320.376 89.0021 320.664 89.0021H324.936C325.352 89.0021 325.656 89.0981 325.848 89.2901C326.072 89.4501 326.264 89.6581 326.424 89.9141C326.616 90.5221 326.984 91.1301 327.528 91.7381C328.072 92.3141 328.808 92.7941 329.736 93.1781C330.696 93.5621 331.896 93.7541 333.336 93.7541C335.64 93.7541 337.352 93.3701 338.472 92.6021C339.624 91.8341 340.2 90.7941 340.2 89.4821C340.2 88.5541 339.896 87.8181 339.288 87.2741C338.68 86.6981 337.736 86.1861 336.456 85.7381C335.208 85.2581 333.544 84.7621 331.464 84.2501C329.064 83.6741 327.048 82.9861 325.416 82.1861C323.816 81.3541 322.6 80.3141 321.768 79.0661C320.968 77.8181 320.568 76.2341 320.568 74.3141C320.568 72.4581 321.064 70.8101 322.056 69.3701C323.08 67.9301 324.52 66.7941 326.376 65.9621C328.264 65.1301 330.504 64.7141 333.096 64.7141C335.176 64.7141 337.016 65.0021 338.616 65.5781C340.216 66.1221 341.544 66.8581 342.6 67.7861C343.656 68.6821 344.456 69.6581 345 70.7141C345.576 71.7381 345.88 72.7461 345.912 73.7381C345.912 73.9941 345.816 74.2341 345.624 74.4581C345.464 74.6501 345.224 74.7461 344.904 74.7461H340.44C340.184 74.7461 339.928 74.6821 339.672 74.5541C339.416 74.4261 339.208 74.1861 339.048 73.8341C338.856 72.8421 338.232 71.9941 337.176 71.2901C336.12 70.5861 334.76 70.2341 333.096 70.2341C331.368 70.2341 329.976 70.5541 328.92 71.1941C327.864 71.8341 327.336 72.8261 327.336 74.1701C327.336 75.0661 327.592 75.8181 328.104 76.4261C328.648 77.0021 329.496 77.5141 330.648 77.9621C331.832 78.4101 333.384 78.8901 335.304 79.4021C338.024 80.0101 340.248 80.7141 341.976 81.5141C343.704 82.3141 344.968 83.3381 345.768 84.5861C346.568 85.8021 346.968 87.3541 346.968 89.2421C346.968 91.3541 346.392 93.1621 345.24 94.6661C344.12 96.1381 342.536 97.2741 340.488 98.0741C338.44 98.8741 336.056 99.2741 333.336 99.2741ZM362.933 99.2741C360.373 99.2741 358.213 98.8261 356.453 97.9301C354.725 97.0341 353.397 95.7701 352.469 94.1381C351.573 92.5061 351.061 90.6021 350.933 88.4261C350.901 87.8501 350.885 87.1461 350.885 86.3141C350.885 85.4821 350.901 84.7781 350.933 84.2021C351.061 81.9941 351.589 80.0901 352.517 78.4901C353.477 76.8581 354.821 75.5941 356.549 74.6981C358.309 73.8021 360.437 73.3541 362.933 73.3541C365.429 73.3541 367.541 73.8021 369.269 74.6981C371.029 75.5941 372.373 76.8581 373.301 78.4901C374.261 80.0901 374.805 81.9941 374.933 84.2021C374.965 84.7781 374.981 85.4821 374.981 86.3141C374.981 87.1461 374.965 87.8501 374.933 88.4261C374.805 90.6021 374.277 92.5061 373.349 94.1381C372.453 95.7701 371.125 97.0341 369.365 97.9301C367.637 98.8261 365.493 99.2741 362.933 99.2741ZM362.933 94.5221C364.629 94.5221 365.941 93.9941 366.869 92.9381C367.797 91.8501 368.309 90.2661 368.405 88.1861C368.437 87.7061 368.453 87.0821 368.453 86.3141C368.453 85.5461 368.437 84.9221 368.405 84.4421C368.309 82.3941 367.797 80.8261 366.869 79.7381C365.941 78.6501 364.629 78.1061 362.933 78.1061C361.237 78.1061 359.925 78.6501 358.997 79.7381C358.069 80.8261 357.557 82.3941 357.461 84.4421C357.429 84.9221 357.413 85.5461 357.413 86.3141C357.413 87.0821 357.429 87.7061 357.461 88.1861C357.557 90.2661 358.069 91.8501 358.997 92.9381C359.925 93.9941 361.237 94.5221 362.933 94.5221ZM383.858 98.7941C383.538 98.7941 383.266 98.6821 383.042 98.4581C382.818 98.2341 382.706 97.9621 382.706 97.6421V78.9221H378.818C378.498 78.9221 378.226 78.8101 378.002 78.5861C377.778 78.3621 377.666 78.0901 377.666 77.7701V74.9861C377.666 74.6661 377.778 74.3941 378.002 74.1701C378.226 73.9461 378.498 73.8341 378.818 73.8341H382.706V71.8661C382.706 69.9461 383.058 68.3621 383.762 67.1141C384.466 65.8341 385.506 64.8741 386.882 64.2341C388.258 63.5941 390.002 63.2741 392.114 63.2741H395.378C395.73 63.2741 396.002 63.3861 396.194 63.6101C396.418 63.8341 396.53 64.1061 396.53 64.4261V67.2101C396.53 67.5301 396.418 67.8021 396.194 68.0261C396.002 68.2501 395.73 68.3621 395.378 68.3621H392.306C391.026 68.3621 390.146 68.6821 389.666 69.3221C389.186 69.9621 388.946 70.8901 388.946 72.1061V73.8341H394.898C395.25 73.8341 395.522 73.9461 395.714 74.1701C395.938 74.3941 396.05 74.6661 396.05 74.9861V77.7701C396.05 78.0901 395.938 78.3621 395.714 78.5861C395.522 78.8101 395.25 78.9221 394.898 78.9221H388.946V97.6421C388.946 97.9621 388.834 98.2341 388.61 98.4581C388.386 98.6821 388.114 98.7941 387.794 98.7941H383.858ZM411.173 98.7941C409.253 98.7941 407.637 98.4581 406.325 97.7861C405.013 97.1141 404.037 96.1221 403.397 94.8101C402.757 93.4661 402.437 91.8021 402.437 89.8181V78.9221H398.645C398.325 78.9221 398.053 78.8101 397.829 78.5861C397.605 78.3621 397.493 78.0901 397.493 77.7701V74.9861C397.493 74.6661 397.605 74.3941 397.829 74.1701C398.053 73.9461 398.325 73.8341 398.645 73.8341H402.437V65.8661C402.437 65.5461 402.533 65.2741 402.725 65.0501C402.949 64.8261 403.237 64.7141 403.589 64.7141H407.477C407.797 64.7141 408.069 64.8261 408.293 65.0501C408.517 65.2741 408.629 65.5461 408.629 65.8661V73.8341H414.629C414.949 73.8341 415.221 73.9461 415.445 74.1701C415.669 74.3941 415.781 74.6661 415.781 74.9861V77.7701C415.781 78.0901 415.669 78.3621 415.445 78.5861C415.221 78.8101 414.949 78.9221 414.629 78.9221H408.629V89.3381C408.629 90.6501 408.853 91.6741 409.301 92.4101C409.781 93.1461 410.597 93.5141 411.749 93.5141H415.061C415.381 93.5141 415.653 93.6261 415.877 93.8501C416.101 94.0741 416.213 94.3461 416.213 94.6661V97.6421C416.213 97.9621 416.101 98.2341 415.877 98.4581C415.653 98.6821 415.381 98.7941 415.061 98.7941H411.173ZM427.287 98.7941C426.839 98.7941 426.503 98.6821 426.279 98.4581C426.055 98.2341 425.863 97.9461 425.703 97.5941L418.839 75.3221C418.807 75.1621 418.791 75.0181 418.791 74.8901C418.791 74.6021 418.887 74.3621 419.079 74.1701C419.303 73.9461 419.543 73.8341 419.799 73.8341H423.351C423.735 73.8341 424.039 73.9461 424.263 74.1701C424.487 74.3621 424.615 74.5541 424.647 74.7461L429.351 90.6341L434.343 74.8901C434.407 74.6661 434.551 74.4421 434.775 74.2181C434.999 73.9621 435.335 73.8341 435.783 73.8341H438.183C438.631 73.8341 438.967 73.9621 439.191 74.2181C439.415 74.4421 439.559 74.6661 439.623 74.8901L444.615 90.6341L449.319 74.7461C449.351 74.5541 449.463 74.3621 449.655 74.1701C449.879 73.9461 450.183 73.8341 450.567 73.8341H454.119C454.407 73.8341 454.647 73.9461 454.839 74.1701C455.063 74.3621 455.175 74.6021 455.175 74.8901C455.175 75.0181 455.143 75.1621 455.079 75.3221L448.215 97.5941C448.119 97.9461 447.943 98.2341 447.687 98.4581C447.463 98.6821 447.127 98.7941 446.679 98.7941H443.559C443.111 98.7941 442.759 98.6821 442.503 98.4581C442.247 98.2341 442.071 97.9461 441.975 97.5941L436.983 82.4261L431.991 97.5941C431.863 97.9461 431.671 98.2341 431.415 98.4581C431.191 98.6821 430.839 98.7941 430.359 98.7941H427.287ZM466.344 99.2741C464.68 99.2741 463.176 98.9541 461.832 98.3141C460.488 97.6421 459.416 96.7621 458.616 95.6741C457.848 94.5541 457.464 93.3061 457.464 91.9301C457.464 89.6901 458.36 87.9141 460.152 86.6021C461.976 85.2581 464.376 84.3621 467.352 83.9141L473.928 82.9541V81.9461C473.928 80.6021 473.592 79.5621 472.92 78.8261C472.248 78.0901 471.096 77.7221 469.464 77.7221C468.312 77.7221 467.368 77.9621 466.632 78.4421C465.928 78.8901 465.4 79.4981 465.048 80.2661C464.792 80.6821 464.424 80.8901 463.944 80.8901H460.152C459.8 80.8901 459.528 80.7941 459.336 80.6021C459.176 80.4101 459.096 80.1541 459.096 79.8341C459.128 79.3221 459.336 78.6981 459.72 77.9621C460.104 77.2261 460.712 76.5221 461.544 75.8501C462.376 75.1461 463.448 74.5541 464.76 74.0741C466.072 73.5941 467.656 73.3541 469.512 73.3541C471.528 73.3541 473.224 73.6101 474.6 74.1221C476.008 74.6021 477.128 75.2581 477.96 76.0901C478.792 76.9221 479.4 77.8981 479.784 79.0181C480.168 80.1381 480.36 81.3221 480.36 82.5701V97.6421C480.36 97.9621 480.248 98.2341 480.024 98.4581C479.8 98.6821 479.528 98.7941 479.208 98.7941H475.32C474.968 98.7941 474.68 98.6821 474.456 98.4581C474.264 98.2341 474.168 97.9621 474.168 97.6421V95.7701C473.752 96.3781 473.192 96.9541 472.488 97.4981C471.784 98.0101 470.92 98.4421 469.896 98.7941C468.904 99.1141 467.72 99.2741 466.344 99.2741ZM467.976 94.7141C469.096 94.7141 470.104 94.4741 471 93.9941C471.928 93.5141 472.648 92.7781 473.16 91.7861C473.704 90.7621 473.976 89.4821 473.976 87.9461V86.9381L469.176 87.7061C467.288 87.9941 465.88 88.4581 464.952 89.0981C464.024 89.7381 463.56 90.5221 463.56 91.4501C463.56 92.1541 463.768 92.7621 464.184 93.2741C464.632 93.7541 465.192 94.1221 465.864 94.3781C466.536 94.6021 467.24 94.7141 467.976 94.7141ZM487.67 98.7941C487.35 98.7941 487.078 98.6821 486.854 98.4581C486.63 98.2341 486.518 97.9621 486.518 97.6421V75.0341C486.518 74.6821 486.63 74.3941 486.854 74.1701C487.078 73.9461 487.35 73.8341 487.67 73.8341H491.558C491.878 73.8341 492.15 73.9461 492.374 74.1701C492.63 74.3941 492.758 74.6821 492.758 75.0341V77.0021C493.494 75.9781 494.438 75.1941 495.59 74.6501C496.774 74.1061 498.134 73.8341 499.67 73.8341H501.638C501.99 73.8341 502.262 73.9461 502.454 74.1701C502.678 74.3941 502.79 74.6661 502.79 74.9861V78.4421C502.79 78.7621 502.678 79.0341 502.454 79.2581C502.262 79.4821 501.99 79.5941 501.638 79.5941H497.894C496.358 79.5941 495.158 80.0261 494.294 80.8901C493.462 81.7541 493.046 82.9381 493.046 84.4421V97.6421C493.046 97.9621 492.934 98.2341 492.71 98.4581C492.486 98.6821 492.198 98.7941 491.846 98.7941H487.67ZM516.958 99.2741C513.406 99.2741 510.59 98.2501 508.51 96.2021C506.43 94.1541 505.31 91.2421 505.15 87.4661C505.118 87.1461 505.102 86.7461 505.102 86.2661C505.102 85.7541 505.118 85.3541 505.15 85.0661C505.278 82.6661 505.822 80.5861 506.782 78.8261C507.774 77.0661 509.134 75.7221 510.862 74.7941C512.59 73.8341 514.622 73.3541 516.958 73.3541C519.55 73.3541 521.726 73.8981 523.486 74.9861C525.246 76.0421 526.574 77.5301 527.47 79.4501C528.366 81.3381 528.814 83.5301 528.814 86.0261V87.0341C528.814 87.3541 528.702 87.6261 528.478 87.8501C528.254 88.0741 527.966 88.1861 527.614 88.1861H511.678C511.678 88.1861 511.678 88.2341 511.678 88.3301C511.678 88.4261 511.678 88.5061 511.678 88.5701C511.71 89.6901 511.918 90.7301 512.302 91.6901C512.718 92.6181 513.31 93.3701 514.078 93.9461C514.878 94.5221 515.822 94.8101 516.91 94.8101C517.806 94.8101 518.558 94.6821 519.166 94.4261C519.774 94.1381 520.27 93.8181 520.654 93.4661C521.038 93.1141 521.31 92.8261 521.47 92.6021C521.758 92.2181 521.982 91.9941 522.142 91.9301C522.334 91.8341 522.606 91.7861 522.958 91.7861H527.086C527.406 91.7861 527.662 91.8821 527.854 92.0741C528.078 92.2661 528.174 92.5061 528.142 92.7941C528.11 93.3061 527.838 93.9301 527.326 94.6661C526.846 95.4021 526.142 96.1221 525.214 96.8261C524.286 97.5301 523.118 98.1221 521.71 98.6021C520.334 99.0501 518.75 99.2741 516.958 99.2741ZM511.678 84.1541H522.286V84.0101C522.286 82.7621 522.078 81.6741 521.662 80.7461C521.246 79.8181 520.638 79.0821 519.838 78.5381C519.038 77.9941 518.078 77.7221 516.958 77.7221C515.838 77.7221 514.878 77.9941 514.078 78.5381C513.278 79.0821 512.67 79.8181 512.254 80.7461C511.87 81.6741 511.678 82.7621 511.678 84.0101V84.1541ZM558.846 99.2741C556.062 99.2741 553.646 98.8101 551.598 97.8821C549.55 96.9221 547.966 95.4661 546.846 93.5141C545.726 91.5301 545.166 89.0021 545.166 85.9301V66.3941C545.166 66.0421 545.278 65.7541 545.502 65.5301C545.726 65.3061 545.998 65.1941 546.318 65.1941H550.686C551.038 65.1941 551.31 65.3061 551.502 65.5301C551.726 65.7541 551.838 66.0421 551.838 66.3941V85.9301C551.838 88.5541 552.462 90.5061 553.71 91.7861C554.958 93.0341 556.67 93.6581 558.846 93.6581C561.022 93.6581 562.718 93.0341 563.934 91.7861C565.182 90.5061 565.806 88.5541 565.806 85.9301V66.3941C565.806 66.0421 565.918 65.7541 566.142 65.5301C566.366 65.3061 566.654 65.1941 567.006 65.1941H571.326C571.678 65.1941 571.95 65.3061 572.142 65.5301C572.366 65.7541 572.478 66.0421 572.478 66.3941V85.9301C572.478 89.0021 571.918 91.5301 570.798 93.5141C569.71 95.4661 568.142 96.9221 566.094 97.8821C564.078 98.8101 561.662 99.2741 558.846 99.2741ZM580.824 98.7941C580.504 98.7941 580.232 98.6821 580.008 98.4581C579.784 98.2341 579.672 97.9621 579.672 97.6421V66.3461C579.672 66.0261 579.784 65.7541 580.008 65.5301C580.232 65.3061 580.504 65.1941 580.824 65.1941H585.336C585.688 65.1941 585.96 65.3061 586.152 65.5301C586.376 65.7541 586.488 66.0261 586.488 66.3461V97.6421C586.488 97.9621 586.376 98.2341 586.152 98.4581C585.96 98.6821 585.688 98.7941 585.336 98.7941H580.824Z" fill="#07090D"/>
<path d="M256.633 134.994C255.553 134.994 254.633 134.821 253.873 134.474C253.127 134.127 252.553 133.681 252.153 133.134C251.753 132.587 251.54 132.007 251.513 131.394C251.513 131.287 251.553 131.194 251.633 131.114C251.713 131.034 251.813 130.994 251.933 130.994H252.333C252.467 130.994 252.567 131.034 252.633 131.114C252.713 131.194 252.76 131.287 252.773 131.394C252.827 131.767 252.993 132.141 253.273 132.514C253.553 132.874 253.967 133.181 254.513 133.434C255.06 133.674 255.767 133.794 256.633 133.794C257.94 133.794 258.893 133.561 259.493 133.094C260.093 132.614 260.393 131.974 260.393 131.174C260.393 130.641 260.233 130.214 259.913 129.894C259.607 129.561 259.133 129.267 258.493 129.014C257.853 128.747 257.033 128.454 256.033 128.134C255.087 127.827 254.307 127.514 253.693 127.194C253.08 126.861 252.627 126.461 252.333 125.994C252.053 125.527 251.913 124.927 251.913 124.194C251.913 123.514 252.093 122.907 252.453 122.374C252.813 121.827 253.333 121.394 254.013 121.074C254.707 120.754 255.547 120.594 256.533 120.594C257.32 120.594 258.007 120.701 258.593 120.914C259.18 121.127 259.667 121.414 260.053 121.774C260.44 122.121 260.733 122.501 260.933 122.914C261.133 123.314 261.24 123.707 261.253 124.094C261.253 124.187 261.22 124.281 261.153 124.374C261.087 124.454 260.98 124.494 260.833 124.494H260.433C260.367 124.494 260.28 124.467 260.173 124.414C260.08 124.361 260.02 124.254 259.993 124.094C259.913 123.427 259.56 122.881 258.933 122.454C258.32 122.014 257.52 121.794 256.533 121.794C255.547 121.794 254.74 121.987 254.113 122.374C253.487 122.761 253.173 123.367 253.173 124.194C253.173 124.727 253.313 125.167 253.593 125.514C253.873 125.847 254.313 126.147 254.913 126.414C255.513 126.667 256.287 126.947 257.233 127.254C258.233 127.574 259.06 127.894 259.713 128.214C260.367 128.534 260.853 128.927 261.173 129.394C261.493 129.847 261.653 130.441 261.653 131.174C261.653 131.987 261.447 132.681 261.033 133.254C260.633 133.814 260.06 134.247 259.313 134.554C258.567 134.847 257.673 134.994 256.633 134.994ZM268.743 134.994C267.663 134.994 266.743 134.821 265.983 134.474C265.236 134.127 264.663 133.681 264.263 133.134C263.863 132.587 263.65 132.007 263.623 131.394C263.623 131.287 263.663 131.194 263.743 131.114C263.823 131.034 263.923 130.994 264.043 130.994H264.443C264.576 130.994 264.676 131.034 264.743 131.114C264.823 131.194 264.87 131.287 264.883 131.394C264.936 131.767 265.103 132.141 265.383 132.514C265.663 132.874 266.076 133.181 266.623 133.434C267.17 133.674 267.876 133.794 268.743 133.794C270.05 133.794 271.003 133.561 271.603 133.094C272.203 132.614 272.503 131.974 272.503 131.174C272.503 130.641 272.343 130.214 272.023 129.894C271.716 129.561 271.243 129.267 270.603 129.014C269.963 128.747 269.143 128.454 268.143 128.134C267.196 127.827 266.416 127.514 265.803 127.194C265.19 126.861 264.736 126.461 264.443 125.994C264.163 125.527 264.023 124.927 264.023 124.194C264.023 123.514 264.203 122.907 264.563 122.374C264.923 121.827 265.443 121.394 266.123 121.074C266.816 120.754 267.656 120.594 268.643 120.594C269.43 120.594 270.116 120.701 270.703 120.914C271.29 121.127 271.776 121.414 272.163 121.774C272.55 122.121 272.843 122.501 273.043 122.914C273.243 123.314 273.35 123.707 273.363 124.094C273.363 124.187 273.33 124.281 273.263 124.374C273.196 124.454 273.09 124.494 272.943 124.494H272.543C272.476 124.494 272.39 124.467 272.283 124.414C272.19 124.361 272.13 124.254 272.103 124.094C272.023 123.427 271.67 122.881 271.043 122.454C270.43 122.014 269.63 121.794 268.643 121.794C267.656 121.794 266.85 121.987 266.223 122.374C265.596 122.761 265.283 123.367 265.283 124.194C265.283 124.727 265.423 125.167 265.703 125.514C265.983 125.847 266.423 126.147 267.023 126.414C267.623 126.667 268.396 126.947 269.343 127.254C270.343 127.574 271.17 127.894 271.823 128.214C272.476 128.534 272.963 128.927 273.283 129.394C273.603 129.847 273.763 130.441 273.763 131.174C273.763 131.987 273.556 132.681 273.143 133.254C272.743 133.814 272.17 134.247 271.423 134.554C270.676 134.847 269.783 134.994 268.743 134.994ZM277.092 134.794C276.959 134.794 276.852 134.754 276.772 134.674C276.692 134.594 276.652 134.487 276.652 134.354V121.254C276.652 121.107 276.692 120.994 276.772 120.914C276.852 120.834 276.959 120.794 277.092 120.794H281.752C283.152 120.794 284.266 121.127 285.092 121.794C285.932 122.461 286.352 123.474 286.352 124.834C286.352 125.901 286.086 126.754 285.552 127.394C285.019 128.034 284.279 128.467 283.332 128.694L286.552 134.174C286.592 134.254 286.612 134.327 286.612 134.394C286.612 134.501 286.572 134.594 286.492 134.674C286.412 134.754 286.319 134.794 286.212 134.794H285.972C285.759 134.794 285.599 134.741 285.492 134.634C285.386 134.514 285.292 134.387 285.212 134.254L282.032 128.874H277.912V134.354C277.912 134.487 277.872 134.594 277.792 134.674C277.712 134.754 277.599 134.794 277.452 134.794H277.092ZM277.912 127.674H281.652C282.812 127.674 283.672 127.441 284.232 126.974C284.806 126.494 285.092 125.781 285.092 124.834C285.092 123.887 284.806 123.181 284.232 122.714C283.672 122.234 282.812 121.994 281.652 121.994H277.912V127.674ZM298.801 134.994C297.721 134.994 296.801 134.821 296.041 134.474C295.295 134.127 294.721 133.681 294.321 133.134C293.921 132.587 293.708 132.007 293.681 131.394C293.681 131.287 293.721 131.194 293.801 131.114C293.881 131.034 293.981 130.994 294.101 130.994H294.501C294.635 130.994 294.735 131.034 294.801 131.114C294.881 131.194 294.928 131.287 294.941 131.394C294.995 131.767 295.161 132.141 295.441 132.514C295.721 132.874 296.135 133.181 296.681 133.434C297.228 133.674 297.935 133.794 298.801 133.794C300.108 133.794 301.061 133.561 301.661 133.094C302.261 132.614 302.561 131.974 302.561 131.174C302.561 130.641 302.401 130.214 302.081 129.894C301.775 129.561 301.301 129.267 300.661 129.014C300.021 128.747 299.201 128.454 298.201 128.134C297.255 127.827 296.475 127.514 295.861 127.194C295.248 126.861 294.795 126.461 294.501 125.994C294.221 125.527 294.081 124.927 294.081 124.194C294.081 123.514 294.261 122.907 294.621 122.374C294.981 121.827 295.501 121.394 296.181 121.074C296.875 120.754 297.715 120.594 298.701 120.594C299.488 120.594 300.175 120.701 300.761 120.914C301.348 121.127 301.835 121.414 302.221 121.774C302.608 122.121 302.901 122.501 303.101 122.914C303.301 123.314 303.408 123.707 303.421 124.094C303.421 124.187 303.388 124.281 303.321 124.374C303.255 124.454 303.148 124.494 303.001 124.494H302.601C302.535 124.494 302.448 124.467 302.341 124.414C302.248 124.361 302.188 124.254 302.161 124.094C302.081 123.427 301.728 122.881 301.101 122.454C300.488 122.014 299.688 121.794 298.701 121.794C297.715 121.794 296.908 121.987 296.281 122.374C295.655 122.761 295.341 123.367 295.341 124.194C295.341 124.727 295.481 125.167 295.761 125.514C296.041 125.847 296.481 126.147 297.081 126.414C297.681 126.667 298.455 126.947 299.401 127.254C300.401 127.574 301.228 127.894 301.881 128.214C302.535 128.534 303.021 128.927 303.341 129.394C303.661 129.847 303.821 130.441 303.821 131.174C303.821 131.987 303.615 132.681 303.201 133.254C302.801 133.814 302.228 134.247 301.481 134.554C300.735 134.847 299.841 134.994 298.801 134.994ZM310.462 134.794C310.289 134.794 310.149 134.754 310.042 134.674C309.935 134.594 309.849 134.474 309.782 134.314L305.142 121.414C305.115 121.334 305.102 121.261 305.102 121.194C305.102 121.087 305.142 120.994 305.222 120.914C305.302 120.834 305.395 120.794 305.502 120.794H305.922C306.055 120.794 306.155 120.834 306.222 120.914C306.302 120.981 306.349 121.041 306.362 121.094L310.742 133.334L315.122 121.094C315.149 121.041 315.195 120.981 315.262 120.914C315.329 120.834 315.429 120.794 315.562 120.794H315.982C316.089 120.794 316.182 120.834 316.262 120.914C316.342 120.994 316.382 121.087 316.382 121.194C316.382 121.261 316.369 121.334 316.342 121.414L311.702 134.314C311.649 134.474 311.569 134.594 311.462 134.674C311.355 134.754 311.209 134.794 311.022 134.794H310.462ZM319.436 134.794C319.303 134.794 319.196 134.754 319.116 134.674C319.036 134.594 318.996 134.487 318.996 134.354V121.254C318.996 121.107 319.036 120.994 319.116 120.914C319.196 120.834 319.303 120.794 319.436 120.794H327.236C327.383 120.794 327.496 120.834 327.576 120.914C327.656 120.994 327.696 121.107 327.696 121.254V121.554C327.696 121.687 327.656 121.794 327.576 121.874C327.496 121.954 327.383 121.994 327.236 121.994H320.256V127.094H326.796C326.943 127.094 327.056 127.134 327.136 127.214C327.216 127.294 327.256 127.407 327.256 127.554V127.854C327.256 127.987 327.216 128.094 327.136 128.174C327.056 128.254 326.943 128.294 326.796 128.294H320.256V133.594H327.396C327.543 133.594 327.656 133.634 327.736 133.714C327.816 133.794 327.856 133.907 327.856 134.054V134.354C327.856 134.487 327.816 134.594 327.736 134.674C327.656 134.754 327.543 134.794 327.396 134.794H319.436ZM331.272 134.794C331.139 134.794 331.032 134.754 330.952 134.674C330.872 134.594 330.832 134.487 330.832 134.354V121.234C330.832 121.101 330.872 120.994 330.952 120.914C331.032 120.834 331.139 120.794 331.272 120.794H331.652C331.785 120.794 331.892 120.834 331.972 120.914C332.052 120.994 332.092 121.101 332.092 121.234V133.594H338.992C339.139 133.594 339.252 133.634 339.332 133.714C339.412 133.794 339.452 133.907 339.452 134.054V134.354C339.452 134.487 339.412 134.594 339.332 134.674C339.252 134.754 339.139 134.794 338.992 134.794H331.272ZM342.808 134.794C342.675 134.794 342.568 134.754 342.488 134.674C342.408 134.594 342.368 134.487 342.368 134.354V121.994H338.408C338.275 121.994 338.168 121.954 338.088 121.874C338.008 121.794 337.968 121.687 337.968 121.554V121.254C337.968 121.107 338.008 120.994 338.088 120.914C338.168 120.834 338.275 120.794 338.408 120.794H347.568C347.715 120.794 347.828 120.834 347.908 120.914C347.988 120.994 348.028 121.107 348.028 121.254V121.554C348.028 121.687 347.988 121.794 347.908 121.874C347.828 121.954 347.715 121.994 347.568 121.994H343.628V134.354C343.628 134.487 343.588 134.594 343.508 134.674C343.428 134.754 343.315 134.794 343.168 134.794H342.808ZM350.881 134.794C350.748 134.794 350.641 134.754 350.561 134.674C350.481 134.594 350.441 134.487 350.441 134.354V121.254C350.441 121.107 350.481 120.994 350.561 120.914C350.641 120.834 350.748 120.794 350.881 120.794H358.681C358.828 120.794 358.941 120.834 359.021 120.914C359.101 120.994 359.141 121.107 359.141 121.254V121.554C359.141 121.687 359.101 121.794 359.021 121.874C358.941 121.954 358.828 121.994 358.681 121.994H351.701V127.094H358.241C358.388 127.094 358.501 127.134 358.581 127.214C358.661 127.294 358.701 127.407 358.701 127.554V127.854C358.701 127.987 358.661 128.094 358.581 128.174C358.501 128.254 358.388 128.294 358.241 128.294H351.701V133.594H358.841C358.988 133.594 359.101 133.634 359.181 133.714C359.261 133.794 359.301 133.907 359.301 134.054V134.354C359.301 134.487 359.261 134.594 359.181 134.674C359.101 134.754 358.988 134.794 358.841 134.794H350.881ZM372.473 134.994C371.393 134.994 370.467 134.794 369.693 134.394C368.933 133.994 368.347 133.381 367.933 132.554C367.52 131.727 367.313 130.667 367.313 129.374V121.254C367.313 121.107 367.353 120.994 367.433 120.914C367.513 120.834 367.62 120.794 367.753 120.794H368.113C368.26 120.794 368.373 120.834 368.453 120.914C368.533 120.994 368.573 121.107 368.573 121.254V129.434C368.573 130.927 368.92 132.027 369.613 132.734C370.32 133.441 371.273 133.794 372.473 133.794C373.66 133.794 374.6 133.441 375.293 132.734C376 132.027 376.353 130.927 376.353 129.434V121.254C376.353 121.107 376.393 120.994 376.473 120.914C376.567 120.834 376.68 120.794 376.813 120.794H377.173C377.307 120.794 377.413 120.834 377.493 120.914C377.573 120.994 377.613 121.107 377.613 121.254V129.374C377.613 130.667 377.407 131.727 376.993 132.554C376.593 133.381 376.013 133.994 375.253 134.394C374.493 134.794 373.567 134.994 372.473 134.994ZM381.702 134.794C381.568 134.794 381.462 134.754 381.382 134.674C381.302 134.594 381.262 134.487 381.262 134.354V121.234C381.262 121.101 381.302 120.994 381.382 120.914C381.462 120.834 381.568 120.794 381.702 120.794H382.082C382.215 120.794 382.322 120.834 382.402 120.914C382.482 120.994 382.522 121.101 382.522 121.234V134.354C382.522 134.487 382.482 134.594 382.402 134.674C382.322 134.754 382.215 134.794 382.082 134.794H381.702ZM391.477 129.374C391.344 129.374 391.237 129.334 391.157 129.254C391.077 129.174 391.037 129.067 391.037 128.934V128.654C391.037 128.521 391.077 128.414 391.157 128.334C391.237 128.254 391.344 128.214 391.477 128.214H397.377C397.511 128.214 397.617 128.254 397.697 128.334C397.777 128.414 397.817 128.521 397.817 128.654V128.934C397.817 129.067 397.777 129.174 397.697 129.254C397.617 129.334 397.511 129.374 397.377 129.374H391.477ZM406.78 134.794C406.646 134.794 406.54 134.754 406.46 134.674C406.38 134.594 406.34 134.487 406.34 134.354V121.254C406.34 121.107 406.38 120.994 406.46 120.914C406.54 120.834 406.646 120.794 406.78 120.794H407.14C407.286 120.794 407.4 120.834 407.48 120.914C407.56 120.994 407.6 121.107 407.6 121.254V126.454L413.66 121.094C413.713 121.054 413.8 120.994 413.92 120.914C414.04 120.834 414.206 120.794 414.42 120.794H414.74C414.846 120.794 414.94 120.834 415.02 120.914C415.1 120.994 415.14 121.087 415.14 121.194C415.14 121.301 415.106 121.387 415.04 121.454L408.26 127.494L415.46 134.114C415.54 134.194 415.58 134.287 415.58 134.394C415.58 134.501 415.54 134.594 415.46 134.674C415.38 134.754 415.286 134.794 415.18 134.794H414.84C414.626 134.794 414.46 134.754 414.34 134.674C414.22 134.594 414.133 134.534 414.08 134.494L407.6 128.574V134.354C407.6 134.487 407.56 134.594 407.48 134.674C407.4 134.754 407.286 134.794 407.14 134.794H406.78ZM418.284 134.794C418.15 134.794 418.044 134.754 417.964 134.674C417.884 134.594 417.844 134.487 417.844 134.354V121.234C417.844 121.101 417.884 120.994 417.964 120.914C418.044 120.834 418.15 120.794 418.284 120.794H418.664C418.797 120.794 418.904 120.834 418.984 120.914C419.064 120.994 419.104 121.101 419.104 121.234V134.354C419.104 134.487 419.064 134.594 418.984 134.674C418.904 134.754 418.797 134.794 418.664 134.794H418.284ZM426.363 134.794C426.23 134.794 426.123 134.754 426.043 134.674C425.963 134.594 425.923 134.487 425.923 134.354V121.994H421.963C421.83 121.994 421.723 121.954 421.643 121.874C421.563 121.794 421.523 121.687 421.523 121.554V121.254C421.523 121.107 421.563 120.994 421.643 120.914C421.723 120.834 421.83 120.794 421.963 120.794H431.123C431.27 120.794 431.383 120.834 431.463 120.914C431.543 120.994 431.583 121.107 431.583 121.254V121.554C431.583 121.687 431.543 121.794 431.463 121.874C431.383 121.954 431.27 121.994 431.123 121.994H427.183V134.354C427.183 134.487 427.143 134.594 427.063 134.674C426.983 134.754 426.87 134.794 426.723 134.794H426.363Z" fill="#07090D"/>
<defs>
<filter id="filter0_f_79_3438" x="56.7769" y="90.5512" width="113" height="86" filterUnits="userSpaceOnUse" color-interpolation-filters="sRGB">
<feFlood flood-opacity="0" result="BackgroundImageFix"/>
<feBlend mode="normal" in="SourceGraphic" in2="BackgroundImageFix" result="shape"/>
<feGaussianBlur stdDeviation="12" result="effect1_foregroundBlur_79_3438"/>
</filter>
<filter id="filter1_bdd_79_3438" x="0.13208" y="0.529419" width="241.421" height="168.508" filterUnits="userSpaceOnUse" color-interpolation-filters="sRGB">
<feFlood flood-opacity="0" result="BackgroundImageFix"/>
<feGaussianBlur in="BackgroundImageFix" stdDeviation="1.5"/>
<feComposite in2="SourceAlpha" operator="in" result="effect1_backgroundBlur_79_3438"/>
<feColorMatrix in="SourceAlpha" type="matrix" values="0 0 0 0 0 0 0 0 0 0 0 0 0 0 0 0 0 0 127 0" result="hardAlpha"/>
<feOffset dy="28"/>
<feGaussianBlur stdDeviation="5"/>
<feComposite in2="hardAlpha" operator="out"/>
<feColorMatrix type="matrix" values="0 0 0 0 0.0823529 0 0 0 0 0.109804 0 0 0 0 0.156863 0 0 0 0.25 0"/>
<feBlend mode="normal" in2="effect1_backgroundBlur_79_3438" result="effect2_dropShadow_79_3438"/>
<feColorMatrix in="SourceAlpha" type="matrix" values="0 0 0 0 0 0 0 0 0 0 0 0 0 0 0 0 0 0 127 0" result="hardAlpha"/>
<feOffset dy="5"/>
<feGaussianBlur stdDeviation="12.5"/>
<feColorMatrix type="matrix" values="0 0 0 0 0.384314 0 0 0 0 0.14902 0 0 0 0 0.85098 0 0 0 0.7 0"/>
<feBlend mode="soft-light" in2="effect2_dropShadow_79_3438" result="effect3_dropShadow_79_3438"/>
<feBlend mode="normal" in="SourceGraphic" in2="effect3_dropShadow_79_3438" result="shape"/>
</filter>
<filter id="filter2_d_79_3438" x="68.2683" y="72.0715" width="105.132" height="86.8374" filterUnits="userSpaceOnUse" color-interpolation-filters="sRGB">
<feFlood flood-opacity="0" result="BackgroundImageFix"/>
<feColorMatrix in="SourceAlpha" type="matrix" values="0 0 0 0 0 0 0 0 0 0 0 0 0 0 0 0 0 0 127 0" result="hardAlpha"/>
<feOffset dy="28"/>
<feGaussianBlur stdDeviation="6"/>
<feComposite in2="hardAlpha" operator="out"/>
<feColorMatrix type="matrix" values="0 0 0 0 0.0823529 0 0 0 0 0.109804 0 0 0 0 0.156863 0 0 0 0.25 0"/>
<feBlend mode="normal" in2="BackgroundImageFix" result="effect1_dropShadow_79_3438"/>
<feBlend mode="normal" in="SourceGraphic" in2="effect1_dropShadow_79_3438" result="shape"/>
</filter>
<linearGradient id="paint0_linear_79_3438" x1="44.2765" y1="90.5513" x2="144.731" y2="12.5438" gradientUnits="userSpaceOnUse">
<stop stop-color="#763BEA"/>
<stop offset="1" stop-color="#7522DE" stop-opacity="0.15"/>
</linearGradient>
</defs>
</svg>
