<svg width="591" height="177" viewBox="0 0 591 177" fill="none" xmlns="http://www.w3.org/2000/svg">
<path d="M191.068 137.89L191.421 137.686C198.607 133.538 204.243 130.284 208.331 127.446C208.539 127.301 208.744 127.157 208.945 127.014C213.929 123.465 216.421 120.545 216.421 117.276V103.022L120.645 158.522L25 103.022V117.276C25 120.545 27.4923 123.465 32.4768 127.014C32.482 127.018 32.4871 127.021 32.4923 127.025C32.688 127.164 32.8875 127.304 33.0908 127.446C37.1783 130.284 42.8147 133.538 50 137.686L50.3536 137.89L67.3241 147.687L68.0312 148.096L85.0018 157.893L85.3553 158.097L85.3554 158.097C92.5406 162.245 98.177 165.499 103.094 167.859C103.345 167.979 103.595 168.097 103.842 168.213C109.989 171.091 115.048 172.529 120.711 172.529C126.374 172.529 131.432 171.091 137.579 168.213C137.827 168.097 138.076 167.979 138.327 167.859C143.244 165.499 148.881 162.245 156.066 158.097L156.42 157.893L173.39 148.096L174.097 147.687L191.068 137.89Z" fill="#121721"/>
<path d="M85.3554 62.4325C102.022 52.8108 110.355 48 120.711 48C131.066 48 139.399 52.8108 156.066 62.4325L191.421 82.8431C208.088 92.4648 216.421 97.2756 216.421 103.254C216.421 109.232 208.088 114.043 191.421 123.664L156.066 144.075C139.399 153.697 131.066 158.508 120.711 158.508C110.355 158.508 102.022 153.697 85.3553 144.075L50 123.664C33.3333 114.043 25 109.232 25 103.254C25 97.2756 33.3333 92.4648 50 82.8431L85.3554 62.4325Z" fill="#2662D9"/>
<path fill-rule="evenodd" clip-rule="evenodd" d="M33.0908 113.424L50 103.662L66.9706 113.459L49.6465 123.46C49.7639 123.528 49.8817 123.596 50 123.664L50.3536 123.869L67.6777 113.867L84.6482 123.664L67.3241 133.666L68.0312 134.074L85.3553 124.073L102.326 133.87L85.0018 143.871L85.3553 144.075C85.4736 144.143 85.5915 144.211 85.7089 144.279L103.033 134.278L120.004 144.075L103.094 153.837C103.355 153.962 103.614 154.085 103.871 154.205L120.711 144.483L137.55 154.205C137.807 154.085 138.066 153.962 138.327 153.837L121.418 144.075L138.388 134.278L155.712 144.279C155.83 144.211 155.948 144.143 156.066 144.075L156.42 143.871L139.095 133.87L156.066 124.073L173.39 134.074L174.097 133.666L156.773 123.664L173.744 113.867L191.068 123.869L191.421 123.664C191.54 123.596 191.657 123.528 191.775 123.46L174.451 113.459L191.421 103.662L208.331 113.424C208.547 113.273 208.76 113.124 208.968 112.975L192.128 103.254L208.968 93.5322C208.76 93.3839 208.547 93.2345 208.331 93.0839L191.421 102.846L174.451 93.0485L191.775 83.0472C191.657 82.9795 191.54 82.9114 191.421 82.8431L191.068 82.639L173.744 92.6402L156.773 82.8431L174.097 72.8419L173.39 72.4337L156.066 82.4349L139.095 72.6378L156.42 62.6366L156.066 62.4325C155.948 62.3642 155.83 62.2962 155.712 62.2284L138.388 72.2296L121.418 62.4325L138.327 52.6708C138.066 52.5456 137.807 52.4229 137.55 52.3028L120.711 62.0243L103.871 52.3028C103.614 52.4229 103.355 52.5456 103.094 52.6708L120.004 62.4325L103.033 72.2296L85.7089 62.2284C85.5915 62.2962 85.4736 62.3642 85.3554 62.4325L85.0018 62.6366L102.326 72.6378L85.3554 82.4349L68.0312 72.4337L67.3241 72.8419L84.6482 82.8431L67.6777 92.6402L50.3536 82.639L50 82.8431C49.8817 82.9114 49.7639 82.9795 49.6465 83.0472L66.9706 93.0485L50 102.846L33.0908 93.0839C32.8739 93.2345 32.6614 93.3839 32.4532 93.5322L49.2929 103.254L32.4532 112.975C32.6614 113.124 32.8739 113.273 33.0908 113.424ZM67.6777 113.051L50.7071 103.254L67.6777 93.4567L84.6482 103.254L67.6777 113.051ZM85.3553 102.846L68.3848 93.0485L85.3553 83.2514L102.326 93.0485L85.3553 102.846ZM103.033 92.6402L86.0625 82.8431L103.033 73.046L120.004 82.8431L103.033 92.6402ZM120.711 82.4349L103.74 72.6378L120.711 62.8407L137.681 72.6378L120.711 82.4349ZM121.418 82.8431L138.388 73.046L155.359 82.8431L138.388 92.6402L121.418 82.8431ZM139.095 93.0485L156.066 83.2514L173.037 93.0485L156.066 102.846L139.095 93.0485ZM156.773 103.254L173.744 93.4567L190.714 103.254L173.744 113.051L156.773 103.254ZM156.066 103.662L173.037 113.459L156.066 123.256L139.095 113.459L156.066 103.662ZM138.388 113.867L155.359 123.664L138.388 133.462L121.418 123.664L138.388 113.867ZM120.711 124.073L137.681 133.87L120.711 143.667L103.74 133.87L120.711 124.073ZM120.004 123.664L103.033 133.462L86.0625 123.664L103.033 113.867L120.004 123.664ZM102.326 113.459L85.3553 123.256L68.3848 113.459L85.3553 103.662L102.326 113.459ZM103.033 113.051L86.0625 103.254L103.033 93.4567L120.004 103.254L103.033 113.051ZM120.711 102.846L103.74 93.0485L120.711 83.2514L137.681 93.0485L120.711 102.846ZM121.418 103.254L138.388 93.4567L155.359 103.254L138.388 113.051L121.418 103.254ZM120.711 103.662L137.681 113.459L120.711 123.256L103.74 113.459L120.711 103.662Z" fill="#7DA1E8"/>
<path fill-rule="evenodd" clip-rule="evenodd" d="M173.744 92.7598C174.02 92.7598 174.244 92.8891 174.244 93.0485V95.6463C174.244 95.8058 174.02 95.935 173.744 95.935C173.468 95.935 173.244 95.8058 173.244 95.6463V93.7454L104.24 133.581L107.533 133.581C107.809 133.581 108.033 133.71 108.033 133.87C108.033 134.029 107.809 134.158 107.533 134.158L103.033 134.158C102.757 134.158 102.533 134.029 102.533 133.87V131.272C102.533 131.113 102.757 130.983 103.033 130.983C103.309 130.983 103.533 131.113 103.533 131.272V133.173L172.537 93.3371H169.244C168.968 93.3371 168.744 93.2079 168.744 93.0485C168.744 92.8891 168.968 92.7598 169.244 92.7598H173.744Z" fill="white"/>
<path fill-rule="evenodd" clip-rule="evenodd" d="M120.357 83.0472C110.789 77.5237 95.2767 77.5237 85.7089 83.0472C76.1411 88.5708 76.1411 97.5261 85.7089 103.05C95.2767 108.573 110.789 108.573 120.357 103.05C129.925 97.5261 129.925 88.5708 120.357 83.0472ZM85.0018 82.639C94.9602 76.8901 111.106 76.8901 121.064 82.639C131.023 88.388 131.023 97.7089 121.064 103.458C111.106 109.207 94.9602 109.207 85.0018 103.458C75.0434 97.7089 75.0434 88.388 85.0018 82.639Z" fill="white"/>
<path d="M165.3 67.7634L156.54 82.9344C156.486 83.0293 156.35 83.1011 156.181 83.1241C156.012 83.1471 155.835 83.118 155.712 83.0472L120.357 62.6366C120.235 62.5659 120.184 62.4635 120.224 62.3662C120.264 62.2688 120.388 62.1903 120.553 62.1587L146.765 57.1146C147.032 57.2638 147.301 57.4148 147.573 57.5676L121.636 62.5586L155.848 82.3088L164.51 67.307L165.3 67.7634Z" fill="white"/>
<path d="M68.0312 134.074L86.0625 123.664L50 102.846L32.4532 112.975L32.4768 112.992C32.6774 113.135 32.8821 113.279 33.0908 113.424L50 103.662L84.6482 123.664L67.3241 133.666L68.0312 134.074Z" fill="white"/>
<path d="M191.775 123.46L173.744 113.051L137.681 133.87L155.712 144.279C156.066 144.075 156.066 144.075 156.42 143.871L139.095 133.87L173.744 113.867L191.068 123.869L191.775 123.46Z" fill="white"/>
<g opacity="0.5" filter="url(#filter0_f_79_3335)">
<path d="M120.041 117.568C120.051 117.099 119.89 116.635 119.596 116.201C119.289 115.768 118.847 115.379 118.282 115.049C117.717 114.719 117.046 114.458 116.31 114.282C115.568 114.103 114.773 114.016 113.971 114.022L109.041 114.043C108.269 114.038 107.541 114.218 107 114.534C106.459 114.85 106.151 115.275 106.147 115.72L106.009 127.322C106.008 127.52 105.942 127.722 105.799 127.907C105.669 128.092 105.469 128.263 105.228 128.404C104.98 128.549 104.693 128.662 104.376 128.738C104.059 128.814 103.719 128.856 103.374 128.861L86.8242 128.932C85.2025 128.94 83.6422 129.321 82.4833 129.998C81.3303 130.671 80.6729 131.586 80.6591 132.533L80.6452 133.494C80.6315 134.441 81.2678 135.349 82.4096 136.016C83.5514 136.682 85.0996 137.051 86.7271 137.046L103.277 136.975C103.616 136.974 103.961 137.011 104.277 137.085C104.592 137.159 104.878 137.271 105.123 137.414C105.362 137.554 105.554 137.721 105.687 137.908C105.814 138.093 105.882 138.291 105.875 138.493L105.734 149.728C105.835 150.323 106.281 150.879 107.003 151.294C107.731 151.713 108.678 151.97 109.696 152.022L134.628 151.92C134.745 151.926 134.863 151.933 134.985 151.929L141.899 151.899C142.531 151.897 143.147 151.796 143.693 151.607C144.239 151.417 144.686 151.149 144.993 150.827C145.283 150.522 145.438 150.186 145.435 149.841L145.48 145.806C145.48 145.765 145.469 145.724 145.469 145.683L145.645 131.004C145.655 130.488 145.325 129.993 144.726 129.622C144.412 129.335 143.981 129.104 143.473 128.945C142.965 128.786 142.398 128.702 141.812 128.703L129.097 128.753C127.27 128.759 125.788 129.631 125.779 130.698L125.743 134.959C125.735 136.025 127.214 136.89 129.047 136.881C129.386 136.88 129.731 136.917 130.047 136.991C130.362 137.065 130.648 137.177 130.893 137.32C131.132 137.46 131.323 137.627 131.456 137.814C131.584 137.999 131.652 138.197 131.645 138.399L131.595 142.286C131.591 142.69 131.307 143.08 130.813 143.369C130.319 143.658 129.656 143.82 128.959 143.826L122.338 143.855C121.999 143.856 121.654 143.819 121.338 143.745C121.023 143.67 120.737 143.558 120.492 143.416C120.247 143.273 120.061 143.109 119.928 142.921C119.801 142.737 119.732 142.539 119.74 142.337" fill="#151C28"/>
</g>
<g filter="url(#filter1_bdd_79_3335)">
<path d="M156.066 34.4325C148.881 30.2845 143.244 27.0306 138.327 24.6708C138.076 24.5503 137.827 24.4322 137.579 24.3164C131.432 21.4388 126.374 20 120.711 20C115.048 20 109.989 21.4388 103.842 24.3164C103.595 24.4322 103.345 24.5503 103.094 24.6708C98.177 27.0306 92.5406 30.2845 85.3553 34.4325L50 54.8431C42.8147 58.9912 37.1783 62.2451 33.0908 65.0839C32.8821 65.2288 32.6774 65.3726 32.4768 65.5155C27.4923 69.0643 25 71.9845 25 75.2538C25 78.5231 27.4923 81.4432 32.4768 84.9921C32.6774 85.1349 32.8821 85.2788 33.0908 85.4237C37.1783 88.2625 42.8148 91.5164 50 95.6644L85.3553 116.075C92.5406 120.223 98.177 123.477 103.094 125.837C103.345 125.957 103.595 126.075 103.842 126.191C109.989 129.069 115.048 130.508 120.711 130.508C126.374 130.508 131.432 129.069 137.579 126.191C137.827 126.075 138.076 125.957 138.327 125.837C143.244 123.477 148.881 120.223 156.066 116.075L191.421 95.6644C198.607 91.5164 204.243 88.2624 208.331 85.4237C208.539 85.2787 208.744 85.1349 208.945 84.9921C213.929 81.4432 216.421 78.5231 216.421 75.2538C216.421 71.9845 213.929 69.0643 208.945 65.5155C208.744 65.3726 208.539 65.2288 208.331 65.0839C204.243 62.2451 198.607 58.9912 191.421 54.8431L156.066 34.4325Z" fill="#6226D9" fill-opacity="0.5" shape-rendering="crispEdges"/>
<path d="M138.219 24.8962C143.126 27.2509 148.753 30.4993 155.941 34.649L191.296 55.0597C198.485 59.2099 204.111 62.4578 208.188 65.2892C208.396 65.4336 208.6 65.5769 208.8 65.7191C213.787 69.27 216.171 72.1233 216.171 75.2538C216.171 78.3842 213.787 81.2375 208.8 84.7884C208.6 84.9306 208.396 85.0739 208.188 85.2183C204.111 88.0497 198.485 91.2977 191.296 95.4479L155.941 115.859C148.753 120.008 143.126 123.257 138.219 125.611C137.968 125.732 137.72 125.849 137.473 125.965C131.347 128.833 126.325 130.258 120.711 130.258C115.096 130.258 110.075 128.833 103.948 125.965C103.701 125.849 103.453 125.732 103.202 125.611C98.2957 123.257 92.6685 120.008 85.4803 115.859L50.125 95.4479C42.936 91.2977 37.3103 88.0498 33.2334 85.2184C33.0254 85.074 32.8216 84.9307 32.6218 84.7884C27.6343 81.2375 25.25 78.3842 25.25 75.2538C25.25 72.1233 27.6343 69.27 32.6218 65.7191C32.8216 65.5769 33.0254 65.4336 33.2334 65.2892C37.3103 62.4578 42.9359 59.2099 50.125 55.0597L85.4803 34.649C92.6685 30.4993 98.2957 27.2509 103.202 24.8962C103.453 24.776 103.701 24.6582 103.948 24.5428C110.075 21.6748 115.096 20.25 120.711 20.25C126.325 20.25 131.347 21.6748 137.473 24.5428C137.72 24.6582 137.969 24.776 138.219 24.8962Z" stroke="url(#paint0_linear_79_3335)" stroke-width="0.5" shape-rendering="crispEdges"/>
</g>
<g filter="url(#filter2_d_79_3335)">
<path d="M121.516 100.166L121.63 76.7111C121.517 75.851 120.99 75.1267 120.124 74.6083C119.237 74.0777 117.997 73.7629 116.481 73.7388L113.748 73.7432C109.321 73.7093 109.141 74.7767 109.178 76.5559L109.128 87.0359C109.124 87.7206 108.16 88.2772 106.974 88.2792L89.0766 88.3081L89.0754 88.3081C87.6259 88.3154 86.2311 88.6519 85.1949 89.2501C84.164 89.8452 83.5759 90.6535 83.5632 91.4903L83.5504 92.3392C83.5376 93.176 84.214 93.9154 85.2343 94.5045C86.2546 95.0935 87.4221 95.5013 88.8768 95.497L106.635 95.4683C107.822 95.4664 108.78 96.0199 108.777 96.7046L108.724 107.55C108.723 107.893 108.962 108.202 109.349 108.426C109.737 108.65 110.273 108.788 110.866 108.787L142.409 108.736C143.595 108.734 144.559 108.177 144.562 107.492L144.651 89.2827C144.652 88.9403 144.413 88.6308 144.026 88.407C143.638 88.1833 143.102 88.0454 142.509 88.0464L129.189 88.0679C128.003 88.0698 127.039 88.6265 127.035 89.3112L127.012 94.1956C127.008 94.8803 127.967 95.4338 129.153 95.4319L129.718 95.431C130.904 95.429 131.862 95.9826 131.859 96.6673L131.842 100.149C131.839 100.834 130.875 101.39 129.689 101.392L123.658 101.402C122.471 101.404 121.513 100.85 121.516 100.166Z" fill="white"/>
</g>
<path d="M250.293 98.2647C250.005 98.2647 249.765 98.1687 249.573 97.9767C249.381 97.7847 249.285 97.5447 249.285 97.2567C249.285 97.1607 249.301 97.0647 249.333 96.9687C249.365 96.8727 249.397 96.7767 249.429 96.6807L260.181 81.1287L250.101 66.2487C250.005 66.0567 249.957 65.8647 249.957 65.6727C249.957 65.3847 250.053 65.1447 250.245 64.9527C250.437 64.7607 250.661 64.6647 250.917 64.6647H255.861C256.245 64.6647 256.549 64.7607 256.773 64.9527C256.997 65.1447 257.189 65.3527 257.349 65.5767L264.405 75.9447L271.509 65.5767C271.637 65.3527 271.813 65.1447 272.037 64.9527C272.293 64.7607 272.613 64.6647 272.997 64.6647H277.653C277.941 64.6647 278.181 64.7607 278.373 64.9527C278.565 65.1447 278.661 65.3847 278.661 65.6727C278.661 65.8647 278.597 66.0567 278.469 66.2487L268.437 81.1287L279.189 96.6807C279.253 96.7767 279.301 96.8727 279.333 96.9687C279.365 97.0647 279.381 97.1607 279.381 97.2567C279.381 97.5447 279.269 97.7847 279.045 97.9767C278.853 98.1687 278.629 98.2647 278.373 98.2647H273.285C272.901 98.2647 272.597 98.1687 272.373 97.9767C272.149 97.7847 271.973 97.5927 271.845 97.4007L264.165 86.5527L256.629 97.4007C256.501 97.5927 256.325 97.7847 256.101 97.9767C255.877 98.1687 255.557 98.2647 255.141 98.2647H250.293ZM285.099 98.2647C284.779 98.2647 284.507 98.1527 284.283 97.9287C284.059 97.7047 283.947 97.4327 283.947 97.1127V65.8167C283.947 65.4967 284.059 65.2247 284.283 65.0007C284.507 64.7767 284.779 64.6647 285.099 64.6647H289.563C289.883 64.6647 290.155 64.7767 290.379 65.0007C290.603 65.2247 290.715 65.4967 290.715 65.8167V92.5527H305.931C306.283 92.5527 306.571 92.6647 306.795 92.8887C307.019 93.1127 307.131 93.4007 307.131 93.7527V97.1127C307.131 97.4327 307.019 97.7047 306.795 97.9287C306.571 98.1527 306.283 98.2647 305.931 98.2647H285.099ZM333.204 98.7447C330.228 98.7447 327.732 98.3127 325.716 97.4487C323.732 96.5527 322.212 95.4007 321.156 93.9927C320.132 92.5527 319.588 91.0487 319.524 89.4807C319.524 89.1927 319.62 88.9527 319.812 88.7607C320.004 88.5687 320.244 88.4727 320.532 88.4727H324.804C325.22 88.4727 325.524 88.5687 325.716 88.7607C325.94 88.9207 326.132 89.1287 326.292 89.3847C326.484 89.9927 326.852 90.6007 327.396 91.2087C327.94 91.7847 328.676 92.2647 329.604 92.6487C330.564 93.0327 331.764 93.2247 333.204 93.2247C335.508 93.2247 337.22 92.8407 338.34 92.0727C339.492 91.3047 340.068 90.2647 340.068 88.9527C340.068 88.0247 339.764 87.2887 339.156 86.7447C338.548 86.1687 337.604 85.6567 336.324 85.2087C335.076 84.7287 333.412 84.2327 331.332 83.7207C328.932 83.1447 326.916 82.4567 325.284 81.6567C323.684 80.8247 322.468 79.7847 321.636 78.5367C320.836 77.2887 320.436 75.7047 320.436 73.7847C320.436 71.9287 320.932 70.2807 321.924 68.8407C322.948 67.4007 324.388 66.2647 326.244 65.4327C328.132 64.6007 330.372 64.1847 332.964 64.1847C335.044 64.1847 336.884 64.4727 338.484 65.0487C340.084 65.5927 341.412 66.3287 342.468 67.2567C343.524 68.1527 344.324 69.1287 344.868 70.1847C345.444 71.2087 345.748 72.2167 345.78 73.2087C345.78 73.4647 345.684 73.7047 345.492 73.9287C345.332 74.1207 345.092 74.2167 344.772 74.2167H340.308C340.052 74.2167 339.796 74.1527 339.54 74.0247C339.284 73.8967 339.076 73.6567 338.916 73.3047C338.724 72.3127 338.1 71.4647 337.044 70.7607C335.988 70.0567 334.628 69.7047 332.964 69.7047C331.236 69.7047 329.844 70.0247 328.788 70.6647C327.732 71.3047 327.204 72.2967 327.204 73.6407C327.204 74.5367 327.46 75.2887 327.972 75.8967C328.516 76.4727 329.364 76.9847 330.516 77.4327C331.7 77.8807 333.252 78.3607 335.172 78.8727C337.892 79.4807 340.116 80.1847 341.844 80.9847C343.572 81.7847 344.836 82.8087 345.636 84.0567C346.436 85.2727 346.836 86.8247 346.836 88.7127C346.836 90.8247 346.26 92.6327 345.108 94.1367C343.988 95.6087 342.404 96.7447 340.356 97.5447C338.308 98.3447 335.924 98.7447 333.204 98.7447ZM362.801 98.7447C360.241 98.7447 358.081 98.2967 356.321 97.4007C354.593 96.5047 353.265 95.2407 352.337 93.6087C351.441 91.9767 350.929 90.0727 350.801 87.8967C350.769 87.3207 350.753 86.6167 350.753 85.7847C350.753 84.9527 350.769 84.2487 350.801 83.6727C350.929 81.4647 351.457 79.5607 352.385 77.9607C353.345 76.3287 354.689 75.0647 356.417 74.1687C358.177 73.2727 360.305 72.8247 362.801 72.8247C365.297 72.8247 367.409 73.2727 369.137 74.1687C370.897 75.0647 372.241 76.3287 373.169 77.9607C374.129 79.5607 374.673 81.4647 374.801 83.6727C374.833 84.2487 374.849 84.9527 374.849 85.7847C374.849 86.6167 374.833 87.3207 374.801 87.8967C374.673 90.0727 374.145 91.9767 373.217 93.6087C372.321 95.2407 370.993 96.5047 369.233 97.4007C367.505 98.2967 365.361 98.7447 362.801 98.7447ZM362.801 93.9927C364.497 93.9927 365.809 93.4647 366.737 92.4087C367.665 91.3207 368.177 89.7367 368.273 87.6567C368.305 87.1767 368.321 86.5527 368.321 85.7847C368.321 85.0167 368.305 84.3927 368.273 83.9127C368.177 81.8647 367.665 80.2967 366.737 79.2087C365.809 78.1207 364.497 77.5767 362.801 77.5767C361.105 77.5767 359.793 78.1207 358.865 79.2087C357.937 80.2967 357.425 81.8647 357.329 83.9127C357.297 84.3927 357.281 85.0167 357.281 85.7847C357.281 86.5527 357.297 87.1767 357.329 87.6567C357.425 89.7367 357.937 91.3207 358.865 92.4087C359.793 93.4647 361.105 93.9927 362.801 93.9927ZM383.726 98.2647C383.406 98.2647 383.134 98.1527 382.91 97.9287C382.686 97.7047 382.574 97.4327 382.574 97.1127V78.3927H378.686C378.366 78.3927 378.094 78.2807 377.87 78.0567C377.646 77.8327 377.534 77.5607 377.534 77.2407V74.4567C377.534 74.1367 377.646 73.8647 377.87 73.6407C378.094 73.4167 378.366 73.3047 378.686 73.3047H382.574V71.3367C382.574 69.4167 382.926 67.8327 383.63 66.5847C384.334 65.3047 385.374 64.3447 386.75 63.7047C388.126 63.0647 389.87 62.7447 391.982 62.7447H395.246C395.598 62.7447 395.87 62.8567 396.062 63.0807C396.286 63.3047 396.398 63.5767 396.398 63.8967V66.6807C396.398 67.0007 396.286 67.2727 396.062 67.4967C395.87 67.7207 395.598 67.8327 395.246 67.8327H392.174C390.894 67.8327 390.014 68.1527 389.534 68.7927C389.054 69.4327 388.814 70.3607 388.814 71.5767V73.3047H394.766C395.118 73.3047 395.39 73.4167 395.582 73.6407C395.806 73.8647 395.918 74.1367 395.918 74.4567V77.2407C395.918 77.5607 395.806 77.8327 395.582 78.0567C395.39 78.2807 395.118 78.3927 394.766 78.3927H388.814V97.1127C388.814 97.4327 388.702 97.7047 388.478 97.9287C388.254 98.1527 387.982 98.2647 387.662 98.2647H383.726ZM411.041 98.2647C409.121 98.2647 407.505 97.9287 406.193 97.2567C404.881 96.5847 403.905 95.5927 403.265 94.2807C402.625 92.9367 402.305 91.2727 402.305 89.2887V78.3927H398.513C398.193 78.3927 397.921 78.2807 397.697 78.0567C397.473 77.8327 397.361 77.5607 397.361 77.2407V74.4567C397.361 74.1367 397.473 73.8647 397.697 73.6407C397.921 73.4167 398.193 73.3047 398.513 73.3047H402.305V65.3367C402.305 65.0167 402.401 64.7447 402.593 64.5207C402.817 64.2967 403.105 64.1847 403.457 64.1847H407.345C407.665 64.1847 407.937 64.2967 408.161 64.5207C408.385 64.7447 408.497 65.0167 408.497 65.3367V73.3047H414.497C414.817 73.3047 415.089 73.4167 415.313 73.6407C415.537 73.8647 415.649 74.1367 415.649 74.4567V77.2407C415.649 77.5607 415.537 77.8327 415.313 78.0567C415.089 78.2807 414.817 78.3927 414.497 78.3927H408.497V88.8087C408.497 90.1207 408.721 91.1447 409.169 91.8807C409.649 92.6167 410.465 92.9847 411.617 92.9847H414.929C415.249 92.9847 415.521 93.0967 415.745 93.3207C415.969 93.5447 416.081 93.8167 416.081 94.1367V97.1127C416.081 97.4327 415.969 97.7047 415.745 97.9287C415.521 98.1527 415.249 98.2647 414.929 98.2647H411.041ZM427.155 98.2647C426.707 98.2647 426.371 98.1527 426.147 97.9287C425.923 97.7047 425.731 97.4167 425.571 97.0647L418.707 74.7927C418.675 74.6327 418.659 74.4887 418.659 74.3607C418.659 74.0727 418.755 73.8327 418.947 73.6407C419.171 73.4167 419.411 73.3047 419.667 73.3047H423.219C423.603 73.3047 423.907 73.4167 424.131 73.6407C424.355 73.8327 424.483 74.0247 424.515 74.2167L429.219 90.1047L434.211 74.3607C434.275 74.1367 434.419 73.9127 434.643 73.6887C434.867 73.4327 435.203 73.3047 435.651 73.3047H438.051C438.499 73.3047 438.835 73.4327 439.059 73.6887C439.283 73.9127 439.427 74.1367 439.491 74.3607L444.483 90.1047L449.187 74.2167C449.219 74.0247 449.331 73.8327 449.523 73.6407C449.747 73.4167 450.051 73.3047 450.435 73.3047H453.987C454.275 73.3047 454.515 73.4167 454.707 73.6407C454.931 73.8327 455.043 74.0727 455.043 74.3607C455.043 74.4887 455.011 74.6327 454.947 74.7927L448.083 97.0647C447.987 97.4167 447.811 97.7047 447.555 97.9287C447.331 98.1527 446.995 98.2647 446.547 98.2647H443.427C442.979 98.2647 442.627 98.1527 442.371 97.9287C442.115 97.7047 441.939 97.4167 441.843 97.0647L436.851 81.8967L431.859 97.0647C431.731 97.4167 431.539 97.7047 431.283 97.9287C431.059 98.1527 430.707 98.2647 430.227 98.2647H427.155ZM466.212 98.7447C464.548 98.7447 463.044 98.4247 461.7 97.7847C460.356 97.1127 459.284 96.2327 458.484 95.1447C457.716 94.0247 457.332 92.7767 457.332 91.4007C457.332 89.1607 458.228 87.3847 460.02 86.0727C461.844 84.7287 464.244 83.8327 467.22 83.3847L473.796 82.4247V81.4167C473.796 80.0727 473.46 79.0327 472.788 78.2967C472.116 77.5607 470.964 77.1927 469.332 77.1927C468.18 77.1927 467.236 77.4327 466.5 77.9127C465.796 78.3607 465.268 78.9687 464.916 79.7367C464.66 80.1527 464.292 80.3607 463.812 80.3607H460.02C459.668 80.3607 459.396 80.2647 459.204 80.0727C459.044 79.8807 458.964 79.6247 458.964 79.3047C458.996 78.7927 459.204 78.1687 459.588 77.4327C459.972 76.6967 460.58 75.9927 461.412 75.3207C462.244 74.6167 463.316 74.0247 464.628 73.5447C465.94 73.0647 467.524 72.8247 469.38 72.8247C471.396 72.8247 473.092 73.0807 474.468 73.5927C475.876 74.0727 476.996 74.7287 477.828 75.5607C478.66 76.3927 479.268 77.3687 479.652 78.4887C480.036 79.6087 480.228 80.7927 480.228 82.0407V97.1127C480.228 97.4327 480.116 97.7047 479.892 97.9287C479.668 98.1527 479.396 98.2647 479.076 98.2647H475.188C474.836 98.2647 474.548 98.1527 474.324 97.9287C474.132 97.7047 474.036 97.4327 474.036 97.1127V95.2407C473.62 95.8487 473.06 96.4247 472.356 96.9687C471.652 97.4807 470.788 97.9127 469.764 98.2647C468.772 98.5847 467.588 98.7447 466.212 98.7447ZM467.844 94.1847C468.964 94.1847 469.972 93.9447 470.868 93.4647C471.796 92.9847 472.516 92.2487 473.028 91.2567C473.572 90.2327 473.844 88.9527 473.844 87.4167V86.4087L469.044 87.1767C467.156 87.4647 465.748 87.9287 464.82 88.5687C463.892 89.2087 463.428 89.9927 463.428 90.9207C463.428 91.6247 463.636 92.2327 464.052 92.7447C464.5 93.2247 465.06 93.5927 465.732 93.8487C466.404 94.0727 467.108 94.1847 467.844 94.1847ZM487.538 98.2647C487.218 98.2647 486.946 98.1527 486.722 97.9287C486.498 97.7047 486.386 97.4327 486.386 97.1127V74.5047C486.386 74.1527 486.498 73.8647 486.722 73.6407C486.946 73.4167 487.218 73.3047 487.538 73.3047H491.426C491.746 73.3047 492.018 73.4167 492.242 73.6407C492.498 73.8647 492.626 74.1527 492.626 74.5047V76.4727C493.362 75.4487 494.306 74.6647 495.458 74.1207C496.642 73.5767 498.002 73.3047 499.538 73.3047H501.506C501.858 73.3047 502.13 73.4167 502.322 73.6407C502.546 73.8647 502.658 74.1367 502.658 74.4567V77.9127C502.658 78.2327 502.546 78.5047 502.322 78.7287C502.13 78.9527 501.858 79.0647 501.506 79.0647H497.762C496.226 79.0647 495.026 79.4967 494.162 80.3607C493.33 81.2247 492.914 82.4087 492.914 83.9127V97.1127C492.914 97.4327 492.802 97.7047 492.578 97.9287C492.354 98.1527 492.066 98.2647 491.714 98.2647H487.538ZM516.826 98.7447C513.274 98.7447 510.458 97.7207 508.378 95.6727C506.298 93.6247 505.178 90.7127 505.018 86.9367C504.986 86.6167 504.97 86.2167 504.97 85.7367C504.97 85.2247 504.986 84.8247 505.018 84.5367C505.146 82.1367 505.69 80.0567 506.65 78.2967C507.642 76.5367 509.002 75.1927 510.73 74.2647C512.458 73.3047 514.49 72.8247 516.826 72.8247C519.418 72.8247 521.594 73.3687 523.354 74.4567C525.114 75.5127 526.442 77.0007 527.338 78.9207C528.234 80.8087 528.682 83.0007 528.682 85.4967V86.5047C528.682 86.8247 528.57 87.0967 528.346 87.3207C528.122 87.5447 527.834 87.6567 527.482 87.6567H511.546C511.546 87.6567 511.546 87.7047 511.546 87.8007C511.546 87.8967 511.546 87.9767 511.546 88.0407C511.578 89.1607 511.786 90.2007 512.17 91.1607C512.586 92.0887 513.178 92.8407 513.946 93.4167C514.746 93.9927 515.69 94.2807 516.778 94.2807C517.674 94.2807 518.426 94.1527 519.034 93.8967C519.642 93.6087 520.138 93.2887 520.522 92.9367C520.906 92.5847 521.178 92.2967 521.338 92.0727C521.626 91.6887 521.85 91.4647 522.01 91.4007C522.202 91.3047 522.474 91.2567 522.826 91.2567H526.954C527.274 91.2567 527.53 91.3527 527.722 91.5447C527.946 91.7367 528.042 91.9767 528.01 92.2647C527.978 92.7767 527.706 93.4007 527.194 94.1367C526.714 94.8727 526.01 95.5927 525.082 96.2967C524.154 97.0007 522.986 97.5927 521.578 98.0727C520.202 98.5207 518.618 98.7447 516.826 98.7447ZM511.546 83.6247H522.154V83.4807C522.154 82.2327 521.946 81.1447 521.53 80.2167C521.114 79.2887 520.506 78.5527 519.706 78.0087C518.906 77.4647 517.946 77.1927 516.826 77.1927C515.706 77.1927 514.746 77.4647 513.946 78.0087C513.146 78.5527 512.538 79.2887 512.122 80.2167C511.738 81.1447 511.546 82.2327 511.546 83.4807V83.6247ZM558.714 98.7447C555.93 98.7447 553.514 98.2807 551.466 97.3527C549.418 96.3927 547.834 94.9367 546.714 92.9847C545.594 91.0007 545.034 88.4727 545.034 85.4007V65.8647C545.034 65.5127 545.146 65.2247 545.37 65.0007C545.594 64.7767 545.866 64.6647 546.186 64.6647H550.554C550.906 64.6647 551.178 64.7767 551.37 65.0007C551.594 65.2247 551.706 65.5127 551.706 65.8647V85.4007C551.706 88.0247 552.33 89.9767 553.578 91.2567C554.826 92.5047 556.538 93.1287 558.714 93.1287C560.89 93.1287 562.586 92.5047 563.802 91.2567C565.05 89.9767 565.674 88.0247 565.674 85.4007V65.8647C565.674 65.5127 565.786 65.2247 566.01 65.0007C566.234 64.7767 566.522 64.6647 566.874 64.6647H571.194C571.546 64.6647 571.818 64.7767 572.01 65.0007C572.234 65.2247 572.346 65.5127 572.346 65.8647V85.4007C572.346 88.4727 571.786 91.0007 570.666 92.9847C569.578 94.9367 568.01 96.3927 565.962 97.3527C563.946 98.2807 561.53 98.7447 558.714 98.7447ZM580.692 98.2647C580.372 98.2647 580.1 98.1527 579.876 97.9287C579.652 97.7047 579.54 97.4327 579.54 97.1127V65.8167C579.54 65.4967 579.652 65.2247 579.876 65.0007C580.1 64.7767 580.372 64.6647 580.692 64.6647H585.204C585.556 64.6647 585.828 64.7767 586.02 65.0007C586.244 65.2247 586.356 65.4967 586.356 65.8167V97.1127C586.356 97.4327 586.244 97.7047 586.02 97.9287C585.828 98.1527 585.556 98.2647 585.204 98.2647H580.692Z" fill="white"/>
<path d="M256.501 134.465C255.421 134.465 254.501 134.291 253.741 133.945C252.995 133.598 252.421 133.151 252.021 132.605C251.621 132.058 251.408 131.478 251.381 130.865C251.381 130.758 251.421 130.665 251.501 130.585C251.581 130.505 251.681 130.465 251.801 130.465H252.201C252.335 130.465 252.435 130.505 252.501 130.585C252.581 130.665 252.628 130.758 252.641 130.865C252.695 131.238 252.861 131.611 253.141 131.985C253.421 132.345 253.835 132.651 254.381 132.905C254.928 133.145 255.635 133.265 256.501 133.265C257.808 133.265 258.761 133.031 259.361 132.565C259.961 132.085 260.261 131.445 260.261 130.645C260.261 130.111 260.101 129.685 259.781 129.365C259.475 129.031 259.001 128.738 258.361 128.485C257.721 128.218 256.901 127.925 255.901 127.605C254.955 127.298 254.175 126.985 253.561 126.665C252.948 126.331 252.495 125.931 252.201 125.465C251.921 124.998 251.781 124.398 251.781 123.665C251.781 122.985 251.961 122.378 252.321 121.845C252.681 121.298 253.201 120.865 253.881 120.545C254.575 120.225 255.415 120.065 256.401 120.065C257.188 120.065 257.875 120.171 258.461 120.385C259.048 120.598 259.535 120.885 259.921 121.245C260.308 121.591 260.601 121.971 260.801 122.385C261.001 122.785 261.108 123.178 261.121 123.565C261.121 123.658 261.088 123.751 261.021 123.845C260.955 123.925 260.848 123.965 260.701 123.965H260.301C260.235 123.965 260.148 123.938 260.041 123.885C259.948 123.831 259.888 123.725 259.861 123.565C259.781 122.898 259.428 122.351 258.801 121.925C258.188 121.485 257.388 121.265 256.401 121.265C255.415 121.265 254.608 121.458 253.981 121.845C253.355 122.231 253.041 122.838 253.041 123.665C253.041 124.198 253.181 124.638 253.461 124.985C253.741 125.318 254.181 125.618 254.781 125.885C255.381 126.138 256.155 126.418 257.101 126.725C258.101 127.045 258.928 127.365 259.581 127.685C260.235 128.005 260.721 128.398 261.041 128.865C261.361 129.318 261.521 129.911 261.521 130.645C261.521 131.458 261.315 132.151 260.901 132.725C260.501 133.285 259.928 133.718 259.181 134.025C258.435 134.318 257.541 134.465 256.501 134.465ZM268.611 134.465C267.531 134.465 266.611 134.291 265.851 133.945C265.104 133.598 264.531 133.151 264.131 132.605C263.731 132.058 263.517 131.478 263.491 130.865C263.491 130.758 263.531 130.665 263.611 130.585C263.691 130.505 263.791 130.465 263.911 130.465H264.311C264.444 130.465 264.544 130.505 264.611 130.585C264.691 130.665 264.737 130.758 264.751 130.865C264.804 131.238 264.971 131.611 265.251 131.985C265.531 132.345 265.944 132.651 266.491 132.905C267.037 133.145 267.744 133.265 268.611 133.265C269.917 133.265 270.871 133.031 271.471 132.565C272.071 132.085 272.371 131.445 272.371 130.645C272.371 130.111 272.211 129.685 271.891 129.365C271.584 129.031 271.111 128.738 270.471 128.485C269.831 128.218 269.011 127.925 268.011 127.605C267.064 127.298 266.284 126.985 265.671 126.665C265.057 126.331 264.604 125.931 264.311 125.465C264.031 124.998 263.891 124.398 263.891 123.665C263.891 122.985 264.071 122.378 264.431 121.845C264.791 121.298 265.311 120.865 265.991 120.545C266.684 120.225 267.524 120.065 268.511 120.065C269.297 120.065 269.984 120.171 270.571 120.385C271.157 120.598 271.644 120.885 272.031 121.245C272.417 121.591 272.711 121.971 272.911 122.385C273.111 122.785 273.217 123.178 273.231 123.565C273.231 123.658 273.197 123.751 273.131 123.845C273.064 123.925 272.957 123.965 272.811 123.965H272.411C272.344 123.965 272.257 123.938 272.151 123.885C272.057 123.831 271.997 123.725 271.971 123.565C271.891 122.898 271.537 122.351 270.911 121.925C270.297 121.485 269.497 121.265 268.511 121.265C267.524 121.265 266.717 121.458 266.091 121.845C265.464 122.231 265.151 122.838 265.151 123.665C265.151 124.198 265.291 124.638 265.571 124.985C265.851 125.318 266.291 125.618 266.891 125.885C267.491 126.138 268.264 126.418 269.211 126.725C270.211 127.045 271.037 127.365 271.691 127.685C272.344 128.005 272.831 128.398 273.151 128.865C273.471 129.318 273.631 129.911 273.631 130.645C273.631 131.458 273.424 132.151 273.011 132.725C272.611 133.285 272.037 133.718 271.291 134.025C270.544 134.318 269.651 134.465 268.611 134.465ZM276.96 134.265C276.827 134.265 276.72 134.225 276.64 134.145C276.56 134.065 276.52 133.958 276.52 133.825V120.725C276.52 120.578 276.56 120.465 276.64 120.385C276.72 120.305 276.827 120.265 276.96 120.265H281.62C283.02 120.265 284.133 120.598 284.96 121.265C285.8 121.931 286.22 122.945 286.22 124.305C286.22 125.371 285.953 126.225 285.42 126.865C284.887 127.505 284.147 127.938 283.2 128.165L286.42 133.645C286.46 133.725 286.48 133.798 286.48 133.865C286.48 133.971 286.44 134.065 286.36 134.145C286.28 134.225 286.187 134.265 286.08 134.265H285.84C285.627 134.265 285.467 134.211 285.36 134.105C285.253 133.985 285.16 133.858 285.08 133.725L281.9 128.345H277.78V133.825C277.78 133.958 277.74 134.065 277.66 134.145C277.58 134.225 277.467 134.265 277.32 134.265H276.96ZM277.78 127.145H281.52C282.68 127.145 283.54 126.911 284.1 126.445C284.673 125.965 284.96 125.251 284.96 124.305C284.96 123.358 284.673 122.651 284.1 122.185C283.54 121.705 282.68 121.465 281.52 121.465H277.78V127.145ZM298.669 134.465C297.589 134.465 296.669 134.291 295.909 133.945C295.163 133.598 294.589 133.151 294.189 132.605C293.789 132.058 293.576 131.478 293.549 130.865C293.549 130.758 293.589 130.665 293.669 130.585C293.749 130.505 293.849 130.465 293.969 130.465H294.369C294.503 130.465 294.603 130.505 294.669 130.585C294.749 130.665 294.796 130.758 294.809 130.865C294.863 131.238 295.029 131.611 295.309 131.985C295.589 132.345 296.003 132.651 296.549 132.905C297.096 133.145 297.803 133.265 298.669 133.265C299.976 133.265 300.929 133.031 301.529 132.565C302.129 132.085 302.429 131.445 302.429 130.645C302.429 130.111 302.269 129.685 301.949 129.365C301.643 129.031 301.169 128.738 300.529 128.485C299.889 128.218 299.069 127.925 298.069 127.605C297.123 127.298 296.343 126.985 295.729 126.665C295.116 126.331 294.663 125.931 294.369 125.465C294.089 124.998 293.949 124.398 293.949 123.665C293.949 122.985 294.129 122.378 294.489 121.845C294.849 121.298 295.369 120.865 296.049 120.545C296.743 120.225 297.583 120.065 298.569 120.065C299.356 120.065 300.043 120.171 300.629 120.385C301.216 120.598 301.703 120.885 302.089 121.245C302.476 121.591 302.769 121.971 302.969 122.385C303.169 122.785 303.276 123.178 303.289 123.565C303.289 123.658 303.256 123.751 303.189 123.845C303.123 123.925 303.016 123.965 302.869 123.965H302.469C302.403 123.965 302.316 123.938 302.209 123.885C302.116 123.831 302.056 123.725 302.029 123.565C301.949 122.898 301.596 122.351 300.969 121.925C300.356 121.485 299.556 121.265 298.569 121.265C297.583 121.265 296.776 121.458 296.149 121.845C295.523 122.231 295.209 122.838 295.209 123.665C295.209 124.198 295.349 124.638 295.629 124.985C295.909 125.318 296.349 125.618 296.949 125.885C297.549 126.138 298.323 126.418 299.269 126.725C300.269 127.045 301.096 127.365 301.749 127.685C302.403 128.005 302.889 128.398 303.209 128.865C303.529 129.318 303.689 129.911 303.689 130.645C303.689 131.458 303.483 132.151 303.069 132.725C302.669 133.285 302.096 133.718 301.349 134.025C300.603 134.318 299.709 134.465 298.669 134.465ZM310.33 134.265C310.157 134.265 310.017 134.225 309.91 134.145C309.803 134.065 309.717 133.945 309.65 133.785L305.01 120.885C304.983 120.805 304.97 120.731 304.97 120.665C304.97 120.558 305.01 120.465 305.09 120.385C305.17 120.305 305.263 120.265 305.37 120.265H305.79C305.923 120.265 306.023 120.305 306.09 120.385C306.17 120.451 306.217 120.511 306.23 120.565L310.61 132.805L314.99 120.565C315.017 120.511 315.063 120.451 315.13 120.385C315.197 120.305 315.297 120.265 315.43 120.265H315.85C315.957 120.265 316.05 120.305 316.13 120.385C316.21 120.465 316.25 120.558 316.25 120.665C316.25 120.731 316.237 120.805 316.21 120.885L311.57 133.785C311.517 133.945 311.437 134.065 311.33 134.145C311.223 134.225 311.077 134.265 310.89 134.265H310.33ZM319.304 134.265C319.171 134.265 319.064 134.225 318.984 134.145C318.904 134.065 318.864 133.958 318.864 133.825V120.725C318.864 120.578 318.904 120.465 318.984 120.385C319.064 120.305 319.171 120.265 319.304 120.265H327.104C327.251 120.265 327.364 120.305 327.444 120.385C327.524 120.465 327.564 120.578 327.564 120.725V121.025C327.564 121.158 327.524 121.265 327.444 121.345C327.364 121.425 327.251 121.465 327.104 121.465H320.124V126.565H326.664C326.811 126.565 326.924 126.605 327.004 126.685C327.084 126.765 327.124 126.878 327.124 127.025V127.325C327.124 127.458 327.084 127.565 327.004 127.645C326.924 127.725 326.811 127.765 326.664 127.765H320.124V133.065H327.264C327.411 133.065 327.524 133.105 327.604 133.185C327.684 133.265 327.724 133.378 327.724 133.525V133.825C327.724 133.958 327.684 134.065 327.604 134.145C327.524 134.225 327.411 134.265 327.264 134.265H319.304ZM331.14 134.265C331.006 134.265 330.9 134.225 330.82 134.145C330.74 134.065 330.7 133.958 330.7 133.825V120.705C330.7 120.571 330.74 120.465 330.82 120.385C330.9 120.305 331.006 120.265 331.14 120.265H331.52C331.653 120.265 331.76 120.305 331.84 120.385C331.92 120.465 331.96 120.571 331.96 120.705V133.065H338.86C339.006 133.065 339.12 133.105 339.2 133.185C339.28 133.265 339.32 133.378 339.32 133.525V133.825C339.32 133.958 339.28 134.065 339.2 134.145C339.12 134.225 339.006 134.265 338.86 134.265H331.14ZM342.676 134.265C342.543 134.265 342.436 134.225 342.356 134.145C342.276 134.065 342.236 133.958 342.236 133.825V121.465H338.276C338.143 121.465 338.036 121.425 337.956 121.345C337.876 121.265 337.836 121.158 337.836 121.025V120.725C337.836 120.578 337.876 120.465 337.956 120.385C338.036 120.305 338.143 120.265 338.276 120.265H347.436C347.583 120.265 347.696 120.305 347.776 120.385C347.856 120.465 347.896 120.578 347.896 120.725V121.025C347.896 121.158 347.856 121.265 347.776 121.345C347.696 121.425 347.583 121.465 347.436 121.465H343.496V133.825C343.496 133.958 343.456 134.065 343.376 134.145C343.296 134.225 343.183 134.265 343.036 134.265H342.676ZM350.749 134.265C350.616 134.265 350.509 134.225 350.429 134.145C350.349 134.065 350.309 133.958 350.309 133.825V120.725C350.309 120.578 350.349 120.465 350.429 120.385C350.509 120.305 350.616 120.265 350.749 120.265H358.549C358.696 120.265 358.809 120.305 358.889 120.385C358.969 120.465 359.009 120.578 359.009 120.725V121.025C359.009 121.158 358.969 121.265 358.889 121.345C358.809 121.425 358.696 121.465 358.549 121.465H351.569V126.565H358.109C358.256 126.565 358.369 126.605 358.449 126.685C358.529 126.765 358.569 126.878 358.569 127.025V127.325C358.569 127.458 358.529 127.565 358.449 127.645C358.369 127.725 358.256 127.765 358.109 127.765H351.569V133.065H358.709C358.856 133.065 358.969 133.105 359.049 133.185C359.129 133.265 359.169 133.378 359.169 133.525V133.825C359.169 133.958 359.129 134.065 359.049 134.145C358.969 134.225 358.856 134.265 358.709 134.265H350.749ZM372.341 134.465C371.261 134.465 370.335 134.265 369.561 133.865C368.801 133.465 368.215 132.851 367.801 132.025C367.388 131.198 367.181 130.138 367.181 128.845V120.725C367.181 120.578 367.221 120.465 367.301 120.385C367.381 120.305 367.488 120.265 367.621 120.265H367.981C368.128 120.265 368.241 120.305 368.321 120.385C368.401 120.465 368.441 120.578 368.441 120.725V128.905C368.441 130.398 368.788 131.498 369.481 132.205C370.188 132.911 371.141 133.265 372.341 133.265C373.528 133.265 374.468 132.911 375.161 132.205C375.868 131.498 376.221 130.398 376.221 128.905V120.725C376.221 120.578 376.261 120.465 376.341 120.385C376.435 120.305 376.548 120.265 376.681 120.265H377.041C377.175 120.265 377.281 120.305 377.361 120.385C377.441 120.465 377.481 120.578 377.481 120.725V128.845C377.481 130.138 377.275 131.198 376.861 132.025C376.461 132.851 375.881 133.465 375.121 133.865C374.361 134.265 373.435 134.465 372.341 134.465ZM381.57 134.265C381.436 134.265 381.33 134.225 381.25 134.145C381.17 134.065 381.13 133.958 381.13 133.825V120.705C381.13 120.571 381.17 120.465 381.25 120.385C381.33 120.305 381.436 120.265 381.57 120.265H381.95C382.083 120.265 382.19 120.305 382.27 120.385C382.35 120.465 382.39 120.571 382.39 120.705V133.825C382.39 133.958 382.35 134.065 382.27 134.145C382.19 134.225 382.083 134.265 381.95 134.265H381.57ZM391.345 128.845C391.212 128.845 391.105 128.805 391.025 128.725C390.945 128.645 390.905 128.538 390.905 128.405V128.125C390.905 127.991 390.945 127.885 391.025 127.805C391.105 127.725 391.212 127.685 391.345 127.685H397.245C397.379 127.685 397.485 127.725 397.565 127.805C397.645 127.885 397.685 127.991 397.685 128.125V128.405C397.685 128.538 397.645 128.645 397.565 128.725C397.485 128.805 397.379 128.845 397.245 128.845H391.345ZM406.648 134.265C406.514 134.265 406.408 134.225 406.328 134.145C406.248 134.065 406.208 133.958 406.208 133.825V120.725C406.208 120.578 406.248 120.465 406.328 120.385C406.408 120.305 406.514 120.265 406.648 120.265H407.008C407.154 120.265 407.268 120.305 407.348 120.385C407.428 120.465 407.468 120.578 407.468 120.725V125.925L413.528 120.565C413.581 120.525 413.668 120.465 413.788 120.385C413.908 120.305 414.074 120.265 414.288 120.265H414.608C414.714 120.265 414.808 120.305 414.888 120.385C414.968 120.465 415.008 120.558 415.008 120.665C415.008 120.771 414.974 120.858 414.908 120.925L408.128 126.965L415.328 133.585C415.408 133.665 415.448 133.758 415.448 133.865C415.448 133.971 415.408 134.065 415.328 134.145C415.248 134.225 415.154 134.265 415.048 134.265H414.708C414.494 134.265 414.328 134.225 414.208 134.145C414.088 134.065 414.001 134.005 413.948 133.965L407.468 128.045V133.825C407.468 133.958 407.428 134.065 407.348 134.145C407.268 134.225 407.154 134.265 407.008 134.265H406.648ZM418.152 134.265C418.018 134.265 417.912 134.225 417.832 134.145C417.752 134.065 417.712 133.958 417.712 133.825V120.705C417.712 120.571 417.752 120.465 417.832 120.385C417.912 120.305 418.018 120.265 418.152 120.265H418.532C418.665 120.265 418.772 120.305 418.852 120.385C418.932 120.465 418.972 120.571 418.972 120.705V133.825C418.972 133.958 418.932 134.065 418.852 134.145C418.772 134.225 418.665 134.265 418.532 134.265H418.152ZM426.231 134.265C426.098 134.265 425.991 134.225 425.911 134.145C425.831 134.065 425.791 133.958 425.791 133.825V121.465H421.831C421.698 121.465 421.591 121.425 421.511 121.345C421.431 121.265 421.391 121.158 421.391 121.025V120.725C421.391 120.578 421.431 120.465 421.511 120.385C421.591 120.305 421.698 120.265 421.831 120.265H430.991C431.138 120.265 431.251 120.305 431.331 120.385C431.411 120.465 431.451 120.578 431.451 120.725V121.025C431.451 121.158 431.411 121.265 431.331 121.345C431.251 121.425 431.138 121.465 430.991 121.465H427.051V133.825C427.051 133.958 427.011 134.065 426.931 134.145C426.851 134.225 426.738 134.265 426.591 134.265H426.231Z" fill="white"/>
<defs>
<filter id="filter0_f_79_3335" x="56.645" y="90.0217" width="113" height="86" filterUnits="userSpaceOnUse" color-interpolation-filters="sRGB">
<feFlood flood-opacity="0" result="BackgroundImageFix"/>
<feBlend mode="normal" in="SourceGraphic" in2="BackgroundImageFix" result="shape"/>
<feGaussianBlur stdDeviation="12" result="effect1_foregroundBlur_79_3335"/>
</filter>
<filter id="filter1_bdd_79_3335" x="0" y="0" width="241.421" height="168.508" filterUnits="userSpaceOnUse" color-interpolation-filters="sRGB">
<feFlood flood-opacity="0" result="BackgroundImageFix"/>
<feGaussianBlur in="BackgroundImageFix" stdDeviation="1.5"/>
<feComposite in2="SourceAlpha" operator="in" result="effect1_backgroundBlur_79_3335"/>
<feColorMatrix in="SourceAlpha" type="matrix" values="0 0 0 0 0 0 0 0 0 0 0 0 0 0 0 0 0 0 127 0" result="hardAlpha"/>
<feOffset dy="28"/>
<feGaussianBlur stdDeviation="5"/>
<feComposite in2="hardAlpha" operator="out"/>
<feColorMatrix type="matrix" values="0 0 0 0 0.0823529 0 0 0 0 0.109804 0 0 0 0 0.156863 0 0 0 0.25 0"/>
<feBlend mode="normal" in2="effect1_backgroundBlur_79_3335" result="effect2_dropShadow_79_3335"/>
<feColorMatrix in="SourceAlpha" type="matrix" values="0 0 0 0 0 0 0 0 0 0 0 0 0 0 0 0 0 0 127 0" result="hardAlpha"/>
<feOffset dy="5"/>
<feGaussianBlur stdDeviation="12.5"/>
<feColorMatrix type="matrix" values="0 0 0 0 0.384314 0 0 0 0 0.14902 0 0 0 0 0.85098 0 0 0 0.7 0"/>
<feBlend mode="soft-light" in2="effect2_dropShadow_79_3335" result="effect3_dropShadow_79_3335"/>
<feBlend mode="normal" in="SourceGraphic" in2="effect3_dropShadow_79_3335" result="shape"/>
</filter>
<filter id="filter2_d_79_3335" x="68.1362" y="71.5421" width="105.132" height="86.8374" filterUnits="userSpaceOnUse" color-interpolation-filters="sRGB">
<feFlood flood-opacity="0" result="BackgroundImageFix"/>
<feColorMatrix in="SourceAlpha" type="matrix" values="0 0 0 0 0 0 0 0 0 0 0 0 0 0 0 0 0 0 127 0" result="hardAlpha"/>
<feOffset dy="28"/>
<feGaussianBlur stdDeviation="6"/>
<feComposite in2="hardAlpha" operator="out"/>
<feColorMatrix type="matrix" values="0 0 0 0 0.0823529 0 0 0 0 0.109804 0 0 0 0 0.156863 0 0 0 0.25 0"/>
<feBlend mode="normal" in2="BackgroundImageFix" result="effect1_dropShadow_79_3335"/>
<feBlend mode="normal" in="SourceGraphic" in2="effect1_dropShadow_79_3335" result="shape"/>
</filter>
<linearGradient id="paint0_linear_79_3335" x1="44.1444" y1="90.0219" x2="144.599" y2="12.0143" gradientUnits="userSpaceOnUse">
<stop stop-color="#763BEA"/>
<stop offset="1" stop-color="#7522DE" stop-opacity="0.15"/>
</linearGradient>
</defs>
</svg>
