<svg width="603" height="177" viewBox="0 0 603 177" fill="none" xmlns="http://www.w3.org/2000/svg">
<path d="M191.2 137.89L191.553 137.686C198.739 133.538 204.375 130.284 208.463 127.446C208.671 127.301 208.876 127.157 209.077 127.014C214.061 123.465 216.553 120.545 216.553 117.276V103.022L120.777 158.522L25.1321 103.022V117.276C25.1321 120.545 27.6243 123.465 32.6089 127.014C32.6141 127.018 32.6192 127.021 32.6244 127.025C32.82 127.164 33.0195 127.304 33.2228 127.446C37.3104 130.284 42.9468 133.538 50.1321 137.686L50.4856 137.89L67.4562 147.687L68.1633 148.096L85.1339 157.893L85.4874 158.097L85.4875 158.097C92.6727 162.245 98.3091 165.499 103.226 167.859C103.477 167.979 103.727 168.097 103.974 168.213C110.121 171.091 115.18 172.529 120.843 172.529C126.506 172.529 131.564 171.091 137.711 168.213C137.959 168.097 138.208 167.979 138.459 167.859C143.376 165.499 149.013 162.245 156.198 158.097L156.552 157.893L173.522 148.096L174.229 147.687L191.2 137.89Z" fill="#121721"/>
<path d="M85.4874 62.4325C102.154 52.8108 110.487 48 120.843 48C131.198 48 139.531 52.8108 156.198 62.4325L191.553 82.8431C208.22 92.4648 216.553 97.2756 216.553 103.254C216.553 109.232 208.22 114.043 191.553 123.664L156.198 144.075C139.531 153.697 131.198 158.508 120.843 158.508C110.487 158.508 102.154 153.697 85.4874 144.075L50.1321 123.664C33.4654 114.043 25.1321 109.232 25.1321 103.254C25.1321 97.2756 33.4654 92.4648 50.1321 82.8431L85.4874 62.4325Z" fill="#2662D9"/>
<path fill-rule="evenodd" clip-rule="evenodd" d="M33.2228 113.424L50.1321 103.662L67.1026 113.459L49.7785 123.46C49.896 123.528 50.0138 123.596 50.1321 123.664L50.4856 123.869L67.8098 113.867L84.7803 123.664L67.4562 133.666L68.1633 134.074L85.4874 124.073L102.458 133.87L85.1339 143.871L85.4874 144.075C85.6057 144.143 85.7235 144.211 85.841 144.279L103.165 134.278L120.136 144.075L103.226 153.837C103.487 153.962 103.746 154.085 104.003 154.205L120.843 144.483L137.682 154.205C137.939 154.085 138.198 153.962 138.459 153.837L121.55 144.075L138.52 134.278L155.845 144.279C155.962 144.211 156.08 144.143 156.198 144.075L156.552 143.871L139.228 133.87L156.198 124.073L173.522 134.074L174.229 133.666L156.905 123.664L173.876 113.867L191.2 123.869L191.553 123.664C191.672 123.596 191.79 123.528 191.907 123.46L174.583 113.459L191.553 103.662L208.463 113.424C208.68 113.273 208.892 113.124 209.1 112.975L192.261 103.254L209.1 93.5322C208.892 93.3839 208.68 93.2345 208.463 93.0839L191.553 102.846L174.583 93.0485L191.907 83.0472C191.79 82.9794 191.672 82.9114 191.553 82.8431L191.2 82.639L173.876 92.6402L156.905 82.8431L174.229 72.8419L173.522 72.4337L156.198 82.4349L139.228 72.6378L156.552 62.6366L156.198 62.4325C156.08 62.3642 155.962 62.2962 155.845 62.2284L138.52 72.2296L121.55 62.4325L138.459 52.6708C138.198 52.5456 137.939 52.4229 137.682 52.3028L120.843 62.0243L104.003 52.3028C103.746 52.4229 103.487 52.5456 103.226 52.6708L120.136 62.4325L103.165 72.2296L85.841 62.2284C85.7235 62.2962 85.6057 62.3642 85.4874 62.4325L85.1339 62.6366L102.458 72.6378L85.4874 82.4349L68.1633 72.4337L67.4562 72.8419L84.7803 82.8431L67.8098 92.6402L50.4856 82.639L50.1321 82.8431C50.0138 82.9114 49.896 82.9794 49.7785 83.0472L67.1026 93.0485L50.1321 102.846L33.2228 93.0839C33.006 93.2345 32.7935 93.3839 32.5853 93.5322L49.425 103.254L32.5853 112.975C32.7935 113.124 33.006 113.273 33.2228 113.424ZM67.8098 113.051L50.8392 103.254L67.8098 93.4567L84.7803 103.254L67.8098 113.051ZM85.4874 102.846L68.5169 93.0485L85.4874 83.2514L102.458 93.0485L85.4874 102.846ZM103.165 92.6402L86.1945 82.8431L103.165 73.046L120.136 82.8431L103.165 92.6402ZM120.843 82.4349L103.872 72.6378L120.843 62.8407L137.813 72.6378L120.843 82.4349ZM121.55 82.8431L138.52 73.046L155.491 82.8431L138.52 92.6402L121.55 82.8431ZM139.228 93.0485L156.198 83.2514L173.169 93.0485L156.198 102.846L139.228 93.0485ZM156.905 103.254L173.876 93.4567L190.846 103.254L173.876 113.051L156.905 103.254ZM156.198 103.662L173.169 113.459L156.198 123.256L139.228 113.459L156.198 103.662ZM138.52 113.867L155.491 123.664L138.52 133.462L121.55 123.664L138.52 113.867ZM120.843 124.073L137.813 133.87L120.843 143.667L103.872 133.87L120.843 124.073ZM120.136 123.664L103.165 133.462L86.1945 123.664L103.165 113.867L120.136 123.664ZM102.458 113.459L85.4874 123.256L68.5169 113.459L85.4874 103.662L102.458 113.459ZM103.165 113.051L86.1945 103.254L103.165 93.4567L120.136 103.254L103.165 113.051ZM120.843 102.846L103.872 93.0485L120.843 83.2514L137.813 93.0485L120.843 102.846ZM121.55 103.254L138.52 93.4567L155.491 103.254L138.52 113.051L121.55 103.254ZM120.843 103.662L137.813 113.459L120.843 123.256L103.872 113.459L120.843 103.662Z" fill="#7DA1E8"/>
<path fill-rule="evenodd" clip-rule="evenodd" d="M173.876 92.7598C174.152 92.7598 174.376 92.8891 174.376 93.0485V95.6463C174.376 95.8058 174.152 95.935 173.876 95.935C173.6 95.935 173.376 95.8058 173.376 95.6463V93.7454L104.372 133.581L107.665 133.581C107.941 133.581 108.165 133.71 108.165 133.87C108.165 134.029 107.941 134.158 107.665 134.158L103.165 134.158C102.889 134.158 102.665 134.029 102.665 133.87V131.272C102.665 131.113 102.889 130.983 103.165 130.983C103.441 130.983 103.665 131.113 103.665 131.272V133.173L172.669 93.3371H169.376C169.1 93.3371 168.876 93.2079 168.876 93.0485C168.876 92.8891 169.1 92.7598 169.376 92.7598H173.876Z" fill="white"/>
<path fill-rule="evenodd" clip-rule="evenodd" d="M120.489 83.0472C110.921 77.5237 95.4088 77.5237 85.841 83.0472C76.2731 88.5708 76.2731 97.5262 85.841 103.05C95.4088 108.573 110.921 108.573 120.489 103.05C130.057 97.5262 130.057 88.5708 120.489 83.0472ZM85.1339 82.639C95.0922 76.8901 111.238 76.8901 121.196 82.639C131.155 88.388 131.155 97.7089 121.196 103.458C111.238 109.207 95.0922 109.207 85.1339 103.458C75.1755 97.7089 75.1755 88.388 85.1339 82.639Z" fill="white"/>
<path d="M165.432 67.7634L156.672 82.9344C156.618 83.0293 156.482 83.1011 156.313 83.1241C156.144 83.1471 155.967 83.118 155.845 83.0472L120.489 62.6366C120.367 62.5659 120.316 62.4635 120.356 62.3662C120.396 62.2688 120.52 62.1903 120.685 62.1587L146.897 57.1146C147.164 57.2638 147.433 57.4148 147.705 57.5676L121.768 62.5586L155.98 82.3088L164.642 67.307L165.432 67.7634Z" fill="white"/>
<path d="M68.1633 134.074L86.1945 123.664L50.1321 102.846L32.5853 112.975L32.6089 112.992C32.8095 113.135 33.0141 113.279 33.2228 113.424L50.1321 103.662L84.7803 123.664L67.4562 133.666L68.1633 134.074Z" fill="white"/>
<path d="M191.907 123.46L173.876 113.051L137.813 133.87L155.845 144.279C156.198 144.075 156.198 144.075 156.552 143.871L139.228 133.87L173.876 113.867L191.2 123.869L191.907 123.46Z" fill="white"/>
<g opacity="0.5" filter="url(#filter0_f_104_373)">
<path d="M120.173 117.568C120.182 117.099 120.022 116.634 119.727 116.201C119.421 115.768 118.979 115.379 118.414 115.049C117.849 114.719 117.178 114.458 116.442 114.282C115.7 114.103 114.904 114.016 114.102 114.022L109.173 114.043C108.401 114.038 107.673 114.218 107.132 114.534C106.591 114.85 106.283 115.275 106.279 115.72L106.141 127.322C106.139 127.52 106.073 127.722 105.931 127.907C105.801 128.092 105.601 128.263 105.359 128.404C105.112 128.549 104.824 128.662 104.508 128.738C104.191 128.814 103.851 128.856 103.506 128.861L86.956 128.932C85.3344 128.94 83.7741 129.321 82.6152 129.997C81.4622 130.671 80.8047 131.586 80.791 132.533L80.7771 133.494C80.7633 134.441 81.3997 135.349 82.5415 136.016C83.6832 136.682 85.2315 137.051 86.8589 137.046L103.409 136.975C103.748 136.974 104.093 137.011 104.409 137.085C104.724 137.159 105.01 137.271 105.255 137.414C105.494 137.554 105.685 137.721 105.818 137.908C105.946 138.093 106.014 138.291 106.007 138.493L105.866 149.728C105.966 150.323 106.413 150.879 107.135 151.294C107.863 151.713 108.809 151.97 109.828 152.022L134.76 151.92C134.877 151.926 134.994 151.933 135.117 151.929L142.031 151.899C142.663 151.897 143.279 151.796 143.825 151.607C144.371 151.417 144.818 151.149 145.125 150.827C145.414 150.522 145.569 150.186 145.566 149.841L145.612 145.806C145.612 145.765 145.601 145.724 145.601 145.683L145.777 131.004C145.787 130.488 145.457 129.993 144.857 129.622C144.544 129.335 144.112 129.104 143.604 128.945C143.097 128.786 142.529 128.702 141.944 128.703L129.229 128.753C127.402 128.759 125.92 129.631 125.911 130.698L125.875 134.959C125.866 136.025 127.346 136.89 129.178 136.881C129.518 136.88 129.863 136.917 130.179 136.991C130.494 137.065 130.78 137.177 131.025 137.32C131.263 137.46 131.455 137.627 131.588 137.814C131.716 137.999 131.784 138.197 131.777 138.399L131.727 142.286C131.723 142.69 131.439 143.08 130.945 143.369C130.451 143.658 129.788 143.82 129.091 143.826L122.47 143.855C122.131 143.856 121.785 143.819 121.47 143.745C121.154 143.67 120.869 143.558 120.624 143.416C120.379 143.273 120.193 143.109 120.06 142.921C119.933 142.737 119.864 142.539 119.872 142.337" fill="#151C28"/>
</g>
<g filter="url(#filter1_bdd_104_373)">
<path d="M156.198 34.4325C149.013 30.2845 143.376 27.0306 138.459 24.6708C138.208 24.5503 137.959 24.4322 137.711 24.3164C131.564 21.4388 126.506 20 120.843 20C115.18 20 110.121 21.4388 103.974 24.3164C103.727 24.4322 103.477 24.5503 103.226 24.6708C98.3091 27.0306 92.6727 30.2845 85.4874 34.4325L50.1321 54.8431C42.9468 58.9912 37.3104 62.2451 33.2228 65.0839C33.0142 65.2288 32.8095 65.3726 32.6089 65.5155C27.6243 69.0643 25.1321 71.9845 25.1321 75.2538C25.1321 78.5231 27.6243 81.4432 32.6089 84.9921C32.8095 85.1349 33.0142 85.2788 33.2228 85.4237C37.3104 88.2625 42.9469 91.5164 50.1321 95.6644L85.4874 116.075C92.6727 120.223 98.3091 123.477 103.226 125.837C103.477 125.957 103.727 126.075 103.974 126.191C110.121 129.069 115.18 130.508 120.843 130.508C126.506 130.508 131.564 129.069 137.711 126.191C137.959 126.075 138.208 125.957 138.459 125.837C143.376 123.477 149.013 120.223 156.198 116.075L191.553 95.6644C198.739 91.5164 204.375 88.2624 208.463 85.4237C208.671 85.2787 208.876 85.1349 209.077 84.9921C214.061 81.4432 216.553 78.5231 216.553 75.2538C216.553 71.9845 214.061 69.0643 209.077 65.5155C208.876 65.3726 208.671 65.2288 208.463 65.0839C204.375 62.2451 198.739 58.9912 191.553 54.8431L156.198 34.4325Z" fill="#6226D9" fill-opacity="0.5" shape-rendering="crispEdges"/>
<path d="M208.932 84.7885C213.919 81.2375 216.303 78.3842 216.303 75.2538C216.303 72.1277 213.926 69.2779 208.952 65.7338C208.945 65.7289 208.939 65.724 208.932 65.7191C208.732 65.5769 208.528 65.4336 208.32 65.2892C204.243 62.4578 198.618 59.2099 191.428 55.0597L156.073 34.649C155.955 34.5807 155.837 34.5127 155.72 34.4449C148.7 30.3926 143.177 27.2122 138.351 24.8962C138.101 24.776 137.852 24.6582 137.605 24.5428C137.596 24.5383 137.586 24.5337 137.577 24.5292C131.463 21.6703 126.449 20.25 120.843 20.25C115.237 20.25 110.223 21.6703 104.109 24.5292C104.1 24.5333 104.091 24.5374 104.083 24.5415C104.082 24.542 104.081 24.5424 104.08 24.5428C103.833 24.6582 103.585 24.776 103.335 24.8962C98.5085 27.2122 92.9856 30.3926 85.966 34.4449C85.9653 34.4453 85.9647 34.4457 85.964 34.446C85.8472 34.5135 85.73 34.5811 85.6124 34.649L50.2571 55.0597C43.068 59.2099 37.4424 62.4578 33.3654 65.2892C33.1575 65.4336 32.9536 65.5769 32.7539 65.7191C32.7461 65.7247 32.7382 65.7303 32.7304 65.7358C27.759 69.279 25.3821 72.1283 25.3821 75.2538C25.3821 78.3842 27.7664 81.2375 32.7539 84.7884L191.907 95.4603L191.782 95.2438C198.802 91.1909 204.31 88.0031 208.32 85.2183C208.528 85.0739 208.732 84.9306 208.932 84.7885ZM208.932 84.7885L208.955 84.7717L209.1 84.9753C209.092 84.9809 209.085 84.9865 209.077 84.9921L208.932 84.7885ZM103.974 126.191L104.08 125.965C103.833 125.849 103.585 125.732 103.335 125.611C98.4278 123.257 92.8006 120.008 85.6124 115.859L103.974 126.191ZM103.974 126.191C103.727 126.075 103.477 125.957 103.226 125.837C98.3901 123.516 92.858 120.33 85.841 116.279L103.974 126.191ZM191.428 95.4479L191.553 95.6644L156.198 116.075L156.073 115.859L191.428 95.4479ZM155.72 116.063L155.845 116.279C148.876 120.302 143.372 123.472 138.559 125.789C138.526 125.805 138.492 125.821 138.459 125.837C138.426 125.853 138.392 125.869 138.359 125.885C138.142 125.989 137.926 126.091 137.711 126.191L137.606 125.965C137.852 125.849 138.101 125.732 138.351 125.611C143.245 123.263 148.855 120.026 156.016 115.892L155.72 116.063ZM137.576 125.978L137.682 126.205C131.548 129.073 126.497 130.508 120.843 130.508C115.189 130.508 110.137 129.073 104.003 126.205L104.109 125.978L104.1 125.974C110.218 128.836 115.234 130.258 120.843 130.258C126.453 130.258 131.47 128.835 137.59 125.972L137.576 125.978Z" stroke="url(#paint0_linear_104_373)" stroke-width="0.5" shape-rendering="crispEdges"/>
</g>
<g filter="url(#filter2_d_104_373)">
<path d="M121.648 100.166L121.762 76.7111C121.649 75.851 121.122 75.1266 120.256 74.6082C119.37 74.0777 118.129 73.7629 116.613 73.7388L113.88 73.7432C109.453 73.7093 109.273 74.7767 109.311 76.5559L109.26 87.0359C109.256 87.7206 108.292 88.2772 107.106 88.2791L89.2087 88.3081L89.2075 88.3081C87.758 88.3154 86.3631 88.6519 85.327 89.2501C84.2961 89.8452 83.708 90.6535 83.6953 91.4903L83.6824 92.3392C83.6697 93.1759 84.3461 93.9154 85.3664 94.5045C86.3867 95.0935 87.5541 95.5013 89.0088 95.497L106.768 95.4683C107.954 95.4664 108.912 96.0199 108.909 96.7046L108.856 107.55C108.855 107.893 109.094 108.202 109.481 108.426C109.869 108.65 110.405 108.788 110.998 108.787L142.541 108.736C143.727 108.734 144.691 108.177 144.694 107.492L144.783 89.2827C144.784 88.9403 144.546 88.6308 144.158 88.407C143.77 88.1833 143.234 88.0454 142.641 88.0464L129.321 88.0679C128.135 88.0698 127.171 88.6264 127.167 89.3112L127.144 94.1955C127.14 94.8803 128.099 95.4338 129.285 95.4319L129.85 95.4309C131.036 95.429 131.994 95.9825 131.991 96.6673L131.974 100.149C131.971 100.834 131.007 101.39 129.821 101.392L123.79 101.402C122.604 101.404 121.645 100.85 121.648 100.166Z" fill="white"/>
</g>
<path d="M250.137 112.765C249.849 112.765 249.593 112.669 249.369 112.477C249.177 112.253 249.081 112.013 249.081 111.757C249.081 111.661 249.097 111.565 249.129 111.469C249.161 111.373 249.209 111.277 249.273 111.181L259.737 95.6287L250.041 80.7487C249.945 80.5567 249.897 80.3647 249.897 80.1727C249.897 79.9167 249.993 79.6927 250.185 79.5007C250.377 79.2767 250.617 79.1647 250.905 79.1647H257.865C258.345 79.1647 258.713 79.2927 258.969 79.5487C259.225 79.7727 259.401 79.9807 259.497 80.1727L265.257 88.9087L271.065 80.1727C271.193 79.9807 271.385 79.7727 271.641 79.5487C271.897 79.2927 272.265 79.1647 272.745 79.1647H279.321C279.609 79.1647 279.849 79.2767 280.041 79.5007C280.265 79.6927 280.377 79.9167 280.377 80.1727C280.377 80.3967 280.313 80.5887 280.185 80.7487L270.441 95.5807L281.001 111.181C281.065 111.277 281.097 111.373 281.097 111.469C281.129 111.565 281.145 111.661 281.145 111.757C281.145 112.013 281.049 112.253 280.857 112.477C280.665 112.669 280.425 112.765 280.137 112.765H272.985C272.505 112.765 272.121 112.653 271.833 112.429C271.577 112.173 271.401 111.965 271.305 111.805L264.921 102.589L258.681 111.805C258.585 111.965 258.409 112.173 258.153 112.429C257.897 112.653 257.529 112.765 257.049 112.765H250.137ZM286.254 112.765C285.902 112.765 285.614 112.653 285.39 112.429C285.166 112.205 285.054 111.917 285.054 111.565V80.3647C285.054 80.0127 285.166 79.7247 285.39 79.5007C285.614 79.2767 285.902 79.1647 286.254 79.1647H292.59C292.91 79.1647 293.182 79.2767 293.406 79.5007C293.662 79.7247 293.79 80.0127 293.79 80.3647V105.517H308.286C308.638 105.517 308.926 105.645 309.15 105.901C309.406 106.125 309.534 106.413 309.534 106.765V111.565C309.534 111.917 309.406 112.205 309.15 112.429C308.926 112.653 308.638 112.765 308.286 112.765H286.254ZM335.316 113.245C332.116 113.245 329.46 112.797 327.348 111.901C325.236 110.973 323.636 109.773 322.548 108.301C321.46 106.829 320.884 105.261 320.82 103.597C320.82 103.341 320.916 103.117 321.108 102.925C321.332 102.701 321.588 102.589 321.876 102.589H327.924C328.372 102.589 328.708 102.669 328.932 102.829C329.188 102.989 329.412 103.197 329.604 103.453C329.86 103.933 330.212 104.397 330.66 104.845C331.14 105.293 331.748 105.661 332.484 105.949C333.252 106.205 334.196 106.333 335.316 106.333C337.172 106.333 338.564 106.045 339.492 105.469C340.452 104.893 340.932 104.109 340.932 103.117C340.932 102.413 340.676 101.837 340.164 101.389C339.652 100.909 338.82 100.493 337.668 100.141C336.548 99.7567 335.044 99.3727 333.156 98.9887C330.724 98.4767 328.644 97.8207 326.916 97.0207C325.22 96.1887 323.924 95.1167 323.028 93.8047C322.132 92.4607 321.684 90.7967 321.684 88.8127C321.684 86.8607 322.228 85.1167 323.316 83.5807C324.436 82.0447 325.988 80.8447 327.972 79.9807C329.956 79.1167 332.308 78.6847 335.028 78.6847C337.236 78.6847 339.172 78.9727 340.836 79.5487C342.532 80.1247 343.956 80.8927 345.108 81.8527C346.26 82.8127 347.124 83.8367 347.7 84.9247C348.308 85.9807 348.628 87.0207 348.66 88.0447C348.66 88.3007 348.564 88.5407 348.372 88.7647C348.18 88.9567 347.94 89.0527 347.652 89.0527H341.316C340.964 89.0527 340.66 88.9887 340.404 88.8607C340.148 88.7327 339.924 88.5247 339.732 88.2367C339.54 87.5327 339.028 86.9247 338.196 86.4127C337.396 85.8687 336.34 85.5967 335.028 85.5967C333.62 85.5967 332.516 85.8527 331.716 86.3647C330.948 86.8447 330.564 87.5967 330.564 88.6207C330.564 89.2607 330.772 89.8207 331.188 90.3007C331.636 90.7807 332.356 91.1967 333.348 91.5487C334.372 91.9007 335.764 92.2687 337.524 92.6527C340.436 93.1967 342.788 93.8847 344.58 94.7167C346.372 95.5167 347.684 96.5727 348.516 97.8847C349.348 99.1647 349.764 100.781 349.764 102.733C349.764 104.909 349.14 106.797 347.892 108.397C346.676 109.965 344.98 111.165 342.804 111.997C340.628 112.829 338.132 113.245 335.316 113.245ZM365.85 113.245C363.162 113.245 360.89 112.813 359.034 111.949C357.21 111.085 355.802 109.853 354.81 108.253C353.85 106.621 353.306 104.685 353.178 102.445C353.146 101.805 353.13 101.085 353.13 100.285C353.13 99.4527 353.146 98.7327 353.178 98.1247C353.306 95.8527 353.882 93.9167 354.906 92.3167C355.93 90.7167 357.354 89.4847 359.178 88.6207C361.034 87.7567 363.258 87.3247 365.85 87.3247C368.474 87.3247 370.698 87.7567 372.522 88.6207C374.378 89.4847 375.818 90.7167 376.842 92.3167C377.866 93.9167 378.442 95.8527 378.57 98.1247C378.602 98.7327 378.618 99.4527 378.618 100.285C378.618 101.085 378.602 101.805 378.57 102.445C378.442 104.685 377.882 106.621 376.89 108.253C375.93 109.853 374.522 111.085 372.666 111.949C370.842 112.813 368.57 113.245 365.85 113.245ZM365.85 107.389C367.29 107.389 368.33 106.957 368.97 106.093C369.642 105.229 370.026 103.933 370.122 102.205C370.154 101.725 370.17 101.085 370.17 100.285C370.17 99.4847 370.154 98.8447 370.122 98.3647C370.026 96.6687 369.642 95.3887 368.97 94.5247C368.33 93.6287 367.29 93.1807 365.85 93.1807C364.442 93.1807 363.402 93.6287 362.73 94.5247C362.058 95.3887 361.69 96.6687 361.626 98.3647C361.594 98.8447 361.578 99.4847 361.578 100.285C361.578 101.085 361.594 101.725 361.626 102.205C361.69 103.933 362.058 105.229 362.73 106.093C363.402 106.957 364.442 107.389 365.85 107.389ZM387.136 112.765C386.816 112.765 386.528 112.653 386.272 112.429C386.048 112.205 385.936 111.917 385.936 111.565V94.0927H382.288C381.936 94.0927 381.648 93.9807 381.424 93.7567C381.2 93.5327 381.088 93.2447 381.088 92.8927V89.0047C381.088 88.6527 381.2 88.3647 381.424 88.1407C381.648 87.9167 381.936 87.8047 382.288 87.8047H385.936V86.2687C385.936 84.0927 386.352 82.3487 387.184 81.0367C388.048 79.6927 389.264 78.7327 390.832 78.1567C392.4 77.5487 394.272 77.2447 396.448 77.2447H400.192C400.512 77.2447 400.784 77.3567 401.008 77.5807C401.264 77.8047 401.392 78.0927 401.392 78.4447V82.3327C401.392 82.6847 401.264 82.9727 401.008 83.1967C400.784 83.4207 400.512 83.5327 400.192 83.5327H396.832C395.744 83.5327 394.976 83.7887 394.528 84.3007C394.112 84.8127 393.904 85.5487 393.904 86.5087V87.8047H399.712C400.032 87.8047 400.304 87.9167 400.528 88.1407C400.784 88.3647 400.912 88.6527 400.912 89.0047V92.8927C400.912 93.2447 400.784 93.5327 400.528 93.7567C400.304 93.9807 400.032 94.0927 399.712 94.0927H393.904V111.565C393.904 111.917 393.792 112.205 393.568 112.429C393.344 112.653 393.056 112.765 392.704 112.765H387.136ZM417.107 112.765C415.059 112.765 413.283 112.445 411.779 111.805C410.307 111.133 409.171 110.109 408.371 108.733C407.571 107.325 407.171 105.517 407.171 103.309V94.0927H403.427C403.075 94.0927 402.771 93.9807 402.515 93.7567C402.291 93.5327 402.179 93.2447 402.179 92.8927V89.0047C402.179 88.6527 402.291 88.3647 402.515 88.1407C402.771 87.9167 403.075 87.8047 403.427 87.8047H407.171V79.8847C407.171 79.5327 407.283 79.2447 407.507 79.0207C407.763 78.7967 408.051 78.6847 408.371 78.6847H413.939C414.291 78.6847 414.579 78.7967 414.803 79.0207C415.027 79.2447 415.139 79.5327 415.139 79.8847V87.8047H421.139C421.491 87.8047 421.779 87.9167 422.003 88.1407C422.227 88.3647 422.339 88.6527 422.339 89.0047V92.8927C422.339 93.2447 422.227 93.5327 422.003 93.7567C421.779 93.9807 421.491 94.0927 421.139 94.0927H415.139V102.637C415.139 103.725 415.347 104.589 415.763 105.229C416.179 105.869 416.883 106.189 417.875 106.189H421.571C421.923 106.189 422.211 106.301 422.435 106.525C422.659 106.749 422.771 107.037 422.771 107.389V111.565C422.771 111.917 422.659 112.205 422.435 112.429C422.211 112.653 421.923 112.765 421.571 112.765H417.107ZM433.705 112.765C433.225 112.765 432.873 112.653 432.649 112.429C432.425 112.205 432.249 111.917 432.121 111.565L425.209 89.3407C425.145 89.1807 425.113 89.0207 425.113 88.8607C425.113 88.5727 425.225 88.3327 425.449 88.1407C425.673 87.9167 425.929 87.8047 426.217 87.8047H431.161C431.577 87.8047 431.897 87.9167 432.121 88.1407C432.377 88.3647 432.537 88.5887 432.601 88.8127L436.633 102.541L440.953 88.8607C441.017 88.6367 441.161 88.4127 441.385 88.1887C441.641 87.9327 441.993 87.8047 442.441 87.8047H445.609C446.057 87.8047 446.393 87.9327 446.617 88.1887C446.873 88.4127 447.033 88.6367 447.097 88.8607L451.417 102.541L455.449 88.8127C455.513 88.5887 455.657 88.3647 455.881 88.1407C456.137 87.9167 456.473 87.8047 456.889 87.8047H461.833C462.121 87.8047 462.361 87.9167 462.553 88.1407C462.777 88.3327 462.889 88.5727 462.889 88.8607C462.889 89.0207 462.873 89.1807 462.841 89.3407L455.929 111.565C455.833 111.917 455.657 112.205 455.401 112.429C455.177 112.653 454.825 112.765 454.345 112.765H450.025C449.577 112.765 449.225 112.653 448.969 112.429C448.713 112.205 448.537 111.917 448.441 111.565L444.025 98.4127L439.609 111.565C439.513 111.917 439.337 112.205 439.081 112.429C438.825 112.653 438.473 112.765 438.025 112.765H433.705ZM473.608 113.245C471.88 113.245 470.328 112.925 468.952 112.285C467.608 111.613 466.536 110.717 465.736 109.597C464.936 108.477 464.536 107.213 464.536 105.805C464.536 103.533 465.464 101.741 467.32 100.429C469.176 99.0847 471.64 98.1727 474.712 97.6927L480.712 96.7807V96.1087C480.712 94.9567 480.472 94.0767 479.992 93.4687C479.512 92.8607 478.632 92.5567 477.352 92.5567C476.456 92.5567 475.72 92.7327 475.144 93.0847C474.6 93.4367 474.168 93.9167 473.848 94.5247C473.56 94.9407 473.16 95.1487 472.648 95.1487H467.272C466.92 95.1487 466.648 95.0527 466.456 94.8607C466.264 94.6367 466.184 94.3807 466.216 94.0927C466.216 93.5167 466.424 92.8607 466.84 92.1247C467.288 91.3567 467.96 90.6047 468.856 89.8687C469.752 89.1327 470.904 88.5247 472.312 88.0447C473.72 87.5647 475.416 87.3247 477.4 87.3247C479.48 87.3247 481.256 87.5647 482.728 88.0447C484.2 88.5247 485.384 89.1967 486.28 90.0607C487.208 90.9247 487.896 91.9487 488.344 93.1327C488.792 94.2847 489.016 95.5647 489.016 96.9727V111.565C489.016 111.917 488.888 112.205 488.632 112.429C488.408 112.653 488.136 112.765 487.816 112.765H482.248C481.896 112.765 481.608 112.653 481.384 112.429C481.16 112.205 481.048 111.917 481.048 111.565V109.885C480.632 110.493 480.072 111.053 479.368 111.565C478.664 112.077 477.832 112.477 476.872 112.765C475.944 113.085 474.856 113.245 473.608 113.245ZM475.864 107.773C476.792 107.773 477.624 107.581 478.36 107.197C479.128 106.781 479.72 106.157 480.136 105.325C480.584 104.461 480.808 103.389 480.808 102.109V101.437L476.728 102.157C475.224 102.413 474.12 102.813 473.416 103.357C472.744 103.869 472.408 104.477 472.408 105.181C472.408 105.725 472.568 106.189 472.888 106.573C473.208 106.957 473.624 107.261 474.136 107.485C474.648 107.677 475.224 107.773 475.864 107.773ZM495.632 112.765C495.28 112.765 494.992 112.653 494.768 112.429C494.544 112.205 494.432 111.917 494.432 111.565V89.0047C494.432 88.6847 494.544 88.4127 494.768 88.1887C494.992 87.9327 495.28 87.8047 495.632 87.8047H501.152C501.504 87.8047 501.792 87.9327 502.016 88.1887C502.24 88.4127 502.352 88.6847 502.352 89.0047V90.9247C503.216 89.9327 504.24 89.1647 505.424 88.6207C506.64 88.0767 508 87.8047 509.504 87.8047H511.616C511.936 87.8047 512.208 87.9167 512.432 88.1407C512.688 88.3647 512.816 88.6527 512.816 89.0047V93.9487C512.816 94.2687 512.688 94.5567 512.432 94.8127C512.208 95.0367 511.936 95.1487 511.616 95.1487H506.96C505.648 95.1487 504.624 95.5167 503.888 96.2527C503.184 96.9567 502.832 97.9647 502.832 99.2767V111.565C502.832 111.917 502.704 112.205 502.448 112.429C502.224 112.653 501.936 112.765 501.584 112.765H495.632ZM527.562 113.245C523.786 113.245 520.778 112.221 518.538 110.173C516.298 108.125 515.13 105.085 515.034 101.053C515.034 100.829 515.034 100.541 515.034 100.189C515.034 99.8367 515.034 99.5647 515.034 99.3727C515.13 96.8447 515.69 94.6847 516.714 92.8927C517.77 91.0687 519.21 89.6927 521.034 88.7647C522.89 87.8047 525.05 87.3247 527.514 87.3247C530.33 87.3247 532.65 87.8847 534.474 89.0047C536.33 90.1247 537.722 91.6447 538.65 93.5647C539.578 95.4847 540.042 97.6767 540.042 100.141V101.293C540.042 101.645 539.914 101.933 539.658 102.157C539.434 102.381 539.162 102.493 538.842 102.493H523.482C523.482 102.525 523.482 102.573 523.482 102.637C523.482 102.701 523.482 102.765 523.482 102.829C523.514 103.757 523.674 104.605 523.962 105.373C524.25 106.141 524.698 106.749 525.306 107.197C525.914 107.645 526.65 107.869 527.514 107.869C528.154 107.869 528.682 107.773 529.098 107.581C529.546 107.357 529.914 107.117 530.202 106.861C530.49 106.573 530.714 106.333 530.874 106.141C531.162 105.821 531.386 105.629 531.546 105.565C531.738 105.469 532.026 105.421 532.41 105.421H538.362C538.682 105.421 538.938 105.517 539.13 105.709C539.354 105.869 539.45 106.109 539.418 106.429C539.386 106.973 539.114 107.629 538.602 108.397C538.09 109.165 537.338 109.933 536.346 110.701C535.386 111.437 534.17 112.045 532.698 112.525C531.226 113.005 529.514 113.245 527.562 113.245ZM523.482 97.7407H531.594V97.6447C531.594 96.6207 531.434 95.7247 531.114 94.9567C530.826 94.1887 530.362 93.5967 529.722 93.1807C529.114 92.7647 528.378 92.5567 527.514 92.5567C526.65 92.5567 525.914 92.7647 525.306 93.1807C524.73 93.5967 524.282 94.1887 523.962 94.9567C523.642 95.7247 523.482 96.6207 523.482 97.6447V97.7407ZM569.352 113.245C566.472 113.245 563.944 112.781 561.768 111.853C559.624 110.893 557.96 109.437 556.776 107.485C555.592 105.501 555 102.989 555 99.9487V80.3647C555 80.0127 555.112 79.7247 555.336 79.5007C555.56 79.2767 555.848 79.1647 556.2 79.1647H562.392C562.744 79.1647 563.032 79.2767 563.256 79.5007C563.48 79.7247 563.592 80.0127 563.592 80.3647V99.9007C563.592 101.981 564.088 103.549 565.08 104.605C566.104 105.629 567.528 106.141 569.352 106.141C571.144 106.141 572.536 105.629 573.528 104.605C574.552 103.549 575.064 101.981 575.064 99.9007V80.3647C575.064 80.0127 575.176 79.7247 575.4 79.5007C575.656 79.2767 575.944 79.1647 576.264 79.1647H582.504C582.824 79.1647 583.096 79.2767 583.32 79.5007C583.576 79.7247 583.704 80.0127 583.704 80.3647V99.9487C583.704 102.989 583.112 105.501 581.928 107.485C580.744 109.437 579.08 110.893 576.936 111.853C574.792 112.781 572.264 113.245 569.352 113.245ZM591.27 112.765C590.918 112.765 590.63 112.653 590.406 112.429C590.182 112.205 590.07 111.917 590.07 111.565V80.3647C590.07 80.0127 590.182 79.7247 590.406 79.5007C590.63 79.2767 590.918 79.1647 591.27 79.1647H597.702C598.054 79.1647 598.342 79.2767 598.566 79.5007C598.79 79.7247 598.902 80.0127 598.902 80.3647V111.565C598.902 111.917 598.79 112.205 598.566 112.429C598.342 112.653 598.054 112.765 597.702 112.765H591.27Z" fill="black"/>
<defs>
<filter id="filter0_f_104_373" x="56.7769" y="90.0217" width="113" height="86" filterUnits="userSpaceOnUse" color-interpolation-filters="sRGB">
<feFlood flood-opacity="0" result="BackgroundImageFix"/>
<feBlend mode="normal" in="SourceGraphic" in2="BackgroundImageFix" result="shape"/>
<feGaussianBlur stdDeviation="12" result="effect1_foregroundBlur_104_373"/>
</filter>
<filter id="filter1_bdd_104_373" x="0.13208" y="0" width="241.421" height="168.508" filterUnits="userSpaceOnUse" color-interpolation-filters="sRGB">
<feFlood flood-opacity="0" result="BackgroundImageFix"/>
<feGaussianBlur in="BackgroundImageFix" stdDeviation="1.5"/>
<feComposite in2="SourceAlpha" operator="in" result="effect1_backgroundBlur_104_373"/>
<feColorMatrix in="SourceAlpha" type="matrix" values="0 0 0 0 0 0 0 0 0 0 0 0 0 0 0 0 0 0 127 0" result="hardAlpha"/>
<feOffset dy="28"/>
<feGaussianBlur stdDeviation="5"/>
<feComposite in2="hardAlpha" operator="out"/>
<feColorMatrix type="matrix" values="0 0 0 0 0.0823529 0 0 0 0 0.109804 0 0 0 0 0.156863 0 0 0 0.25 0"/>
<feBlend mode="normal" in2="effect1_backgroundBlur_104_373" result="effect2_dropShadow_104_373"/>
<feColorMatrix in="SourceAlpha" type="matrix" values="0 0 0 0 0 0 0 0 0 0 0 0 0 0 0 0 0 0 127 0" result="hardAlpha"/>
<feOffset dy="5"/>
<feGaussianBlur stdDeviation="12.5"/>
<feColorMatrix type="matrix" values="0 0 0 0 0.384314 0 0 0 0 0.14902 0 0 0 0 0.85098 0 0 0 0.7 0"/>
<feBlend mode="soft-light" in2="effect2_dropShadow_104_373" result="effect3_dropShadow_104_373"/>
<feBlend mode="normal" in="SourceGraphic" in2="effect3_dropShadow_104_373" result="shape"/>
</filter>
<filter id="filter2_d_104_373" x="68.2683" y="71.5421" width="105.132" height="86.8374" filterUnits="userSpaceOnUse" color-interpolation-filters="sRGB">
<feFlood flood-opacity="0" result="BackgroundImageFix"/>
<feColorMatrix in="SourceAlpha" type="matrix" values="0 0 0 0 0 0 0 0 0 0 0 0 0 0 0 0 0 0 127 0" result="hardAlpha"/>
<feOffset dy="28"/>
<feGaussianBlur stdDeviation="6"/>
<feComposite in2="hardAlpha" operator="out"/>
<feColorMatrix type="matrix" values="0 0 0 0 0.0823529 0 0 0 0 0.109804 0 0 0 0 0.156863 0 0 0 0.25 0"/>
<feBlend mode="normal" in2="BackgroundImageFix" result="effect1_dropShadow_104_373"/>
<feBlend mode="normal" in="SourceGraphic" in2="effect1_dropShadow_104_373" result="shape"/>
</filter>
<linearGradient id="paint0_linear_104_373" x1="44.2765" y1="90.0219" x2="144.731" y2="12.0143" gradientUnits="userSpaceOnUse">
<stop stop-color="#763BEA"/>
<stop offset="1" stop-color="#7522DE" stop-opacity="0.15"/>
</linearGradient>
</defs>
</svg>
